<svg xmlns="http://www.w3.org/2000/svg" xmlns:xlink="http://www.w3.org/1999/xlink" width="100" zoomAndPan="magnify" viewBox="0 0 75 74.999997" height="100" preserveAspectRatio="xMidYMid meet" version="1.0"><defs><clipPath id="b0322a95bb"><path d="M 0 7.5 L 75 7.5 L 75 67.5 L 0 67.5 Z M 0 7.5 " clip-rule="nonzero"/></clipPath><clipPath id="f5cd3ffe6b"><path d="M 3.808594 12.058594 L 28.261719 12.058594 L 28.261719 20.460938 L 3.808594 20.460938 Z M 3.808594 12.058594 " clip-rule="nonzero"/></clipPath><clipPath id="281c1f0c18"><path d="M 1.800781 24.898438 L 73.800781 24.898438 L 73.800781 66.300781 L 1.800781 66.300781 Z M 1.800781 24.898438 " clip-rule="nonzero"/></clipPath><clipPath id="c07f382f0f"><path d="M 7.800781 24.898438 L 67.800781 24.898438 C 71.113281 24.898438 73.800781 27.585938 73.800781 30.898438 L 73.800781 60.300781 C 73.800781 63.613281 71.113281 66.300781 67.800781 66.300781 L 7.800781 66.300781 C 4.484375 66.300781 1.800781 63.613281 1.800781 60.300781 L 1.800781 30.898438 C 1.800781 27.585938 4.484375 24.898438 7.800781 24.898438 Z M 7.800781 24.898438 " clip-rule="nonzero"/></clipPath><clipPath id="b10fb1e6f6"><path d="M 31.351562 17.398438 L 73.800781 17.398438 L 73.800781 28.648438 L 31.351562 28.648438 Z M 31.351562 17.398438 " clip-rule="nonzero"/></clipPath><clipPath id="53222ed783"><path d="M 23 19 L 37 19 L 37 32 L 23 32 Z M 23 19 " clip-rule="nonzero"/></clipPath><clipPath id="c026a4a266"><path d="M 23.226562 26.300781 L 32.621094 19.078125 L 36.894531 24.636719 L 27.503906 31.863281 Z M 23.226562 26.300781 " clip-rule="nonzero"/></clipPath><clipPath id="de638283ee"><path d="M 23.226562 26.300781 L 32.621094 19.078125 L 36.894531 24.636719 L 27.503906 31.863281 Z M 23.226562 26.300781 " clip-rule="nonzero"/></clipPath><clipPath id="22d15eaac5"><path d="M 1.800781 24.847656 L 11.25 24.847656 L 11.25 31.863281 L 1.800781 31.863281 Z M 1.800781 24.847656 " clip-rule="nonzero"/></clipPath><clipPath id="f6609d5ae3"><path d="M 8.308594 27.328125 L 68.308594 27.328125 L 68.308594 62.578125 L 8.308594 62.578125 Z M 8.308594 27.328125 " clip-rule="nonzero"/></clipPath><clipPath id="b146fab7f0"><path d="M 3.808594 12.058594 L 28.558594 12.058594 L 28.558594 20.308594 L 3.808594 20.308594 Z M 3.808594 12.058594 " clip-rule="nonzero"/></clipPath><clipPath id="eaccd3bfe7"><path d="M 3.808594 16 L 28.558594 16 L 28.558594 20.308594 L 3.808594 20.308594 Z M 3.808594 16 " clip-rule="nonzero"/></clipPath><clipPath id="4efb02722c"><path d="M 21 13 L 28.558594 13 L 28.558594 20 L 21 20 Z M 21 13 " clip-rule="nonzero"/></clipPath></defs><path fill="#000000" d="M 16.984375 37.925781 C 12.144531 37.925781 13.046875 38.941406 13.046875 30.773438 C 13.046875 29.332031 15.070312 29.707031 16.984375 29.707031 C 22.203125 29.707031 22.203125 37.925781 16.984375 37.925781 Z M 15.175781 35.792969 C 16.878906 35.792969 18.796875 36.164062 18.796875 33.65625 C 18.796875 31.519531 16.402344 31.839844 15.175781 31.839844 Z M 15.175781 35.792969 " fill-opacity="1" fill-rule="evenodd"/><path fill="#000000" d="M 16.984375 44.066406 C 12.144531 44.066406 13.046875 45.027344 13.046875 36.859375 C 13.046875 35.417969 15.070312 35.792969 16.984375 35.792969 C 22.203125 35.792969 22.203125 44.066406 16.984375 44.066406 Z M 15.175781 41.929688 C 16.878906 41.929688 18.796875 42.25 18.796875 39.742188 C 18.796875 37.605469 16.402344 37.925781 15.175781 37.925781 Z M 15.175781 41.929688 " fill-opacity="1" fill-rule="evenodd"/><path fill="#000000" d="M 31.140625 44.066406 L 24.96875 44.066406 C 24.382812 44.066406 23.902344 43.585938 23.902344 43 L 23.902344 30.773438 C 23.902344 29.386719 26.03125 29.386719 26.03125 30.773438 L 26.03125 41.929688 L 31.140625 41.929688 C 32.527344 41.929688 32.527344 44.066406 31.140625 44.066406 Z M 31.140625 44.066406 " fill-opacity="1" fill-rule="evenodd"/><path fill="#000000" d="M 39.921875 44.066406 C 37.316406 44.066406 35.1875 41.929688 35.1875 39.316406 L 35.1875 34.402344 C 35.1875 28.210938 44.605469 28.210938 44.605469 34.402344 L 44.605469 39.316406 C 44.605469 41.929688 42.53125 44.066406 39.921875 44.066406 Z M 39.871094 31.839844 C 38.484375 31.839844 37.316406 33.015625 37.316406 34.402344 L 37.316406 39.316406 C 37.316406 42.730469 42.476562 42.730469 42.476562 39.316406 L 42.476562 34.402344 C 42.476562 33.015625 41.304688 31.839844 39.871094 31.839844 Z M 39.871094 31.839844 " fill-opacity="1" fill-rule="evenodd"/><path fill="#000000" d="M 54.769531 44.066406 C 50.832031 44.066406 47.640625 40.808594 47.640625 36.859375 C 47.640625 30.71875 54.824219 27.464844 59.398438 31.359375 C 60.464844 32.320312 59.132812 33.921875 58.015625 33.015625 C 54.769531 30.238281 49.714844 32.535156 49.714844 36.859375 C 49.714844 42.890625 58.441406 43.746094 59.71875 37.925781 L 54.769531 37.925781 C 53.386719 37.925781 53.386719 35.792969 54.769531 35.792969 L 60.890625 35.792969 C 63.605469 35.792969 61.15625 44.066406 54.769531 44.066406 Z M 54.769531 44.066406 " fill-opacity="1" fill-rule="evenodd"/><path fill="#000000" d="M 60.785156 49.722656 L 14.113281 49.722656 C 12.675781 49.722656 12.675781 47.589844 14.113281 47.589844 L 60.785156 47.589844 C 62.167969 47.589844 62.167969 49.722656 60.785156 49.722656 Z M 60.785156 49.722656 " fill-opacity="1" fill-rule="evenodd"/><path fill="#000000" d="M 56.261719 55.4375 L 18.582031 55.4375 C 17.199219 55.4375 17.199219 53.300781 18.582031 53.300781 L 56.261719 53.300781 C 57.644531 53.300781 57.644531 55.4375 56.261719 55.4375 Z M 56.261719 55.4375 " fill-opacity="1" fill-rule="evenodd"/><path fill="#000000" d="M 50.566406 61.148438 L 24.277344 61.148438 C 22.894531 61.148438 22.894531 59.011719 24.277344 59.011719 L 50.566406 59.011719 C 52.003906 59.011719 52.003906 61.148438 50.566406 61.148438 Z M 50.566406 61.148438 " fill-opacity="1" fill-rule="evenodd"/><g clip-path="url(#b0322a95bb)"><path fill="#000000" d="M 68.394531 67.5 L 6.554688 67.5 C 3.148438 67.5 0.328125 64.722656 0.328125 61.253906 L 0.328125 13.800781 C 0.328125 10.328125 3.148438 7.5 6.554688 7.5 L 68.394531 7.5 C 71.851562 7.5 74.621094 10.328125 74.621094 13.800781 L 74.621094 61.253906 C 74.621094 64.722656 71.851562 67.5 68.394531 67.5 Z M 6.554688 9.636719 C 4.320312 9.636719 2.457031 11.503906 2.457031 13.800781 L 2.457031 61.253906 C 2.457031 63.550781 4.320312 65.417969 6.554688 65.417969 L 68.394531 65.417969 C 70.628906 65.417969 72.492188 63.550781 72.492188 61.253906 L 72.492188 13.800781 C 72.492188 11.503906 70.628906 9.636719 68.394531 9.636719 Z M 6.554688 9.636719 " fill-opacity="1" fill-rule="evenodd"/></g><path fill="#000000" d="M 24.222656 25.4375 L 1.394531 25.4375 C 0.0078125 25.4375 0.0078125 23.300781 1.394531 23.300781 L 24.222656 23.300781 C 27.523438 23.300781 29.917969 20.738281 29.917969 17.109375 C 29.917969 16.519531 30.398438 16.039062 30.980469 16.039062 L 73.554688 16.039062 C 74.992188 16.039062 74.992188 18.175781 73.554688 18.175781 L 31.992188 18.175781 C 31.726562 22.234375 28.320312 25.4375 24.222656 25.4375 Z M 24.222656 25.4375 " fill-opacity="1" fill-rule="evenodd"/><path fill="#000000" d="M 7.726562 19.882812 C 3.203125 19.882812 3.203125 13.050781 7.726562 13.050781 C 12.195312 13.050781 12.195312 19.882812 7.726562 19.882812 Z M 7.726562 15.1875 C 6.023438 15.1875 6.023438 17.75 7.726562 17.75 C 9.429688 17.75 9.429688 15.1875 7.726562 15.1875 Z M 7.726562 15.1875 " fill-opacity="1" fill-rule="evenodd"/><path fill="#000000" d="M 16.1875 19.882812 C 11.71875 19.882812 11.71875 13.050781 16.1875 13.050781 C 20.65625 13.050781 20.65625 19.882812 16.1875 19.882812 Z M 16.1875 15.1875 C 14.484375 15.1875 14.484375 17.75 16.1875 17.75 C 17.890625 17.75 17.890625 15.1875 16.1875 15.1875 Z M 16.1875 15.1875 " fill-opacity="1" fill-rule="evenodd"/><path fill="#000000" d="M 24.648438 19.882812 C 20.179688 19.882812 20.179688 13.050781 24.648438 13.050781 C 29.171875 13.050781 29.171875 19.882812 24.648438 19.882812 Z M 24.648438 15.1875 C 22.945312 15.1875 22.945312 17.75 24.648438 17.75 C 26.351562 17.75 26.351562 15.1875 24.648438 15.1875 Z M 24.648438 15.1875 " fill-opacity="1" fill-rule="evenodd"/><g clip-path="url(#f5cd3ffe6b)"><path fill="#ffffff" d="M 3.808594 12.058594 L 28.261719 12.058594 L 28.261719 20.460938 L 3.808594 20.460938 Z M 3.808594 12.058594 " fill-opacity="1" fill-rule="nonzero"/></g><g clip-path="url(#281c1f0c18)"><g clip-path="url(#c07f382f0f)"><path fill="#000000" d="M 1.800781 24.898438 L 73.800781 24.898438 L 73.800781 66.300781 L 1.800781 66.300781 Z M 1.800781 24.898438 " fill-opacity="1" fill-rule="nonzero"/></g></g><g clip-path="url(#b10fb1e6f6)"><path fill="#000000" d="M 31.351562 17.398438 L 73.800781 17.398438 L 73.800781 28.648438 L 31.351562 28.648438 Z M 31.351562 17.398438 " fill-opacity="1" fill-rule="nonzero"/></g><g clip-path="url(#53222ed783)"><g clip-path="url(#c026a4a266)"><g clip-path="url(#de638283ee)"><path fill="#000000" d="M 23.226562 26.300781 L 32.621094 19.078125 L 36.894531 24.636719 L 27.503906 31.863281 Z M 23.226562 26.300781 " fill-opacity="1" fill-rule="nonzero"/></g></g></g><g clip-path="url(#22d15eaac5)"><path fill="#000000" d="M 1.800781 24.847656 L 11.25 24.847656 L 11.25 31.863281 L 1.800781 31.863281 Z M 1.800781 24.847656 " fill-opacity="1" fill-rule="nonzero"/></g><path fill="#ffffff" d="M 17.042969 37.910156 C 12.183594 37.910156 13.09375 38.925781 13.09375 30.753906 C 13.09375 29.3125 15.121094 29.6875 17.042969 29.6875 C 22.277344 29.6875 22.277344 37.910156 17.042969 37.910156 Z M 15.230469 35.773438 C 16.9375 35.773438 18.859375 36.148438 18.859375 33.636719 C 18.859375 31.503906 16.457031 31.824219 15.230469 31.824219 Z M 15.230469 35.773438 " fill-opacity="1" fill-rule="evenodd"/><path fill="#ffffff" d="M 17.042969 44.050781 C 12.183594 44.050781 13.09375 45.011719 13.09375 36.84375 C 13.09375 35.402344 15.121094 35.773438 17.042969 35.773438 C 22.277344 35.773438 22.277344 44.050781 17.042969 44.050781 Z M 15.230469 41.914062 C 16.9375 41.914062 18.859375 42.234375 18.859375 39.726562 C 18.859375 37.589844 16.457031 37.910156 15.230469 37.910156 Z M 15.230469 41.914062 " fill-opacity="1" fill-rule="evenodd"/><path fill="#ffffff" d="M 31.25 44.050781 L 25.054688 44.050781 C 24.46875 44.050781 23.988281 43.570312 23.988281 42.984375 L 23.988281 30.753906 C 23.988281 29.367188 26.121094 29.367188 26.121094 30.753906 L 26.121094 41.914062 L 31.25 41.914062 C 32.636719 41.914062 32.636719 44.050781 31.25 44.050781 Z M 31.25 44.050781 " fill-opacity="1" fill-rule="evenodd"/><path fill="#ffffff" d="M 40.0625 44.050781 C 37.445312 44.050781 35.308594 41.914062 35.308594 39.300781 L 35.308594 34.386719 C 35.308594 28.191406 44.761719 28.191406 44.761719 34.386719 L 44.761719 39.300781 C 44.761719 41.914062 42.675781 44.050781 40.0625 44.050781 Z M 40.007812 31.824219 C 38.617188 31.824219 37.445312 32.996094 37.445312 34.386719 L 37.445312 39.300781 C 37.445312 42.714844 42.625 42.714844 42.625 39.300781 L 42.625 34.386719 C 42.625 32.996094 41.449219 31.824219 40.007812 31.824219 Z M 40.007812 31.824219 " fill-opacity="1" fill-rule="evenodd"/><path fill="#ffffff" d="M 54.960938 44.050781 C 51.007812 44.050781 47.804688 40.792969 47.804688 36.84375 C 47.804688 30.703125 55.011719 27.445312 59.605469 31.34375 C 60.671875 32.304688 59.339844 33.90625 58.21875 32.996094 C 54.960938 30.21875 49.886719 32.515625 49.886719 36.84375 C 49.886719 42.875 58.644531 43.730469 59.925781 37.910156 L 54.960938 37.910156 C 53.570312 37.910156 53.570312 35.773438 54.960938 35.773438 L 61.101562 35.773438 C 63.824219 35.773438 61.367188 44.050781 54.960938 44.050781 Z M 54.960938 44.050781 " fill-opacity="1" fill-rule="evenodd"/><path fill="#ffffff" d="M 60.996094 49.710938 L 14.160156 49.710938 C 12.71875 49.710938 12.71875 47.574219 14.160156 47.574219 L 60.996094 47.574219 C 62.382812 47.574219 62.382812 49.710938 60.996094 49.710938 Z M 60.996094 49.710938 " fill-opacity="1" fill-rule="evenodd"/><path fill="#ffffff" d="M 56.453125 55.425781 L 18.648438 55.425781 C 17.257812 55.425781 17.257812 53.289062 18.648438 53.289062 L 56.453125 53.289062 C 57.84375 53.289062 57.84375 55.425781 56.453125 55.425781 Z M 56.453125 55.425781 " fill-opacity="1" fill-rule="evenodd"/><path fill="#ffffff" d="M 50.742188 61.140625 L 24.359375 61.140625 C 22.972656 61.140625 22.972656 59.003906 24.359375 59.003906 L 50.742188 59.003906 C 52.183594 59.003906 52.183594 61.140625 50.742188 61.140625 Z M 50.742188 61.140625 " fill-opacity="1" fill-rule="evenodd"/><g clip-path="url(#f6609d5ae3)"><path fill="#ffffff" d="M 68.628906 67.496094 L 6.578125 67.496094 C 3.160156 67.496094 0.328125 64.71875 0.328125 61.246094 L 0.328125 13.773438 C 0.328125 10.300781 3.160156 7.472656 6.578125 7.472656 L 68.628906 7.472656 C 72.101562 7.472656 74.878906 10.300781 74.878906 13.773438 L 74.878906 61.246094 C 74.878906 64.71875 72.101562 67.496094 68.628906 67.496094 Z M 6.578125 9.609375 C 4.335938 9.609375 2.464844 11.476562 2.464844 13.773438 L 2.464844 61.246094 C 2.464844 63.542969 4.335938 65.414062 6.578125 65.414062 L 68.628906 65.414062 C 70.875 65.414062 72.742188 63.542969 72.742188 61.246094 L 72.742188 13.773438 C 72.742188 11.476562 70.875 9.609375 68.628906 9.609375 Z M 6.578125 9.609375 " fill-opacity="1" fill-rule="evenodd"/></g><g clip-path="url(#b146fab7f0)"><path fill="#fab800" d="M 68.628906 67.496094 L 6.578125 67.496094 C 3.160156 67.496094 0.328125 64.71875 0.328125 61.246094 L 0.328125 13.773438 C 0.328125 10.300781 3.160156 7.472656 6.578125 7.472656 L 68.628906 7.472656 C 72.101562 7.472656 74.878906 10.300781 74.878906 13.773438 L 74.878906 61.246094 C 74.878906 64.71875 72.101562 67.496094 68.628906 67.496094 Z M 6.578125 9.609375 C 4.335938 9.609375 2.464844 11.476562 2.464844 13.773438 L 2.464844 61.246094 C 2.464844 63.542969 4.335938 65.414062 6.578125 65.414062 L 68.628906 65.414062 C 70.875 65.414062 72.742188 63.542969 72.742188 61.246094 L 72.742188 13.773438 C 72.742188 11.476562 70.875 9.609375 68.628906 9.609375 Z M 6.578125 9.609375 " fill-opacity="1" fill-rule="evenodd"/></g><g clip-path="url(#eaccd3bfe7)"><path fill="#fab800" d="M 24.308594 25.414062 L 1.398438 25.414062 C 0.0078125 25.414062 0.0078125 23.277344 1.398438 23.277344 L 24.308594 23.277344 C 27.617188 23.277344 30.019531 20.714844 30.019531 17.082031 C 30.019531 16.496094 30.5 16.015625 31.089844 16.015625 L 73.8125 16.015625 C 75.253906 16.015625 75.253906 18.152344 73.8125 18.152344 L 32.105469 18.152344 C 31.835938 22.210938 28.417969 25.414062 24.308594 25.414062 Z M 24.308594 25.414062 " fill-opacity="1" fill-rule="evenodd"/></g><path fill="#fab800" d="M 7.753906 19.859375 C 3.214844 19.859375 3.214844 13.023438 7.753906 13.023438 C 12.238281 13.023438 12.238281 19.859375 7.753906 19.859375 Z M 7.753906 15.160156 C 6.042969 15.160156 6.042969 17.726562 7.753906 17.726562 C 9.460938 17.726562 9.460938 15.160156 7.753906 15.160156 Z M 7.753906 15.160156 " fill-opacity="1" fill-rule="evenodd"/><path fill="#fab800" d="M 16.242188 19.859375 C 11.757812 19.859375 11.757812 13.023438 16.242188 13.023438 C 20.730469 13.023438 20.730469 19.859375 16.242188 19.859375 Z M 16.242188 15.160156 C 14.535156 15.160156 14.535156 17.726562 16.242188 17.726562 C 17.953125 17.726562 17.953125 15.160156 16.242188 15.160156 Z M 16.242188 15.160156 " fill-opacity="1" fill-rule="evenodd"/><g clip-path="url(#4efb02722c)"><path fill="#fab800" d="M 24.734375 19.859375 C 20.25 19.859375 20.25 13.023438 24.734375 13.023438 C 29.273438 13.023438 29.273438 19.859375 24.734375 19.859375 Z M 24.734375 15.160156 C 23.027344 15.160156 23.027344 17.726562 24.734375 17.726562 C 26.441406 17.726562 26.441406 15.160156 24.734375 15.160156 Z M 24.734375 15.160156 " fill-opacity="1" fill-rule="evenodd"/></g></svg>