<svg xmlns="http://www.w3.org/2000/svg" xmlns:xlink="http://www.w3.org/1999/xlink" width="150"
    zoomAndPan="magnify" viewBox="0 0 75 74.999997" height="150" preserveAspectRatio="xMidYMid meet"
    version="1.0">
    <defs>
        <clipPath id="c6f504bcdd">
            <path d="M 0 62 L 75 62 L 75 67.6875 L 0 67.6875 Z M 0 62 " clip-rule="nonzero" />
        </clipPath>
        <clipPath id="698bd61b37">
            <path d="M 30 65 L 45 65 L 45 67.6875 L 30 67.6875 Z M 30 65 " clip-rule="nonzero" />
        </clipPath>
        <clipPath id="3b9d31b09d">
            <path d="M 28 3.9375 L 44 3.9375 L 44 18 L 28 18 Z M 28 3.9375 " clip-rule="nonzero" />
        </clipPath>
        <clipPath id="3bc24b7366">
            <path
                d="M 42.136719 15.175781 L 43.25 15.175781 L 43.25 18.609375 L 42.136719 18.609375 Z M 42.136719 15.175781 "
                clip-rule="nonzero" />
        </clipPath>
        <clipPath id="ddec07dd79">
            <path
                d="M 42.152344 15.191406 C 42.308594 16.304688 42.335938 17.457031 42.226562 18.574219 C 42.832031 18.128906 43.132812 17.21875 43.222656 16.324219 C 43.292969 15.671875 42.707031 15.363281 42.707031 15.363281 C 42.636719 15.339844 42.5625 15.316406 42.492188 15.292969 L 42.234375 15.773438 C 42.210938 15.578125 42.183594 15.382812 42.160156 15.195312 C 42.15625 15.195312 42.15625 15.191406 42.152344 15.191406 "
                clip-rule="nonzero" />
        </clipPath>
    </defs>
    <path fill="#1f2c51"
        d="M 7.933594 61.875 C 7.933594 62.488281 8.429688 62.988281 9.042969 62.988281 L 65.628906 62.988281 C 66.246094 62.988281 66.742188 62.488281 66.742188 61.875 L 66.742188 25.539062 C 66.742188 24.921875 66.246094 24.421875 65.628906 24.421875 L 9.042969 24.421875 C 8.429688 24.421875 7.933594 24.921875 7.933594 25.539062 L 7.933594 61.875 "
        fill-opacity="1" fill-rule="nonzero" />
    <path fill="black"
        d="M 10.375 60.410156 L 64.296875 60.410156 L 64.296875 27.003906 L 10.375 27.003906 L 10.375 60.410156 "
        fill-opacity="1" fill-rule="nonzero" />
    <path fill="#ffffff"
        d="M 66.417969 24.75 C 66.613281 24.945312 66.734375 25.210938 66.742188 25.503906 C 66.734375 25.210938 66.613281 24.945312 66.417969 24.75 M 8.257812 62.664062 C 8.457031 62.863281 8.738281 62.988281 9.042969 62.988281 C 8.738281 62.988281 8.457031 62.863281 8.257812 62.664062 "
        fill-opacity="1" fill-rule="nonzero" />
    <path fill="#1d3a65"
        d="M 66.417969 24.75 L 62.960938 27.003906 L 64.296875 27.003906 L 64.296875 60.410156 L 11.714844 60.410156 L 8.257812 62.664062 C 8.457031 62.863281 8.738281 62.988281 9.042969 62.988281 L 65.628906 62.988281 C 66.246094 62.988281 66.742188 62.488281 66.742188 61.875 L 66.742188 25.539062 C 66.742188 25.527344 66.742188 25.515625 66.742188 25.503906 C 66.734375 25.210938 66.613281 24.945312 66.417969 24.75 "
        fill-opacity="1" fill-rule="nonzero" />
    <path fill="#fab800"
        d="M 64.296875 27.003906 L 62.957031 27.003906 L 11.714844 60.410156 L 64.296875 60.410156 L 64.296875 27.003906 "
        fill-opacity="1" fill-rule="nonzero" />
    <g clip-path="url(#c6f504bcdd)">
        <path fill="#d7f2f9"
            d="M 72.101562 67.6875 L 74.566406 64.523438 C 74.988281 63.132812 73.9375 62.988281 73.9375 62.988281 L 1.066406 62.988281 C 1.066406 62.988281 0.0117188 63.132812 0.4375 64.523438 L 2.898438 67.6875 L 72.101562 67.6875 "
            fill-opacity="1" fill-rule="nonzero" />
    </g>
    <g clip-path="url(#698bd61b37)">
        <path fill="black"
            d="M 30.648438 67.6875 L 44.355469 67.6875 L 44.355469 65.945312 L 30.648438 65.945312 L 30.648438 67.6875 "
            fill-opacity="1" fill-rule="nonzero" />
    </g>
    <path fill="#f8a18f"
        d="M 28.5 17.230469 C 28.34375 18.292969 28.777344 19.578125 29.675781 20.148438 C 30.894531 20.917969 31.550781 19.789062 31.703125 18.621094 C 31.824219 17.679688 31.625 16.003906 30.605469 15.53125 C 29.640625 15.085938 28.625 16.355469 28.5 17.230469 "
        fill-opacity="1" fill-rule="nonzero" />
    <path fill="#f8a18f"
        d="M 30.53125 19.828125 L 38.476562 19.820312 L 38.484375 29.730469 L 30.539062 29.738281 L 30.53125 19.828125 "
        fill-opacity="1" fill-rule="nonzero" />
    <path fill="#f57c6e"
        d="M 32.960938 25.3125 C 32.164062 23.636719 31.6875 21.9375 31.816406 19.828125 L 38.476562 19.820312 L 38.484375 28.433594 C 36.390625 28.113281 33.8125 27.097656 32.960938 25.3125 "
        fill-opacity="1" fill-rule="nonzero" />
    <path fill="#f8a18f"
        d="M 43.414062 30.640625 L 38.367188 29.019531 L 30.894531 29.019531 L 27.546875 30.367188 L 38.105469 38.960938 L 43.414062 30.640625 "
        fill-opacity="1" fill-rule="nonzero" />
    <path fill="#ffffff"
        d="M 20.136719 60.433594 C 20.027344 58.007812 19.894531 55.59375 19.882812 53.554688 L 18.46875 37.574219 C 17.664062 34.726562 20.683594 32.898438 20.683594 32.898438 L 29.6875 29.449219 L 37.449219 36.449219 L 40.359375 29.660156 L 45.765625 31.332031 C 45.765625 31.332031 48.367188 32.859375 49.121094 37.242188 C 49.121094 37.242188 50.210938 46.710938 50.683594 60.433594 L 20.136719 60.433594 "
        fill-opacity="1" fill-rule="nonzero" />
    <path fill="#f8a18f"
        d="M 31.046875 20.4375 C 31.503906 22.230469 32.25 23.75 33.726562 24.945312 C 35.175781 26.113281 36.730469 26.816406 38.40625 25.757812 C 39.738281 24.914062 40.703125 23.558594 41.328125 22.148438 C 42.769531 18.902344 42.597656 14.132812 40.804688 11.140625 C 38.835938 7.851562 34.210938 7.933594 32.03125 11.039062 C 30.257812 13.570312 30.304688 17.539062 31.046875 20.4375 "
        fill-opacity="1" fill-rule="nonzero" />
    <path fill="#f57c6e"
        d="M 30.109375 19.875 C 30.195312 19.875 30.277344 19.824219 30.308594 19.738281 C 30.820312 18.457031 30.371094 17.140625 30.074219 16.707031 C 30.007812 16.609375 29.871094 16.582031 29.773438 16.648438 C 29.675781 16.71875 29.652344 16.851562 29.71875 16.949219 C 29.960938 17.308594 30.351562 18.46875 29.910156 19.582031 C 29.867188 19.691406 29.917969 19.816406 30.03125 19.859375 C 30.054688 19.871094 30.082031 19.875 30.109375 19.875 "
        fill-opacity="1" fill-rule="nonzero" />
    <path fill="#f57c6e"
        d="M 30.265625 18.101562 C 30.355469 18.101562 30.4375 18.042969 30.46875 17.953125 C 30.507812 17.839844 30.445312 17.71875 30.332031 17.679688 C 29.859375 17.523438 29.53125 17.519531 29.164062 17.667969 C 29.054688 17.710938 29 17.835938 29.042969 17.949219 C 29.085938 18.058594 29.210938 18.113281 29.320312 18.070312 C 29.597656 17.960938 29.816406 17.964844 30.195312 18.089844 C 30.21875 18.097656 30.242188 18.101562 30.265625 18.101562 "
        fill-opacity="1" fill-rule="nonzero" />
    <path fill="#f57c6e"
        d="M 33.886719 18.40625 C 33.867188 18.671875 34.347656 18.925781 34.953125 18.96875 C 35.558594 19.011719 36.066406 18.828125 36.082031 18.558594 C 36.101562 18.289062 35.625 18.035156 35.019531 17.996094 C 34.414062 17.953125 33.90625 18.136719 33.886719 18.40625 "
        fill-opacity="1" fill-rule="nonzero" />
    <path fill="#f57c6e"
        d="M 39.261719 19.089844 C 39.242188 19.359375 39.71875 19.613281 40.324219 19.65625 C 40.933594 19.695312 41.4375 19.515625 41.457031 19.246094 C 41.476562 18.976562 41 18.722656 40.394531 18.679688 C 39.789062 18.636719 39.28125 18.820312 39.261719 19.089844 "
        fill-opacity="1" fill-rule="nonzero" />
    <path fill="#f57c6e"
        d="M 38.039062 19.984375 C 38.394531 19.984375 38.746094 19.902344 38.9375 19.695312 C 39.035156 19.582031 39.175781 19.34375 38.976562 18.972656 C 37.683594 16.597656 38.148438 16.269531 38.492188 16.03125 C 38.574219 15.972656 38.648438 15.917969 38.710938 15.855469 C 38.792969 15.769531 38.792969 15.632812 38.707031 15.550781 C 38.621094 15.46875 38.484375 15.46875 38.402344 15.554688 C 38.359375 15.601562 38.304688 15.636719 38.246094 15.679688 C 37.652344 16.09375 37.234375 16.671875 38.597656 19.179688 C 38.679688 19.335938 38.636719 19.382812 38.617188 19.40625 C 38.453125 19.585938 37.796875 19.609375 37.40625 19.441406 C 37.296875 19.394531 37.167969 19.445312 37.121094 19.558594 C 37.078125 19.667969 37.128906 19.792969 37.238281 19.839844 C 37.445312 19.929688 37.746094 19.984375 38.039062 19.984375 "
        fill-opacity="1" fill-rule="nonzero" />
    <path fill="#17272e"
        d="M 36.488281 15.699219 C 36.558594 15.699219 36.632812 15.667969 36.6875 15.613281 C 36.796875 15.5 36.792969 15.324219 36.679688 15.214844 C 35.988281 14.550781 34.8125 14.625 34.144531 15.105469 C 34.019531 15.195312 33.992188 15.371094 34.082031 15.496094 C 34.171875 15.621094 34.347656 15.652344 34.472656 15.558594 C 34.945312 15.21875 35.824219 15.167969 36.292969 15.621094 C 36.347656 15.671875 36.417969 15.699219 36.488281 15.699219 "
        fill-opacity="1" fill-rule="nonzero" />
    <path fill="#17272e"
        d="M 41.191406 15.921875 C 41.265625 15.921875 41.339844 15.890625 41.394531 15.835938 C 41.5 15.722656 41.496094 15.546875 41.386719 15.4375 C 40.695312 14.773438 39.515625 14.847656 38.851562 15.332031 C 38.726562 15.421875 38.699219 15.597656 38.789062 15.722656 C 38.878906 15.847656 39.054688 15.875 39.179688 15.785156 C 39.652344 15.441406 40.53125 15.394531 41 15.84375 C 41.054688 15.894531 41.121094 15.921875 41.191406 15.921875 "
        fill-opacity="1" fill-rule="nonzero" />
    <path fill="#f57c6e"
        d="M 37.75 21.914062 L 37.769531 21.914062 C 38.070312 21.90625 38.5 21.792969 38.867188 21.269531 C 38.933594 21.171875 38.910156 21.039062 38.8125 20.96875 C 38.714844 20.898438 38.582031 20.925781 38.515625 21.023438 C 38.304688 21.320312 38.050781 21.476562 37.765625 21.480469 C 37.355469 21.480469 36.875 21.1875 36.527344 20.71875 C 36.457031 20.625 36.320312 20.601562 36.226562 20.675781 C 36.132812 20.746094 36.109375 20.882812 36.183594 20.976562 C 36.519531 21.429688 37.105469 21.914062 37.75 21.914062 "
        fill-opacity="1" fill-rule="nonzero" />
    <path fill="#1d1e32"
        d="M 35.332031 16.15625 C 35.550781 16.167969 35.710938 16.414062 35.695312 16.707031 C 35.679688 17 35.488281 17.226562 35.269531 17.214844 C 35.050781 17.203125 34.886719 16.957031 34.902344 16.664062 C 34.917969 16.371094 35.109375 16.144531 35.332031 16.15625 "
        fill-opacity="1" fill-rule="nonzero" />
    <path fill="#1d1e32"
        d="M 40.128906 16.382812 C 40.347656 16.394531 40.511719 16.644531 40.492188 16.933594 C 40.476562 17.226562 40.285156 17.453125 40.066406 17.441406 C 39.847656 17.429688 39.683594 17.183594 39.703125 16.890625 C 39.71875 16.601562 39.910156 16.375 40.128906 16.382812 "
        fill-opacity="1" fill-rule="nonzero" />
    <g clip-path="url(#3b9d31b09d)">
        <path fill="#471e1f"
            d="M 37.523438 6.019531 C 37.113281 5.929688 32.582031 5.363281 32.101562 7.699219 C 32.101562 7.699219 31.101562 7.632812 30.441406 8.578125 C 29.746094 9.566406 29.472656 9.328125 28.800781 10.292969 C 28.070312 11.34375 28.167969 11.726562 28.34375 13.179688 C 28.472656 14.238281 28.710938 15.207031 28.933594 16.238281 C 29.152344 15.8125 29.769531 15.289062 30.277344 15.992188 C 30.523438 16.339844 30.40625 18.074219 31.207031 17.539062 C 31.15625 15.734375 31.070312 15.074219 31.117188 13.765625 C 31.113281 12.214844 33.035156 11.539062 33.035156 11.539062 C 33.25 11.460938 34.351562 12.058594 34.632812 12.128906 C 36.296875 12.558594 38.195312 12.558594 39.730469 11.710938 C 40.355469 11.367188 40.757812 11.503906 41.21875 12.070312 C 41.800781 12.789062 42.035156 14.152344 42.234375 15.773438 L 43.074219 14.207031 C 43.566406 13.117188 43.355469 11.667969 43.40625 11.023438 C 43.40625 11.023438 44.820312 7.855469 42.78125 5.871094 C 42.78125 5.871094 42.566406 7.488281 41.761719 7.648438 C 41.761719 7.648438 43.039062 5.496094 41.191406 3.9375 C 41.191406 3.9375 41.226562 6.808594 37.523438 6.019531 "
            fill-opacity="1" fill-rule="nonzero" />
    </g>
    <g clip-path="url(#3bc24b7366)">
        <g clip-path="url(#ddec07dd79)">
            <path fill="#ffffff"
                d="M 42.152344 18.574219 L 43.292969 18.574219 L 43.292969 15.191406 L 42.152344 15.191406 L 42.152344 18.574219 "
                fill-opacity="1" fill-rule="nonzero" />
        </g>
    </g>
    <path fill="#fabcad"
        d="M 40.402344 14.945312 C 40.292969 14.945312 40.191406 14.949219 40.089844 14.953125 C 40.558594 14.957031 41.035156 15.101562 41.386719 15.4375 C 41.496094 15.546875 41.5 15.722656 41.394531 15.835938 C 41.339844 15.890625 41.265625 15.921875 41.191406 15.921875 C 41.121094 15.921875 41.054688 15.894531 41 15.84375 C 40.761719 15.617188 40.421875 15.515625 40.082031 15.515625 C 39.746094 15.515625 39.414062 15.613281 39.179688 15.785156 C 39.128906 15.820312 39.070312 15.835938 39.015625 15.835938 C 38.929688 15.835938 38.84375 15.796875 38.789062 15.722656 C 38.78125 15.710938 38.777344 15.703125 38.769531 15.695312 C 38.773438 15.753906 38.753906 15.8125 38.710938 15.855469 C 38.648438 15.917969 38.574219 15.972656 38.492188 16.03125 C 38.183594 16.25 37.769531 16.535156 38.65625 18.355469 C 38.902344 18.546875 39.222656 18.6875 39.574219 18.78125 C 39.746094 18.714844 39.96875 18.675781 40.21875 18.675781 C 40.277344 18.675781 40.335938 18.675781 40.394531 18.679688 C 40.71875 18.703125 41.007812 18.789062 41.203125 18.902344 C 41.390625 18.882812 41.566406 18.851562 41.730469 18.808594 C 41.914062 18.761719 42.078125 18.683594 42.226562 18.574219 C 42.335938 17.457031 42.308594 16.304688 42.152344 15.191406 C 41.488281 15.011719 40.90625 14.945312 40.402344 14.945312 M 40.085938 17.441406 C 40.078125 17.441406 40.074219 17.441406 40.066406 17.441406 C 39.847656 17.429688 39.683594 17.183594 39.703125 16.890625 C 39.71875 16.605469 39.898438 16.382812 40.113281 16.382812 C 40.117188 16.382812 40.121094 16.382812 40.128906 16.382812 C 40.347656 16.394531 40.511719 16.644531 40.492188 16.933594 C 40.476562 17.21875 40.296875 17.441406 40.085938 17.441406 M 39.605469 15.003906 C 38.636719 15.15625 38.136719 15.535156 38.136719 15.535156 C 38.128906 15.613281 38.117188 15.695312 38.109375 15.777344 C 38.152344 15.742188 38.199219 15.710938 38.246094 15.679688 C 38.304688 15.636719 38.359375 15.601562 38.402344 15.554688 C 38.445312 15.511719 38.5 15.492188 38.558594 15.492188 C 38.609375 15.492188 38.664062 15.511719 38.707031 15.550781 C 38.71875 15.5625 38.726562 15.574219 38.738281 15.589844 C 38.726562 15.492188 38.765625 15.390625 38.851562 15.332031 C 39.0625 15.175781 39.324219 15.066406 39.605469 15.003906 "
        fill-opacity="1" fill-rule="nonzero" />
    <path fill="#f8a292"
        d="M 40.21875 18.675781 C 39.96875 18.675781 39.746094 18.714844 39.574219 18.78125 C 39.941406 18.878906 40.34375 18.925781 40.730469 18.925781 C 40.890625 18.925781 41.050781 18.917969 41.203125 18.902344 C 41.007812 18.789062 40.71875 18.703125 40.394531 18.679688 C 40.335938 18.675781 40.277344 18.675781 40.21875 18.675781 "
        fill-opacity="1" fill-rule="nonzero" />
    <path fill="#f8a292"
        d="M 38.558594 15.492188 C 38.5 15.492188 38.445312 15.511719 38.402344 15.554688 C 38.359375 15.601562 38.304688 15.636719 38.246094 15.679688 C 38.199219 15.710938 38.152344 15.742188 38.109375 15.777344 C 38.015625 16.660156 37.957031 17.816406 38.65625 18.355469 C 37.769531 16.535156 38.183594 16.25 38.492188 16.03125 C 38.574219 15.972656 38.648438 15.917969 38.710938 15.855469 C 38.753906 15.8125 38.773438 15.753906 38.769531 15.695312 C 38.753906 15.660156 38.742188 15.625 38.738281 15.589844 C 38.726562 15.574219 38.71875 15.5625 38.707031 15.550781 C 38.664062 15.511719 38.609375 15.492188 38.558594 15.492188 "
        fill-opacity="1" fill-rule="nonzero" />
    <path fill="#424d55"
        d="M 40.089844 14.953125 C 39.917969 14.964844 39.753906 14.980469 39.605469 15.003906 C 39.324219 15.066406 39.0625 15.175781 38.851562 15.332031 C 38.765625 15.390625 38.726562 15.492188 38.738281 15.589844 C 38.742188 15.625 38.753906 15.660156 38.769531 15.695312 C 38.777344 15.703125 38.78125 15.710938 38.789062 15.722656 C 38.84375 15.796875 38.929688 15.835938 39.015625 15.835938 C 39.070312 15.835938 39.128906 15.820312 39.179688 15.785156 C 39.414062 15.613281 39.746094 15.515625 40.082031 15.515625 C 40.421875 15.515625 40.761719 15.617188 41 15.84375 C 41.054688 15.894531 41.121094 15.921875 41.191406 15.921875 C 41.265625 15.921875 41.339844 15.890625 41.394531 15.835938 C 41.5 15.722656 41.496094 15.546875 41.386719 15.4375 C 41.035156 15.101562 40.558594 14.957031 40.089844 14.953125 "
        fill-opacity="1" fill-rule="nonzero" />
    <path fill="#494a68"
        d="M 40.113281 16.382812 C 39.898438 16.382812 39.71875 16.605469 39.703125 16.890625 C 39.683594 17.183594 39.847656 17.429688 40.066406 17.441406 C 40.074219 17.441406 40.078125 17.441406 40.085938 17.441406 C 40.296875 17.441406 40.476562 17.21875 40.492188 16.933594 C 40.511719 16.644531 40.347656 16.394531 40.128906 16.382812 C 40.121094 16.382812 40.117188 16.382812 40.113281 16.382812 "
        fill-opacity="1" fill-rule="nonzero" />
    <path fill="#7c4b4e"
        d="M 42.160156 15.195312 C 42.183594 15.382812 42.210938 15.578125 42.234375 15.773438 L 42.492188 15.292969 C 42.378906 15.257812 42.269531 15.222656 42.160156 15.195312 "
        fill-opacity="1" fill-rule="nonzero" />
    <path fill="#fabcad"
        d="M 34.09375 14.644531 C 33.578125 14.644531 32.988281 14.710938 32.324219 14.871094 C 32.324219 14.871094 31.714844 15.121094 31.722656 15.777344 C 31.730469 16.894531 32.058594 18.0625 32.972656 18.394531 C 33.265625 18.5 33.605469 18.570312 33.964844 18.605469 C 33.910156 18.542969 33.882812 18.472656 33.886719 18.40625 C 33.90625 18.160156 34.320312 17.988281 34.847656 17.988281 C 34.902344 17.988281 34.960938 17.992188 35.019531 17.996094 C 35.425781 18.023438 35.773438 18.144531 35.953125 18.304688 C 35.996094 18.28125 36.039062 18.257812 36.078125 18.230469 C 36.894531 17.714844 36.875 16.382812 36.859375 15.476562 C 36.859375 15.476562 36.828125 15.449219 36.765625 15.402344 C 36.769531 15.476562 36.746094 15.554688 36.6875 15.613281 C 36.632812 15.667969 36.558594 15.699219 36.488281 15.699219 C 36.417969 15.699219 36.347656 15.671875 36.292969 15.621094 C 36.058594 15.394531 35.71875 15.292969 35.378906 15.292969 C 35.042969 15.292969 34.707031 15.390625 34.472656 15.558594 C 34.421875 15.597656 34.367188 15.613281 34.308594 15.613281 C 34.222656 15.613281 34.136719 15.574219 34.082031 15.496094 C 33.992188 15.371094 34.019531 15.195312 34.144531 15.105469 C 34.417969 14.910156 34.777344 14.78125 35.152344 14.742188 C 34.84375 14.683594 34.492188 14.644531 34.09375 14.644531 M 35.285156 17.214844 C 35.28125 17.214844 35.277344 17.214844 35.269531 17.214844 C 35.050781 17.203125 34.886719 16.957031 34.902344 16.664062 C 34.917969 16.378906 35.101562 16.15625 35.3125 16.15625 C 35.320312 16.15625 35.324219 16.15625 35.332031 16.15625 C 35.550781 16.167969 35.710938 16.414062 35.695312 16.707031 C 35.679688 16.992188 35.496094 17.214844 35.285156 17.214844 "
        fill-opacity="1" fill-rule="nonzero" />
    <path fill="#f8a292"
        d="M 34.847656 17.988281 C 34.320312 17.988281 33.90625 18.160156 33.886719 18.40625 C 33.882812 18.472656 33.910156 18.542969 33.964844 18.605469 C 34.113281 18.617188 34.265625 18.625 34.414062 18.625 C 34.972656 18.625 35.53125 18.527344 35.953125 18.304688 C 35.773438 18.144531 35.425781 18.023438 35.019531 17.996094 C 34.960938 17.992188 34.902344 17.988281 34.847656 17.988281 "
        fill-opacity="1" fill-rule="nonzero" />
    <path fill="#424d55"
        d="M 35.152344 14.742188 C 34.777344 14.78125 34.417969 14.910156 34.144531 15.105469 C 34.019531 15.195312 33.992188 15.371094 34.082031 15.496094 C 34.136719 15.574219 34.222656 15.613281 34.308594 15.613281 C 34.367188 15.613281 34.421875 15.597656 34.472656 15.558594 C 34.707031 15.390625 35.042969 15.292969 35.378906 15.292969 C 35.71875 15.292969 36.058594 15.394531 36.292969 15.621094 C 36.347656 15.671875 36.417969 15.699219 36.488281 15.699219 C 36.558594 15.699219 36.632812 15.667969 36.6875 15.613281 C 36.746094 15.554688 36.769531 15.476562 36.765625 15.402344 C 36.5625 15.25 36.03125 14.910156 35.152344 14.742188 "
        fill-opacity="1" fill-rule="nonzero" />
    <path fill="#494a68"
        d="M 35.3125 16.15625 C 35.101562 16.15625 34.917969 16.378906 34.902344 16.664062 C 34.886719 16.957031 35.050781 17.203125 35.269531 17.214844 C 35.277344 17.214844 35.28125 17.214844 35.285156 17.214844 C 35.496094 17.214844 35.679688 16.992188 35.695312 16.707031 C 35.710938 16.414062 35.550781 16.167969 35.332031 16.15625 C 35.324219 16.15625 35.320312 16.15625 35.3125 16.15625 "
        fill-opacity="1" fill-rule="nonzero" />
    <path fill="#1d1e32"
        d="M 38.238281 15.597656 C 38.140625 16.457031 38.011719 17.71875 38.71875 18.269531 C 39.164062 18.613281 39.914062 18.820312 40.730469 18.820312 C 41.082031 18.820312 41.417969 18.78125 41.703125 18.707031 C 42.78125 18.429688 43.050781 16.941406 43.117188 16.316406 C 43.175781 15.742188 42.679688 15.472656 42.671875 15.464844 C 41.882812 15.191406 41.117188 15.054688 40.402344 15.054688 C 39.144531 15.054688 38.40625 15.488281 38.238281 15.597656 Z M 38.589844 18.441406 C 37.769531 17.804688 37.925781 16.433594 38.03125 15.523438 C 38.035156 15.496094 38.046875 15.46875 38.070312 15.449219 C 38.105469 15.425781 38.894531 14.839844 40.402344 14.839844 C 41.140625 14.839844 41.929688 14.980469 42.757812 15.269531 C 42.785156 15.28125 43.40625 15.617188 43.332031 16.335938 C 43.261719 17.007812 42.96875 18.601562 41.757812 18.914062 C 41.453125 18.992188 41.097656 19.035156 40.730469 19.035156 C 39.871094 19.035156 39.070312 18.8125 38.589844 18.441406 "
        fill-opacity="1" fill-rule="nonzero" />
    <path fill="#1d1e32"
        d="M 34.09375 14.753906 C 33.542969 14.753906 32.957031 14.828125 32.363281 14.96875 C 32.359375 14.972656 31.824219 15.199219 31.828125 15.777344 C 31.835938 16.40625 31.960938 17.914062 33.011719 18.292969 C 33.414062 18.4375 33.914062 18.519531 34.414062 18.519531 C 35.066406 18.519531 35.636719 18.382812 36.019531 18.140625 C 36.777344 17.660156 36.769531 16.394531 36.753906 15.527344 C 36.574219 15.382812 35.699219 14.753906 34.09375 14.753906 Z M 32.9375 18.496094 C 31.761719 18.070312 31.621094 16.453125 31.613281 15.78125 C 31.605469 15.054688 32.257812 14.78125 32.300781 14.765625 C 32.921875 14.617188 33.527344 14.539062 34.09375 14.539062 C 35.980469 14.539062 36.894531 15.363281 36.933594 15.398438 C 36.953125 15.417969 36.964844 15.445312 36.96875 15.472656 C 36.984375 16.386719 37.007812 17.769531 36.136719 18.324219 C 35.71875 18.585938 35.105469 18.734375 34.414062 18.734375 C 33.886719 18.734375 33.363281 18.648438 32.9375 18.496094 "
        fill-opacity="1" fill-rule="nonzero" />
    <path fill="#1d1e32"
        d="M 36.816406 16.25 C 36.878906 15.746094 36.851562 15.355469 36.851562 15.355469 C 37.546875 15.972656 38.105469 15.449219 38.105469 15.449219 C 38.015625 15.980469 38.101562 16.3125 38.101562 16.3125 C 38.101562 16.3125 37.601562 15.894531 36.816406 16.25 "
        fill-opacity="1" fill-rule="nonzero" />
    <path fill="#1d1e32"
        d="M 31.875 15.25 L 30.078125 15.78125 C 30.078125 15.78125 30.226562 15.867188 30.378906 16.25 L 31.734375 16.117188 C 31.734375 16.117188 31.625 15.515625 31.875 15.25 "
        fill-opacity="1" fill-rule="nonzero" />
    <path fill="#c4dde6"
        d="M 43.921875 59.523438 C 44.023438 59.523438 44.117188 59.445312 44.132812 59.339844 C 44.308594 58.253906 45.914062 45.492188 45.8125 44.125 C 45.742188 43.167969 45.03125 42.726562 44.347656 42.296875 C 44.058594 42.117188 43.757812 41.929688 43.496094 41.703125 C 44.363281 41.542969 45.378906 41.28125 45.59375 40.503906 C 45.703125 40.117188 45.203125 37.738281 44.242188 33.484375 C 44.019531 32.496094 43.84375 31.71875 43.8125 31.523438 C 43.792969 31.40625 43.683594 31.328125 43.566406 31.347656 C 43.449219 31.367188 43.371094 31.476562 43.390625 31.59375 C 43.421875 31.796875 43.589844 32.546875 43.824219 33.578125 C 44.292969 35.652344 45.261719 39.960938 45.179688 40.390625 C 45.011719 41.003906 43.90625 41.195312 43.101562 41.335938 L 43.015625 41.351562 C 42.941406 41.363281 42.878906 41.417969 42.851562 41.492188 C 42.824219 41.5625 42.839844 41.644531 42.890625 41.703125 C 43.25 42.121094 43.691406 42.394531 44.121094 42.664062 C 44.769531 43.070312 45.328125 43.417969 45.382812 44.15625 C 45.472656 45.386719 43.945312 57.820312 43.710938 59.273438 C 43.691406 59.390625 43.769531 59.5 43.886719 59.519531 L 43.921875 59.523438 "
        fill-opacity="1" fill-rule="nonzero" />
    <path fill="#c4dde6"
        d="M 33.578125 60.03125 C 33.601562 60.03125 33.625 60.027344 33.644531 60.019531 C 33.757812 59.980469 33.820312 59.859375 33.78125 59.746094 C 33.3125 58.351562 29.777344 46.335938 29.664062 45.109375 C 29.597656 44.375 30.09375 43.9375 30.667969 43.429688 C 31.046875 43.09375 31.4375 42.75 31.722656 42.28125 C 31.765625 42.214844 31.765625 42.128906 31.726562 42.0625 C 31.691406 41.996094 31.617188 41.953125 31.542969 41.953125 L 31.457031 41.953125 C 30.640625 41.945312 29.519531 41.9375 29.25 41.355469 C 29.097656 40.949219 29.355469 36.539062 29.476562 34.417969 C 29.539062 33.359375 29.585938 32.597656 29.582031 32.386719 C 29.582031 32.269531 29.484375 32.175781 29.367188 32.175781 C 29.25 32.175781 29.152344 32.273438 29.152344 32.390625 C 29.15625 32.585938 29.109375 33.382812 29.050781 34.394531 C 28.796875 38.746094 28.691406 41.175781 28.859375 41.539062 C 29.203125 42.273438 30.242188 42.363281 31.125 42.378906 C 30.90625 42.648438 30.640625 42.878906 30.382812 43.105469 C 29.777344 43.640625 29.152344 44.195312 29.238281 45.148438 C 29.359375 46.511719 33.023438 58.839844 33.375 59.882812 C 33.402344 59.972656 33.488281 60.03125 33.578125 60.03125 "
        fill-opacity="1" fill-rule="nonzero" />
    <path fill="#1d1e32"
        d="M 50.640625 60.433594 C 50.570312 59.5 50.503906 58.554688 50.433594 57.617188 C 50 51.738281 49.550781 45.65625 49.394531 42.441406 C 49.386719 42.320312 49.480469 42.222656 49.597656 42.214844 C 49.714844 42.207031 49.816406 42.300781 49.820312 42.421875 C 49.980469 45.632812 50.425781 51.710938 50.859375 57.585938 C 50.929688 58.535156 51 59.488281 51.070312 60.433594 L 50.640625 60.433594 "
        fill-opacity="1" fill-rule="nonzero" />
    <path fill="#1d1e32"
        d="M 44.960938 50.691406 C 44.980469 50.875 45.179688 51.285156 45.363281 51.265625 L 46.371094 50.863281 C 46.554688 50.839844 46.683594 50.675781 46.664062 50.488281 C 46.640625 50.304688 46.472656 50.171875 46.289062 50.195312 L 45.230469 50.121094 C 45.046875 50.140625 44.9375 50.507812 44.960938 50.691406 "
        fill-opacity="1" fill-rule="nonzero" />
    <path fill="#1d1e32"
        d="M 43.621094 50.847656 C 43.644531 51.035156 43.542969 51.480469 43.359375 51.503906 L 42.289062 51.347656 C 42.105469 51.367188 41.9375 51.238281 41.917969 51.050781 C 41.894531 50.867188 42.027344 50.699219 42.210938 50.679688 L 43.222656 50.359375 C 43.410156 50.335938 43.597656 50.664062 43.621094 50.847656 "
        fill-opacity="1" fill-rule="nonzero" />
    <path fill="#1d1e32"
        d="M 41.933594 51.1875 C 42 51.1875 42.070312 51.183594 42.144531 51.175781 L 42.117188 50.960938 C 40.789062 51.113281 40.28125 49.550781 40.261719 49.484375 C 39.40625 45.957031 41.941406 40.050781 41.96875 39.992188 C 42.285156 39.253906 42.828125 39.316406 42.851562 39.316406 L 42.878906 39.320312 L 42.90625 39.3125 C 42.925781 39.304688 43.441406 39.117188 43.917969 39.757812 C 43.957031 39.8125 47.800781 44.964844 47.785156 48.601562 C 47.78125 48.664062 47.65625 50.304688 46.324219 50.460938 L 46.347656 50.675781 C 47.859375 50.496094 47.996094 48.628906 48 48.609375 C 48.015625 44.890625 44.25 39.84375 44.089844 39.628906 C 43.570312 38.929688 42.984375 39.0625 42.851562 39.101562 C 42.714844 39.09375 42.117188 39.101562 41.769531 39.90625 C 41.664062 40.148438 39.179688 45.9375 40.054688 49.542969 C 40.0625 49.566406 40.578125 51.1875 41.933594 51.1875 "
        fill-opacity="1" fill-rule="nonzero" />
    <path fill="#1d1e32"
        d="M 43.117188 39.28125 L 43.125 39.28125 C 43.183594 39.277344 43.230469 39.226562 43.226562 39.167969 C 43.183594 38.367188 42.710938 31.277344 38.621094 28.925781 C 38.570312 28.894531 38.503906 28.914062 38.472656 28.964844 C 38.445312 29.015625 38.460938 29.082031 38.511719 29.113281 C 42.507812 31.410156 42.972656 38.390625 43.011719 39.179688 C 43.015625 39.238281 43.0625 39.28125 43.117188 39.28125 "
        fill-opacity="1" fill-rule="nonzero" />
    <path fill="#1d1e32"
        d="M 30.417969 42.511719 L 30.453125 42.503906 C 30.511719 42.484375 30.539062 42.421875 30.519531 42.367188 C 29.242188 38.886719 28.574219 36.382812 28.375 35.199219 C 28.070312 33.410156 27.9375 30.257812 30.449219 29.28125 C 30.503906 29.257812 30.53125 29.195312 30.511719 29.140625 C 30.488281 29.085938 30.425781 29.058594 30.371094 29.078125 C 27.714844 30.113281 27.847656 33.378906 28.160156 35.234375 C 28.363281 36.429688 29.035156 38.949219 30.316406 42.441406 C 30.332031 42.484375 30.375 42.511719 30.417969 42.511719 "
        fill-opacity="1" fill-rule="nonzero" />
    <path fill="#84abbb"
        d="M 32.148438 44.09375 C 32.921875 43.710938 33.242188 42.765625 32.859375 41.988281 C 32.472656 41.210938 31.535156 40.890625 30.757812 41.273438 L 30.039062 41.632812 L 31.425781 44.449219 L 32.148438 44.09375 "
        fill-opacity="1" fill-rule="nonzero" />
    <path fill="#99c7da"
        d="M 29.382812 43.707031 C 29.769531 44.488281 30.707031 44.808594 31.484375 44.421875 C 32.261719 44.039062 32.578125 43.09375 32.195312 42.316406 C 31.8125 41.539062 30.871094 41.21875 30.097656 41.601562 C 29.320312 41.988281 29 42.929688 29.382812 43.707031 "
        fill-opacity="1" fill-rule="nonzero" />
    <path fill="#6398af"
        d="M 30.085938 43.359375 C 30.277344 43.75 30.75 43.910156 31.136719 43.71875 C 31.527344 43.523438 31.683594 43.054688 31.492188 42.664062 C 31.300781 42.273438 30.832031 42.117188 30.441406 42.308594 C 30.054688 42.5 29.894531 42.972656 30.085938 43.359375 "
        fill-opacity="1" fill-rule="nonzero" />
    <path fill="#1d1e32"
        d="M 30.6875 44.6875 L 30.699219 44.6875 C 31.675781 44.574219 32.121094 44.148438 32.320312 43.808594 C 32.570312 43.386719 32.597656 42.835938 32.398438 42.332031 C 32.246094 41.957031 31.90625 41.644531 31.460938 41.472656 C 30.976562 41.289062 30.464844 41.300781 30.046875 41.507812 C 29.996094 41.53125 29.972656 41.597656 30 41.648438 C 30.027344 41.703125 30.089844 41.726562 30.144531 41.699219 C 30.5 41.523438 30.964844 41.511719 31.382812 41.675781 C 31.773438 41.824219 32.070312 42.09375 32.199219 42.414062 C 32.375 42.855469 32.351562 43.335938 32.136719 43.699219 C 31.882812 44.125 31.378906 44.390625 30.675781 44.472656 C 30.617188 44.480469 30.574219 44.535156 30.582031 44.59375 C 30.589844 44.648438 30.632812 44.6875 30.6875 44.6875 "
        fill-opacity="1" fill-rule="nonzero" />
    <path fill="#1d1e32"
        d="M 31.570312 44.445312 L 31.601562 44.441406 C 32.359375 44.210938 32.832031 43.835938 33.011719 43.328125 C 33.230469 42.710938 33.046875 41.960938 32.558594 41.464844 C 32.03125 40.929688 31.40625 40.902344 30.457031 41.371094 C 30.402344 41.394531 30.382812 41.460938 30.410156 41.515625 C 30.433594 41.566406 30.5 41.589844 30.550781 41.5625 C 31.414062 41.136719 31.949219 41.152344 32.40625 41.617188 C 32.839844 42.054688 33 42.714844 32.808594 43.253906 C 32.75 43.417969 32.574219 43.917969 31.539062 44.234375 C 31.480469 44.253906 31.449219 44.3125 31.46875 44.367188 C 31.480469 44.414062 31.523438 44.445312 31.570312 44.445312 "
        fill-opacity="1" fill-rule="nonzero" />
    <path fill="#1d1e32"
        d="M 29.59375 43.917969 C 29.625 43.917969 29.65625 43.90625 29.679688 43.878906 C 29.714844 43.832031 29.707031 43.765625 29.660156 43.726562 C 29.476562 43.582031 29.359375 43.230469 29.363281 42.855469 C 29.371094 42.511719 29.476562 42.230469 29.652344 42.101562 C 29.699219 42.066406 29.707031 42 29.671875 41.949219 C 29.636719 41.902344 29.570312 41.894531 29.523438 41.929688 C 29.292969 42.101562 29.15625 42.4375 29.148438 42.851562 C 29.144531 43.296875 29.292969 43.707031 29.527344 43.894531 C 29.546875 43.914062 29.570312 43.917969 29.59375 43.917969 "
        fill-opacity="1" fill-rule="nonzero" />
    <path fill="#ffffff"
        d="M 40.84375 60.433594 L 40.84375 58.195312 L 49.304688 54.691406 C 49.304688 54.691406 49.535156 40.109375 45.765625 31.332031 C 45.765625 31.332031 50.640625 32.390625 54.28125 40.484375 C 54.28125 40.484375 60.515625 51.363281 58.976562 60.433594 L 40.84375 60.433594 "
        fill-opacity="1" fill-rule="nonzero" />
    <path fill="#f8a18f"
        d="M 47.050781 56.875 C 47.050781 56.875 45.941406 53.726562 49.378906 50.925781 L 49.421875 52.441406 C 49.421875 52.441406 51.675781 58.363281 48.507812 60.144531 L 47.050781 56.875 "
        fill-opacity="1" fill-rule="nonzero" />
    <path fill="#e0f5fd"
        d="M 24.949219 60.433594 C 21.855469 55.675781 17.9375 48.628906 16.796875 42.046875 C 16.796875 42.046875 15.910156 34.097656 22.480469 32.210938 C 22.480469 32.210938 31.441406 39.933594 34.066406 56.804688 L 47.050781 56.875 C 47.050781 56.875 48.503906 58.414062 49.394531 60.433594 L 24.949219 60.433594 "
        fill-opacity="1" fill-rule="nonzero" />
    <path fill="#f8a18f"
        d="M 28.492188 58.992188 L 29.15625 58.1875 L 31.789062 54.984375 C 32.664062 54.324219 34.859375 54.984375 34.859375 54.984375 L 39.304688 56.832031 L 34.304688 57.1875 C 34.304688 57.1875 33.21875 60.558594 28.492188 58.992188 "
        fill-opacity="1" fill-rule="nonzero" />
</svg>