<svg xmlns="http://www.w3.org/2000/svg" xmlns:xlink="http://www.w3.org/1999/xlink" width="100" zoomAndPan="magnify" viewBox="0 0 75 74.999997" height="100" preserveAspectRatio="xMidYMid meet" version="1.0"><defs><clipPath id="c4bbd57bb3"><path d="M 50.867188 12.601562 L 67.367188 12.601562 L 67.367188 28.351562 L 50.867188 28.351562 Z M 50.867188 12.601562 " clip-rule="nonzero"/></clipPath><clipPath id="3e3e181a4c"><path d="M 24.132812 1.351562 L 51.132812 1.351562 L 51.132812 26.851562 L 24.132812 26.851562 Z M 24.132812 1.351562 " clip-rule="nonzero"/></clipPath><clipPath id="7f06f53b53"><path d="M 7.5 12.601562 L 24 12.601562 L 24 28.351562 L 7.5 28.351562 Z M 7.5 12.601562 " clip-rule="nonzero"/></clipPath><clipPath id="c498ed294e"><path d="M 49 11 L 69.234375 11 L 69.234375 31 L 49 31 Z M 49 11 " clip-rule="nonzero"/></clipPath><clipPath id="1eabd8fd69"><path d="M 5.484375 11 L 26 11 L 26 31 L 5.484375 31 Z M 5.484375 11 " clip-rule="nonzero"/></clipPath><clipPath id="07400b21c7"><path d="M 9.75 35.25 L 65.699219 35.25 L 65.699219 69.601562 L 9.75 69.601562 Z M 9.75 35.25 " clip-rule="nonzero"/></clipPath><clipPath id="21a5acc387"><path d="M 10 46 L 40 46 L 40 75 L 10 75 Z M 10 46 " clip-rule="nonzero"/></clipPath><clipPath id="4914f8d939"><path d="M 14.832031 82.242188 L 5.484375 54.535156 L 29.730469 46.355469 L 39.074219 74.066406 Z M 14.832031 82.242188 " clip-rule="nonzero"/></clipPath><clipPath id="904358a608"><path d="M 10.15625 68.390625 L 29.730469 46.355469 L 39.074219 74.066406 Z M 10.15625 68.390625 " clip-rule="nonzero"/></clipPath><clipPath id="a46e9b11bc"><path d="M 34 46 L 64 46 L 64 74 L 34 74 Z M 34 46 " clip-rule="nonzero"/></clipPath><clipPath id="56ce787de7"><path d="M 31.117188 48.351562 L 60.027344 43.953125 L 63.875 69.25 L 34.964844 73.648438 Z M 31.117188 48.351562 " clip-rule="nonzero"/></clipPath><clipPath id="571dab0665"><path d="M 45.570312 46.152344 L 63.875 69.25 L 34.964844 73.648438 Z M 45.570312 46.152344 " clip-rule="nonzero"/></clipPath><clipPath id="89ca1050a6"><path d="M 7 33 L 68 33 L 68 74.878906 L 7 74.878906 Z M 7 33 " clip-rule="nonzero"/></clipPath></defs><g clip-path="url(#c4bbd57bb3)"><path fill="#f4c01e" d="M 59.117188 12.601562 L 61.242188 17.394531 C 61.324219 17.578125 61.453125 17.738281 61.617188 17.855469 C 61.777344 17.976562 61.96875 18.046875 62.167969 18.070312 L 67.367188 18.617188 L 63.480469 22.125 C 63.332031 22.261719 63.21875 22.433594 63.160156 22.625 C 63.097656 22.816406 63.085938 23.019531 63.128906 23.21875 L 64.214844 28.351562 L 59.691406 25.726562 C 59.515625 25.625 59.320312 25.570312 59.117188 25.570312 C 58.917969 25.570312 58.722656 25.625 58.546875 25.726562 L 54.023438 28.351562 L 55.109375 23.21875 C 55.152344 23.019531 55.140625 22.816406 55.078125 22.625 C 55.015625 22.433594 54.90625 22.261719 54.757812 22.125 L 50.871094 18.617188 L 56.070312 18.070312 C 56.269531 18.046875 56.460938 17.976562 56.621094 17.855469 C 56.785156 17.738281 56.914062 17.578125 56.996094 17.394531 Z M 59.117188 12.601562 " fill-opacity="1" fill-rule="evenodd"/></g><g clip-path="url(#3e3e181a4c)"><path fill="#f4c01e" d="M 37.632812 1.351562 L 41.109375 9.113281 C 41.242188 9.410156 41.453125 9.667969 41.71875 9.859375 C 41.984375 10.054688 42.296875 10.171875 42.621094 10.207031 L 51.128906 11.089844 L 44.769531 16.773438 C 44.527344 16.992188 44.34375 17.269531 44.242188 17.582031 C 44.140625 17.890625 44.125 18.222656 44.191406 18.542969 L 45.972656 26.851562 L 38.566406 22.601562 C 38.28125 22.4375 37.960938 22.351562 37.632812 22.351562 C 37.300781 22.351562 36.980469 22.4375 36.695312 22.601562 L 29.289062 26.851562 L 31.070312 18.542969 C 31.136719 18.222656 31.121094 17.890625 31.019531 17.582031 C 30.917969 17.269531 30.734375 16.992188 30.492188 16.773438 L 24.132812 11.089844 L 32.640625 10.207031 C 32.96875 10.171875 33.277344 10.054688 33.542969 9.859375 C 33.8125 9.667969 34.019531 9.410156 34.15625 9.113281 Z M 37.632812 1.351562 " fill-opacity="1" fill-rule="evenodd"/></g><g clip-path="url(#7f06f53b53)"><path fill="#f4c01e" d="M 15.75 12.601562 L 17.875 17.394531 C 17.957031 17.578125 18.085938 17.738281 18.246094 17.855469 C 18.410156 17.976562 18.597656 18.046875 18.800781 18.070312 L 23.996094 18.617188 L 20.113281 22.125 C 19.960938 22.261719 19.851562 22.433594 19.789062 22.625 C 19.726562 22.816406 19.714844 23.019531 19.757812 23.21875 L 20.847656 28.351562 L 16.320312 25.726562 C 16.148438 25.625 15.949219 25.570312 15.75 25.570312 C 15.550781 25.570312 15.351562 25.625 15.179688 25.726562 L 10.652344 28.351562 L 11.742188 23.21875 C 11.785156 23.019531 11.773438 22.816406 11.710938 22.625 C 11.648438 22.433594 11.539062 22.261719 11.386719 22.125 L 7.503906 18.617188 L 12.699219 18.070312 C 12.902344 18.046875 13.089844 17.976562 13.253906 17.855469 C 13.414062 17.738281 13.542969 17.578125 13.625 17.394531 Z M 15.75 12.601562 " fill-opacity="1" fill-rule="evenodd"/></g><path fill="#000000" d="M 29.96875 28.019531 C 29.765625 28.019531 29.566406 27.996094 29.371094 27.949219 C 29.171875 27.902344 28.984375 27.832031 28.804688 27.738281 C 28.621094 27.644531 28.457031 27.535156 28.300781 27.402344 C 28.148438 27.269531 28.011719 27.121094 27.890625 26.957031 C 27.773438 26.789062 27.671875 26.613281 27.59375 26.425781 C 27.519531 26.238281 27.464844 26.042969 27.429688 25.84375 C 27.398438 25.640625 27.390625 25.4375 27.40625 25.234375 C 27.421875 25.03125 27.464844 24.832031 27.527344 24.640625 L 29.769531 17.695312 L 23.886719 13.402344 C 23.4375 13.070312 23.125 12.640625 22.953125 12.109375 C 22.78125 11.578125 22.78125 11.046875 22.953125 10.515625 C 23.125 9.984375 23.4375 9.550781 23.886719 9.222656 C 24.335938 8.894531 24.839844 8.730469 25.398438 8.730469 L 32.667969 8.730469 L 34.910156 1.785156 C 35.082031 1.253906 35.394531 0.820312 35.84375 0.492188 C 36.292969 0.164062 36.796875 0 37.355469 0 C 37.910156 0 38.414062 0.164062 38.867188 0.492188 C 39.316406 0.820312 39.628906 1.253906 39.800781 1.785156 L 42.042969 8.730469 L 49.3125 8.730469 C 49.871094 8.730469 50.375 8.894531 50.824219 9.222656 C 51.273438 9.550781 51.585938 9.984375 51.757812 10.515625 C 51.929688 11.046875 51.929688 11.578125 51.757812 12.109375 C 51.585938 12.640625 51.273438 13.070312 50.824219 13.402344 L 44.941406 17.695312 L 47.183594 24.640625 C 47.355469 25.171875 47.355469 25.703125 47.183594 26.234375 C 47.011719 26.765625 46.699219 27.195312 46.25 27.523438 C 45.796875 27.851562 45.296875 28.015625 44.738281 28.015625 C 44.183594 28.015625 43.679688 27.851562 43.230469 27.523438 L 37.363281 23.234375 L 31.480469 27.527344 C 31.03125 27.855469 30.527344 28.019531 29.96875 28.019531 Z M 37.363281 20.273438 C 37.921875 20.273438 38.425781 20.441406 38.875 20.769531 L 44.183594 24.644531 L 42.15625 18.378906 C 41.984375 17.847656 41.984375 17.3125 42.15625 16.78125 C 42.328125 16.25 42.640625 15.820312 43.089844 15.492188 L 48.398438 11.617188 L 41.835938 11.617188 C 41.277344 11.617188 40.773438 11.453125 40.324219 11.125 C 39.875 10.796875 39.5625 10.367188 39.390625 9.832031 L 37.363281 3.5625 L 35.335938 9.832031 C 35.164062 10.363281 34.855469 10.792969 34.402344 11.121094 C 33.953125 11.453125 33.449219 11.617188 32.890625 11.613281 L 26.328125 11.613281 L 31.636719 15.492188 C 32.089844 15.820312 32.402344 16.25 32.574219 16.78125 C 32.746094 17.3125 32.746094 17.84375 32.570312 18.375 L 30.542969 24.644531 L 35.851562 20.769531 C 36.304688 20.4375 36.808594 20.273438 37.363281 20.273438 Z M 37.652344 2.675781 Z M 37.652344 2.675781 " fill-opacity="1" fill-rule="nonzero"/><g clip-path="url(#c498ed294e)"><path fill="#000000" d="M 54.488281 30.175781 C 54.316406 30.175781 54.148438 30.15625 53.984375 30.113281 C 53.816406 30.074219 53.660156 30.015625 53.507812 29.9375 C 53.355469 29.859375 53.214844 29.765625 53.085938 29.652344 C 52.957031 29.542969 52.839844 29.417969 52.738281 29.277344 C 52.640625 29.140625 52.558594 28.992188 52.492188 28.832031 C 52.425781 28.675781 52.378906 28.511719 52.355469 28.34375 C 52.328125 28.171875 52.320312 28.003906 52.332031 27.832031 C 52.347656 27.660156 52.378906 27.496094 52.433594 27.332031 L 53.753906 23.246094 L 50.292969 20.722656 C 49.914062 20.445312 49.652344 20.082031 49.507812 19.636719 C 49.363281 19.1875 49.363281 18.742188 49.507812 18.292969 C 49.652344 17.847656 49.914062 17.484375 50.292969 17.207031 C 50.671875 16.933594 51.097656 16.792969 51.566406 16.792969 L 55.839844 16.792969 L 57.164062 12.710938 C 57.308594 12.261719 57.570312 11.902344 57.949219 11.625 C 58.328125 11.347656 58.75 11.210938 59.21875 11.210938 C 59.6875 11.210938 60.109375 11.347656 60.488281 11.625 C 60.867188 11.902344 61.128906 12.261719 61.273438 12.710938 L 62.597656 16.796875 L 66.875 16.796875 C 67.339844 16.796875 67.765625 16.933594 68.144531 17.210938 C 68.523438 17.484375 68.785156 17.847656 68.929688 18.292969 C 69.074219 18.742188 69.074219 19.1875 68.929688 19.636719 C 68.785156 20.082031 68.527344 20.445312 68.148438 20.722656 L 64.6875 23.246094 L 66.007812 27.332031 C 66.152344 27.777344 66.152344 28.226562 66.007812 28.671875 C 65.863281 29.121094 65.601562 29.480469 65.222656 29.757812 C 64.84375 30.035156 64.421875 30.171875 63.953125 30.171875 C 63.484375 30.171875 63.0625 30.035156 62.683594 29.757812 L 59.222656 27.234375 L 55.761719 29.757812 C 55.382812 30.035156 54.957031 30.175781 54.488281 30.175781 Z M 53.75 19.675781 L 55.859375 21.21875 C 56.238281 21.492188 56.5 21.855469 56.644531 22.300781 C 56.792969 22.75 56.789062 23.199219 56.644531 23.644531 L 55.835938 26.132812 L 57.945312 24.597656 C 58.324219 24.316406 58.746094 24.179688 59.214844 24.179688 C 59.683594 24.179688 60.109375 24.316406 60.488281 24.597656 L 62.59375 26.132812 L 61.789062 23.644531 C 61.644531 23.195312 61.644531 22.75 61.789062 22.300781 C 61.9375 21.851562 62.203125 21.492188 62.582031 21.21875 L 64.691406 19.675781 L 62.082031 19.675781 C 61.613281 19.679688 61.1875 19.542969 60.808594 19.265625 C 60.429688 18.988281 60.167969 18.625 60.023438 18.175781 L 59.214844 15.6875 L 58.410156 18.175781 C 58.265625 18.625 58.003906 18.988281 57.625 19.265625 C 57.246094 19.542969 56.820312 19.679688 56.351562 19.675781 Z M 59.890625 13.597656 Z M 59.890625 13.597656 " fill-opacity="1" fill-rule="nonzero"/></g><g clip-path="url(#1eabd8fd69)"><path fill="#000000" d="M 20.238281 30.175781 C 19.769531 30.175781 19.34375 30.035156 18.964844 29.757812 L 15.503906 27.234375 L 12.046875 29.757812 C 11.667969 30.035156 11.242188 30.175781 10.773438 30.175781 C 10.304688 30.175781 9.882812 30.035156 9.503906 29.757812 C 9.125 29.484375 8.863281 29.121094 8.71875 28.671875 C 8.574219 28.226562 8.574219 27.777344 8.71875 27.332031 L 10.039062 23.246094 L 6.582031 20.722656 C 6.203125 20.445312 5.941406 20.082031 5.792969 19.636719 C 5.648438 19.1875 5.648438 18.742188 5.792969 18.292969 C 5.9375 17.847656 6.203125 17.484375 6.582031 17.207031 C 6.960938 16.933594 7.382812 16.792969 7.851562 16.792969 L 12.128906 16.792969 L 13.453125 12.710938 C 13.597656 12.261719 13.859375 11.902344 14.238281 11.625 C 14.617188 11.347656 15.039062 11.210938 15.507812 11.210938 C 15.976562 11.210938 16.402344 11.347656 16.78125 11.625 C 17.160156 11.902344 17.421875 12.261719 17.566406 12.710938 L 18.886719 16.796875 L 23.164062 16.796875 C 23.632812 16.796875 24.054688 16.933594 24.433594 17.210938 C 24.8125 17.488281 25.074219 17.847656 25.21875 18.296875 C 25.363281 18.742188 25.363281 19.191406 25.21875 19.636719 C 25.074219 20.085938 24.8125 20.449219 24.433594 20.722656 L 20.972656 23.25 L 22.296875 27.332031 C 22.347656 27.496094 22.378906 27.660156 22.394531 27.832031 C 22.40625 28.003906 22.402344 28.171875 22.375 28.34375 C 22.347656 28.511719 22.300781 28.675781 22.234375 28.832031 C 22.171875 28.992188 22.089844 29.140625 21.988281 29.277344 C 21.886719 29.417969 21.773438 29.542969 21.644531 29.652344 C 21.511719 29.765625 21.371094 29.859375 21.21875 29.9375 C 21.070312 30.015625 20.910156 30.074219 20.742188 30.113281 C 20.578125 30.15625 20.410156 30.175781 20.238281 30.175781 Z M 15.507812 24.179688 C 15.976562 24.179688 16.402344 24.316406 16.777344 24.597656 L 18.886719 26.132812 L 18.082031 23.644531 C 17.933594 23.199219 17.933594 22.75 18.078125 22.300781 C 18.222656 21.855469 18.484375 21.492188 18.867188 21.21875 L 20.976562 19.675781 L 18.371094 19.675781 C 17.902344 19.679688 17.476562 19.542969 17.097656 19.265625 C 16.71875 18.988281 16.457031 18.625 16.3125 18.175781 L 15.507812 15.6875 L 14.699219 18.175781 C 14.554688 18.625 14.292969 18.988281 13.914062 19.265625 C 13.535156 19.542969 13.113281 19.679688 12.644531 19.675781 L 10.039062 19.675781 L 12.148438 21.21875 C 12.527344 21.492188 12.792969 21.855469 12.9375 22.300781 C 13.082031 22.75 13.082031 23.195312 12.933594 23.644531 L 12.125 26.132812 L 14.234375 24.597656 C 14.613281 24.316406 15.039062 24.179688 15.507812 24.179688 Z M 15.507812 24.179688 " fill-opacity="1" fill-rule="nonzero"/></g><path fill="#000000" d="M 37.363281 75 C 37.300781 75 37.234375 74.996094 37.171875 74.988281 L 9.003906 71.191406 C 8.648438 71.144531 8.351562 70.984375 8.113281 70.710938 C 7.875 70.4375 7.757812 70.121094 7.757812 69.761719 L 7.757812 34.535156 C 7.757812 34.34375 7.792969 34.160156 7.867188 33.984375 C 7.941406 33.808594 8.042969 33.652344 8.179688 33.515625 C 8.3125 33.382812 8.46875 33.277344 8.644531 33.203125 C 8.820312 33.132812 9.003906 33.09375 9.195312 33.09375 L 65.539062 33.09375 C 65.726562 33.09375 65.910156 33.132812 66.085938 33.203125 C 66.261719 33.277344 66.417969 33.382812 66.554688 33.515625 C 66.6875 33.652344 66.792969 33.808594 66.863281 33.984375 C 66.9375 34.160156 66.972656 34.34375 66.972656 34.535156 L 66.972656 69.761719 C 66.972656 70.125 66.855469 70.441406 66.617188 70.710938 C 66.378906 70.984375 66.082031 71.144531 65.722656 71.191406 L 37.554688 74.988281 C 37.492188 74.996094 37.429688 75 37.363281 75 Z M 10.625 68.5 L 37.363281 72.105469 L 64.101562 68.5 L 64.101562 35.980469 L 10.625 35.980469 Z M 65.539062 69.761719 Z M 65.539062 69.761719 " fill-opacity="1" fill-rule="nonzero"/><path fill="#010101" d="M 20.980469 55.488281 L 14.65625 55.488281 C 13.777344 55.488281 13.089844 54.824219 13.089844 53.976562 L 13.089844 49.472656 C 13.089844 48.625 13.777344 47.957031 14.65625 47.957031 L 20.980469 47.957031 C 21.167969 47.957031 21.351562 47.996094 21.527344 48.066406 C 21.703125 48.140625 21.859375 48.246094 21.992188 48.382812 C 22.128906 48.515625 22.230469 48.671875 22.304688 48.847656 C 22.378906 49.027344 22.414062 49.210938 22.414062 49.402344 C 22.414062 49.59375 22.378906 49.777344 22.304688 49.953125 C 22.230469 50.128906 22.128906 50.285156 21.992188 50.421875 C 21.859375 50.554688 21.703125 50.660156 21.527344 50.734375 C 21.351562 50.804688 21.167969 50.84375 20.980469 50.84375 L 15.964844 50.84375 L 15.964844 52.605469 L 20.980469 52.605469 C 21.171875 52.605469 21.355469 52.640625 21.53125 52.714844 C 21.707031 52.789062 21.863281 52.890625 21.996094 53.027344 C 22.132812 53.164062 22.234375 53.316406 22.308594 53.496094 C 22.378906 53.671875 22.417969 53.855469 22.417969 54.046875 C 22.417969 54.238281 22.378906 54.421875 22.308594 54.597656 C 22.234375 54.777344 22.132812 54.929688 21.996094 55.066406 C 21.863281 55.203125 21.707031 55.304688 21.53125 55.378906 C 21.355469 55.453125 21.171875 55.488281 20.980469 55.488281 Z M 20.980469 55.488281 " fill-opacity="1" fill-rule="nonzero"/><path fill="#010101" d="M 20.945312 60.136719 L 14.640625 60.136719 C 14.4375 60.136719 14.242188 60.101562 14.054688 60.027344 C 13.867188 59.949219 13.699219 59.84375 13.554688 59.699219 C 13.410156 59.558594 13.296875 59.394531 13.214844 59.207031 C 13.136719 59.019531 13.097656 58.824219 13.09375 58.621094 L 13.09375 54.117188 C 13.09375 53.914062 13.136719 53.71875 13.214844 53.535156 C 13.296875 53.347656 13.410156 53.183594 13.554688 53.039062 C 13.699219 52.898438 13.867188 52.789062 14.054688 52.714844 C 14.242188 52.636719 14.4375 52.601562 14.640625 52.605469 L 20.945312 52.605469 C 21.136719 52.605469 21.316406 52.640625 21.492188 52.714844 C 21.667969 52.789062 21.824219 52.890625 21.960938 53.027344 C 22.09375 53.164062 22.199219 53.316406 22.269531 53.496094 C 22.34375 53.671875 22.378906 53.855469 22.378906 54.046875 C 22.378906 54.238281 22.34375 54.421875 22.269531 54.597656 C 22.199219 54.777344 22.09375 54.929688 21.960938 55.066406 C 21.824219 55.203125 21.667969 55.304688 21.492188 55.378906 C 21.316406 55.453125 21.136719 55.488281 20.945312 55.488281 L 15.964844 55.488281 L 15.964844 57.25 L 20.945312 57.25 C 21.136719 57.25 21.316406 57.289062 21.492188 57.359375 C 21.667969 57.433594 21.824219 57.539062 21.960938 57.671875 C 22.09375 57.808594 22.199219 57.964844 22.269531 58.140625 C 22.34375 58.316406 22.378906 58.5 22.378906 58.691406 C 22.378906 58.882812 22.34375 59.066406 22.269531 59.246094 C 22.199219 59.421875 22.09375 59.578125 21.960938 59.710938 C 21.824219 59.847656 21.667969 59.953125 21.492188 60.027344 C 21.316406 60.097656 21.136719 60.136719 20.945312 60.136719 Z M 20.945312 60.136719 " fill-opacity="1" fill-rule="nonzero"/><path fill="#010101" d="M 44.152344 60.070312 C 41.550781 60.070312 39.507812 58.417969 39.507812 56.3125 C 39.507812 56.121094 39.542969 55.9375 39.617188 55.757812 C 39.691406 55.582031 39.792969 55.425781 39.929688 55.292969 C 40.0625 55.15625 40.21875 55.050781 40.394531 54.980469 C 40.570312 54.90625 40.753906 54.867188 40.945312 54.867188 C 41.132812 54.867188 41.316406 54.90625 41.492188 54.980469 C 41.667969 55.050781 41.824219 55.15625 41.960938 55.292969 C 42.09375 55.425781 42.199219 55.582031 42.269531 55.757812 C 42.34375 55.9375 42.378906 56.121094 42.378906 56.3125 C 42.378906 56.621094 43.054688 57.1875 44.152344 57.1875 C 45.253906 57.1875 45.929688 56.621094 45.929688 56.3125 C 45.929688 56.003906 45.253906 55.433594 44.152344 55.433594 L 44.136719 55.433594 C 41.535156 55.433594 39.492188 53.78125 39.492188 51.675781 C 39.492188 49.566406 41.53125 47.914062 44.136719 47.914062 C 46.742188 47.914062 48.785156 49.566406 48.785156 51.675781 C 48.785156 51.867188 48.746094 52.050781 48.675781 52.226562 C 48.601562 52.402344 48.5 52.558594 48.363281 52.695312 C 48.230469 52.828125 48.074219 52.933594 47.898438 53.007812 C 47.722656 53.078125 47.539062 53.117188 47.347656 53.117188 C 47.15625 53.117188 46.976562 53.078125 46.800781 53.007812 C 46.621094 52.933594 46.46875 52.828125 46.332031 52.695312 C 46.199219 52.558594 46.09375 52.402344 46.023438 52.226562 C 45.949219 52.050781 45.914062 51.867188 45.914062 51.675781 C 45.914062 51.363281 45.238281 50.796875 44.136719 50.796875 C 43.039062 50.796875 42.363281 51.363281 42.363281 51.675781 C 42.363281 51.984375 43.035156 52.550781 44.136719 52.550781 L 44.152344 52.550781 C 46.757812 52.550781 48.800781 54.203125 48.800781 56.3125 C 48.800781 58.421875 46.757812 60.070312 44.152344 60.070312 Z M 44.152344 60.070312 " fill-opacity="1" fill-rule="nonzero"/><path fill="#010101" d="M 56.976562 54.863281 C 56.703125 54.863281 56.445312 54.789062 56.214844 54.640625 C 55.980469 54.492188 55.800781 54.292969 55.683594 54.042969 C 55.5625 53.792969 55.519531 53.53125 55.550781 53.257812 C 55.582031 52.980469 55.683594 52.734375 55.855469 52.519531 L 59.074219 48.453125 C 59.191406 48.292969 59.332031 48.164062 59.5 48.0625 C 59.667969 47.960938 59.847656 47.898438 60.042969 47.871094 C 60.238281 47.84375 60.429688 47.855469 60.617188 47.910156 C 60.808594 47.960938 60.980469 48.050781 61.132812 48.171875 C 61.285156 48.292969 61.410156 48.441406 61.503906 48.617188 C 61.59375 48.789062 61.652344 48.976562 61.667969 49.171875 C 61.6875 49.367188 61.664062 49.558594 61.605469 49.746094 C 61.542969 49.933594 61.449219 50.101562 61.320312 50.25 L 58.097656 54.3125 C 57.8125 54.675781 57.441406 54.859375 56.976562 54.863281 Z M 56.976562 54.863281 " fill-opacity="1" fill-rule="nonzero"/><path fill="#010101" d="M 56.980469 54.863281 C 56.519531 54.863281 56.144531 54.683594 55.855469 54.320312 L 52.636719 50.257812 C 52.527344 50.105469 52.453125 49.941406 52.40625 49.761719 C 52.363281 49.582031 52.351562 49.398438 52.378906 49.214844 C 52.402344 49.03125 52.460938 48.859375 52.550781 48.699219 C 52.644531 48.539062 52.761719 48.398438 52.90625 48.285156 C 53.050781 48.167969 53.210938 48.082031 53.386719 48.03125 C 53.566406 47.976562 53.746094 47.957031 53.929688 47.976562 C 54.113281 47.992188 54.285156 48.042969 54.453125 48.125 C 54.617188 48.210938 54.757812 48.320312 54.882812 48.460938 L 58.097656 52.523438 C 58.273438 52.742188 58.375 52.988281 58.40625 53.261719 C 58.4375 53.539062 58.390625 53.800781 58.273438 54.050781 C 58.152344 54.300781 57.976562 54.5 57.742188 54.648438 C 57.507812 54.796875 57.253906 54.871094 56.976562 54.867188 Z M 56.980469 54.863281 " fill-opacity="1" fill-rule="nonzero"/><path fill="#010101" d="M 56.980469 60.070312 C 56.789062 60.070312 56.605469 60.035156 56.429688 59.960938 C 56.253906 59.890625 56.097656 59.785156 55.964844 59.648438 C 55.828125 59.515625 55.726562 59.359375 55.652344 59.183594 C 55.578125 59.003906 55.542969 58.820312 55.542969 58.628906 L 55.542969 53.417969 C 55.542969 53.226562 55.578125 53.042969 55.652344 52.867188 C 55.726562 52.691406 55.828125 52.535156 55.964844 52.398438 C 56.097656 52.265625 56.253906 52.160156 56.429688 52.085938 C 56.605469 52.015625 56.789062 51.976562 56.980469 51.976562 C 57.167969 51.976562 57.351562 52.015625 57.527344 52.085938 C 57.703125 52.160156 57.859375 52.265625 57.996094 52.398438 C 58.128906 52.535156 58.234375 52.691406 58.304688 52.867188 C 58.378906 53.042969 58.414062 53.226562 58.414062 53.417969 L 58.414062 58.628906 C 58.414062 58.820312 58.378906 59.003906 58.304688 59.183594 C 58.234375 59.359375 58.128906 59.515625 57.996094 59.648438 C 57.859375 59.785156 57.703125 59.890625 57.527344 59.960938 C 57.351562 60.035156 57.167969 60.070312 56.980469 60.070312 Z M 56.980469 60.070312 " fill-opacity="1" fill-rule="nonzero"/><path fill="#010101" d="M 34.492188 60.578125 C 34.167969 60.578125 33.875 60.476562 33.617188 60.277344 C 33.359375 60.078125 33.1875 59.820312 33.105469 59.507812 L 30.964844 51.449219 L 28.820312 59.507812 C 28.773438 59.695312 28.695312 59.867188 28.578125 60.019531 C 28.464844 60.175781 28.324219 60.304688 28.15625 60.402344 C 27.992188 60.5 27.8125 60.5625 27.621094 60.589844 C 27.429688 60.613281 27.242188 60.601562 27.054688 60.550781 C 26.871094 60.503906 26.699219 60.417969 26.546875 60.300781 C 26.394531 60.179688 26.273438 60.039062 26.175781 59.871094 C 26.082031 59.703125 26.023438 59.519531 26 59.328125 C 25.976562 59.136719 25.992188 58.949219 26.046875 58.761719 L 28.746094 48.59375 C 28.832031 48.277344 29.003906 48.019531 29.261719 47.820312 C 29.519531 47.621094 29.808594 47.519531 30.136719 47.519531 L 31.789062 47.519531 C 32.113281 47.523438 32.40625 47.621094 32.664062 47.820312 C 32.921875 48.019531 33.09375 48.277344 33.175781 48.59375 L 35.878906 58.757812 C 35.9375 58.976562 35.945312 59.191406 35.902344 59.414062 C 35.859375 59.632812 35.769531 59.832031 35.632812 60.011719 C 35.496094 60.191406 35.328125 60.328125 35.128906 60.429688 C 34.925781 60.527344 34.714844 60.578125 34.492188 60.578125 Z M 34.492188 60.578125 " fill-opacity="1" fill-rule="nonzero"/><path fill="#010101" d="M 33.851562 58.160156 L 28.074219 58.160156 C 27.882812 58.160156 27.699219 58.125 27.523438 58.050781 C 27.347656 57.976562 27.191406 57.875 27.058594 57.738281 C 26.921875 57.601562 26.820312 57.449219 26.746094 57.269531 C 26.671875 57.09375 26.636719 56.910156 26.636719 56.71875 C 26.636719 56.527344 26.671875 56.34375 26.746094 56.167969 C 26.820312 55.988281 26.921875 55.835938 27.058594 55.699219 C 27.191406 55.5625 27.347656 55.460938 27.523438 55.386719 C 27.699219 55.3125 27.882812 55.277344 28.074219 55.277344 L 33.851562 55.277344 C 34.039062 55.277344 34.222656 55.3125 34.398438 55.386719 C 34.574219 55.460938 34.730469 55.5625 34.867188 55.699219 C 35 55.835938 35.105469 55.988281 35.175781 56.167969 C 35.25 56.34375 35.285156 56.527344 35.285156 56.71875 C 35.285156 56.910156 35.25 57.09375 35.175781 57.269531 C 35.105469 57.449219 35 57.601562 34.867188 57.738281 C 34.730469 57.875 34.574219 57.976562 34.398438 58.050781 C 34.222656 58.125 34.039062 58.160156 33.851562 58.160156 Z M 33.851562 58.160156 " fill-opacity="1" fill-rule="nonzero"/><g clip-path="url(#07400b21c7)"><path fill="#000000" d="M 9.75 35.25 L 65.699219 35.25 L 65.699219 69.601562 L 9.75 69.601562 Z M 9.75 35.25 " fill-opacity="1" fill-rule="nonzero"/></g><g clip-path="url(#21a5acc387)"><g clip-path="url(#4914f8d939)"><g clip-path="url(#904358a608)"><path fill="#000000" d="M 14.832031 82.242188 L 5.484375 54.535156 L 29.730469 46.355469 L 39.074219 74.066406 Z M 14.832031 82.242188 " fill-opacity="1" fill-rule="nonzero"/></g></g></g><g clip-path="url(#a46e9b11bc)"><g clip-path="url(#56ce787de7)"><g clip-path="url(#571dab0665)"><path fill="#000000" d="M 31.117188 48.351562 L 60.027344 43.953125 L 63.875 69.25 L 34.964844 73.648438 Z M 31.117188 48.351562 " fill-opacity="1" fill-rule="nonzero"/></g></g></g><g clip-path="url(#89ca1050a6)"><path fill="#000000" d="M 37.730469 75 C 37.664062 75 37.601562 74.996094 37.539062 74.988281 L 9.242188 71.191406 C 8.886719 71.144531 8.589844 70.984375 8.351562 70.710938 C 8.113281 70.4375 7.992188 70.121094 7.992188 69.761719 L 7.992188 34.535156 C 7.992188 34.34375 8.03125 34.160156 8.101562 33.984375 C 8.175781 33.808594 8.28125 33.652344 8.414062 33.515625 C 8.550781 33.382812 8.707031 33.277344 8.882812 33.203125 C 9.058594 33.132812 9.242188 33.09375 9.433594 33.09375 L 66.027344 33.09375 C 66.21875 33.09375 66.402344 33.132812 66.578125 33.203125 C 66.757812 33.277344 66.914062 33.382812 67.046875 33.515625 C 67.183594 33.652344 67.285156 33.808594 67.359375 33.984375 C 67.433594 34.160156 67.46875 34.34375 67.46875 34.535156 L 67.46875 69.761719 C 67.46875 70.125 67.351562 70.441406 67.109375 70.710938 C 66.871094 70.984375 66.574219 71.144531 66.214844 71.191406 L 37.921875 74.988281 C 37.859375 74.996094 37.792969 75 37.730469 75 Z M 10.875 68.5 L 37.730469 72.105469 L 64.585938 68.5 L 64.585938 35.980469 L 10.875 35.980469 Z M 66.027344 69.761719 Z M 66.027344 69.761719 " fill-opacity="1" fill-rule="nonzero"/></g><path fill="#ffffff" d="M 21.273438 55.488281 L 14.921875 55.488281 C 14.039062 55.488281 13.347656 54.824219 13.347656 53.976562 L 13.347656 49.472656 C 13.347656 48.625 14.039062 47.957031 14.921875 47.957031 L 21.273438 47.957031 C 21.464844 47.957031 21.648438 47.996094 21.824219 48.066406 C 22 48.140625 22.15625 48.246094 22.292969 48.382812 C 22.425781 48.515625 22.53125 48.671875 22.605469 48.847656 C 22.675781 49.027344 22.714844 49.210938 22.714844 49.402344 C 22.714844 49.59375 22.675781 49.777344 22.605469 49.953125 C 22.53125 50.128906 22.425781 50.285156 22.292969 50.421875 C 22.15625 50.554688 22 50.660156 21.824219 50.734375 C 21.648438 50.804688 21.464844 50.84375 21.273438 50.84375 L 16.238281 50.84375 L 16.238281 52.605469 L 21.273438 52.605469 C 21.464844 52.605469 21.648438 52.640625 21.828125 52.714844 C 22.003906 52.789062 22.160156 52.890625 22.292969 53.027344 C 22.429688 53.164062 22.535156 53.316406 22.605469 53.496094 C 22.679688 53.671875 22.71875 53.855469 22.71875 54.046875 C 22.71875 54.238281 22.679688 54.421875 22.605469 54.597656 C 22.535156 54.777344 22.429688 54.929688 22.292969 55.066406 C 22.160156 55.203125 22.003906 55.304688 21.828125 55.378906 C 21.648438 55.453125 21.464844 55.488281 21.273438 55.488281 Z M 21.273438 55.488281 " fill-opacity="1" fill-rule="nonzero"/><path fill="#ffffff" d="M 21.238281 60.136719 L 14.90625 60.136719 C 14.703125 60.136719 14.503906 60.101562 14.316406 60.027344 C 14.128906 59.949219 13.960938 59.84375 13.816406 59.699219 C 13.667969 59.558594 13.554688 59.394531 13.476562 59.207031 C 13.394531 59.019531 13.355469 58.824219 13.351562 58.621094 L 13.351562 54.117188 C 13.355469 53.914062 13.394531 53.71875 13.476562 53.535156 C 13.554688 53.347656 13.667969 53.183594 13.8125 53.039062 C 13.960938 52.898438 14.128906 52.789062 14.316406 52.714844 C 14.503906 52.636719 14.703125 52.601562 14.90625 52.605469 L 21.238281 52.605469 C 21.429688 52.605469 21.613281 52.640625 21.789062 52.714844 C 21.964844 52.789062 22.121094 52.890625 22.257812 53.027344 C 22.394531 53.164062 22.496094 53.316406 22.570312 53.496094 C 22.644531 53.671875 22.679688 53.855469 22.679688 54.046875 C 22.679688 54.238281 22.644531 54.421875 22.570312 54.597656 C 22.496094 54.777344 22.394531 54.929688 22.257812 55.066406 C 22.121094 55.203125 21.964844 55.304688 21.789062 55.378906 C 21.613281 55.453125 21.429688 55.488281 21.238281 55.488281 L 16.238281 55.488281 L 16.238281 57.25 L 21.238281 57.25 C 21.429688 57.25 21.613281 57.289062 21.789062 57.359375 C 21.964844 57.433594 22.121094 57.539062 22.257812 57.671875 C 22.394531 57.808594 22.496094 57.964844 22.570312 58.140625 C 22.644531 58.316406 22.679688 58.5 22.679688 58.691406 C 22.679688 58.882812 22.644531 59.066406 22.570312 59.246094 C 22.496094 59.421875 22.394531 59.578125 22.257812 59.710938 C 22.121094 59.847656 21.964844 59.953125 21.789062 60.027344 C 21.613281 60.097656 21.429688 60.136719 21.238281 60.136719 Z M 21.238281 60.136719 " fill-opacity="1" fill-rule="nonzero"/><path fill="#ffffff" d="M 44.550781 60.070312 C 41.9375 60.070312 39.882812 58.417969 39.882812 56.3125 C 39.882812 56.121094 39.917969 55.9375 39.992188 55.757812 C 40.066406 55.582031 40.171875 55.425781 40.304688 55.292969 C 40.441406 55.15625 40.597656 55.050781 40.773438 54.980469 C 40.949219 54.90625 41.132812 54.867188 41.324219 54.867188 C 41.515625 54.867188 41.699219 54.90625 41.878906 54.980469 C 42.054688 55.050781 42.210938 55.15625 42.34375 55.292969 C 42.480469 55.425781 42.585938 55.582031 42.65625 55.757812 C 42.730469 55.9375 42.769531 56.121094 42.769531 56.3125 C 42.769531 56.621094 43.445312 57.1875 44.550781 57.1875 C 45.65625 57.1875 46.332031 56.621094 46.332031 56.3125 C 46.332031 56.003906 45.65625 55.433594 44.550781 55.433594 L 44.535156 55.433594 C 41.917969 55.433594 39.867188 53.78125 39.867188 51.675781 C 39.867188 49.566406 41.917969 47.914062 44.535156 47.914062 C 47.152344 47.914062 49.199219 49.566406 49.199219 51.675781 C 49.199219 51.867188 49.164062 52.050781 49.089844 52.226562 C 49.015625 52.402344 48.914062 52.558594 48.777344 52.695312 C 48.644531 52.828125 48.488281 52.933594 48.308594 53.007812 C 48.132812 53.078125 47.949219 53.117188 47.757812 53.117188 C 47.566406 53.117188 47.382812 53.078125 47.207031 53.007812 C 47.03125 52.933594 46.875 52.828125 46.738281 52.695312 C 46.601562 52.558594 46.5 52.402344 46.425781 52.226562 C 46.351562 52.050781 46.316406 51.867188 46.316406 51.675781 C 46.316406 51.363281 45.640625 50.796875 44.535156 50.796875 C 43.429688 50.796875 42.75 51.363281 42.75 51.675781 C 42.75 51.984375 43.425781 52.550781 44.535156 52.550781 L 44.550781 52.550781 C 47.164062 52.550781 49.214844 54.203125 49.214844 56.3125 C 49.214844 58.421875 47.167969 60.070312 44.550781 60.070312 Z M 44.550781 60.070312 " fill-opacity="1" fill-rule="nonzero"/><path fill="#ffffff" d="M 57.429688 54.863281 C 57.152344 54.863281 56.898438 54.789062 56.660156 54.640625 C 56.425781 54.492188 56.25 54.292969 56.128906 54.042969 C 56.007812 53.792969 55.964844 53.53125 55.996094 53.257812 C 56.027344 52.980469 56.128906 52.734375 56.304688 52.519531 L 59.535156 48.453125 C 59.652344 48.292969 59.792969 48.164062 59.964844 48.0625 C 60.132812 47.960938 60.3125 47.898438 60.507812 47.871094 C 60.703125 47.84375 60.898438 47.855469 61.085938 47.910156 C 61.277344 47.960938 61.449219 48.050781 61.601562 48.171875 C 61.757812 48.292969 61.882812 48.441406 61.976562 48.617188 C 62.066406 48.789062 62.125 48.976562 62.140625 49.171875 C 62.160156 49.367188 62.136719 49.558594 62.074219 49.746094 C 62.015625 49.933594 61.917969 50.101562 61.789062 50.25 L 58.554688 54.3125 C 58.269531 54.675781 57.894531 54.859375 57.429688 54.863281 Z M 57.429688 54.863281 " fill-opacity="1" fill-rule="nonzero"/><path fill="#ffffff" d="M 57.433594 54.863281 C 56.96875 54.863281 56.59375 54.683594 56.304688 54.320312 L 53.070312 50.257812 C 52.960938 50.105469 52.882812 49.941406 52.839844 49.761719 C 52.792969 49.582031 52.785156 49.398438 52.808594 49.214844 C 52.835938 49.03125 52.894531 48.859375 52.984375 48.699219 C 53.078125 48.539062 53.195312 48.398438 53.339844 48.285156 C 53.484375 48.167969 53.644531 48.082031 53.824219 48.03125 C 54 47.976562 54.183594 47.957031 54.367188 47.976562 C 54.550781 47.992188 54.726562 48.042969 54.894531 48.125 C 55.058594 48.210938 55.203125 48.320312 55.324219 48.460938 L 58.554688 52.523438 C 58.730469 52.742188 58.832031 52.988281 58.863281 53.261719 C 58.894531 53.539062 58.851562 53.800781 58.730469 54.050781 C 58.609375 54.300781 58.433594 54.5 58.199219 54.648438 C 57.960938 54.796875 57.707031 54.871094 57.429688 54.867188 Z M 57.433594 54.863281 " fill-opacity="1" fill-rule="nonzero"/><path fill="#ffffff" d="M 57.429688 60.070312 C 57.238281 60.070312 57.054688 60.035156 56.878906 59.960938 C 56.703125 59.890625 56.546875 59.785156 56.410156 59.648438 C 56.277344 59.515625 56.171875 59.359375 56.097656 59.183594 C 56.027344 59.003906 55.988281 58.820312 55.988281 58.628906 L 55.988281 53.417969 C 55.988281 53.226562 56.027344 53.042969 56.097656 52.867188 C 56.171875 52.691406 56.277344 52.535156 56.410156 52.398438 C 56.546875 52.265625 56.703125 52.160156 56.878906 52.085938 C 57.054688 52.015625 57.238281 51.976562 57.429688 51.976562 C 57.621094 51.976562 57.808594 52.015625 57.984375 52.085938 C 58.160156 52.160156 58.316406 52.265625 58.453125 52.398438 C 58.585938 52.535156 58.691406 52.691406 58.765625 52.867188 C 58.835938 53.042969 58.875 53.226562 58.875 53.417969 L 58.875 58.628906 C 58.875 58.820312 58.835938 59.003906 58.765625 59.183594 C 58.691406 59.359375 58.585938 59.515625 58.453125 59.648438 C 58.316406 59.785156 58.160156 59.890625 57.984375 59.960938 C 57.808594 60.035156 57.621094 60.070312 57.429688 60.070312 Z M 57.429688 60.070312 " fill-opacity="1" fill-rule="nonzero"/><path fill="#ffffff" d="M 34.84375 60.578125 C 34.519531 60.578125 34.226562 60.476562 33.964844 60.277344 C 33.707031 60.078125 33.535156 59.820312 33.453125 59.507812 L 31.300781 51.449219 L 29.148438 59.507812 C 29.101562 59.695312 29.019531 59.867188 28.90625 60.019531 C 28.789062 60.175781 28.648438 60.304688 28.480469 60.402344 C 28.316406 60.5 28.136719 60.5625 27.945312 60.589844 C 27.753906 60.613281 27.5625 60.601562 27.375 60.550781 C 27.1875 60.503906 27.019531 60.417969 26.867188 60.300781 C 26.714844 60.179688 26.589844 60.039062 26.492188 59.871094 C 26.398438 59.703125 26.339844 59.519531 26.316406 59.328125 C 26.292969 59.136719 26.308594 58.949219 26.363281 58.761719 L 29.074219 48.59375 C 29.160156 48.277344 29.332031 48.019531 29.589844 47.820312 C 29.847656 47.621094 30.140625 47.519531 30.46875 47.519531 L 32.128906 47.519531 C 32.457031 47.523438 32.75 47.621094 33.007812 47.820312 C 33.269531 48.019531 33.4375 48.277344 33.523438 48.59375 L 36.238281 58.757812 C 36.296875 58.976562 36.304688 59.191406 36.261719 59.414062 C 36.21875 59.632812 36.128906 59.832031 35.992188 60.011719 C 35.855469 60.191406 35.6875 60.328125 35.484375 60.429688 C 35.28125 60.527344 35.070312 60.578125 34.84375 60.578125 Z M 34.84375 60.578125 " fill-opacity="1" fill-rule="nonzero"/><path fill="#ffffff" d="M 34.199219 58.160156 L 28.398438 58.160156 C 28.207031 58.160156 28.023438 58.125 27.847656 58.050781 C 27.667969 57.976562 27.511719 57.875 27.378906 57.738281 C 27.242188 57.601562 27.136719 57.449219 27.066406 57.269531 C 26.992188 57.09375 26.957031 56.910156 26.957031 56.71875 C 26.957031 56.527344 26.992188 56.34375 27.066406 56.167969 C 27.136719 55.988281 27.242188 55.835938 27.378906 55.699219 C 27.511719 55.5625 27.667969 55.460938 27.847656 55.386719 C 28.023438 55.3125 28.207031 55.277344 28.398438 55.277344 L 34.199219 55.277344 C 34.390625 55.277344 34.574219 55.3125 34.753906 55.386719 C 34.929688 55.460938 35.085938 55.5625 35.21875 55.699219 C 35.355469 55.835938 35.460938 55.988281 35.53125 56.167969 C 35.605469 56.34375 35.644531 56.527344 35.644531 56.71875 C 35.644531 56.910156 35.605469 57.09375 35.53125 57.269531 C 35.460938 57.449219 35.355469 57.601562 35.21875 57.738281 C 35.085938 57.875 34.929688 57.976562 34.753906 58.050781 C 34.574219 58.125 34.390625 58.160156 34.199219 58.160156 Z M 34.199219 58.160156 " fill-opacity="1" fill-rule="nonzero"/></svg>