<svg xmlns="http://www.w3.org/2000/svg" xmlns:xlink="http://www.w3.org/1999/xlink" width="100" zoomAndPan="magnify" viewBox="0 0 75 74.999997" height="100" preserveAspectRatio="xMidYMid meet" version="1.0"><defs><clipPath id="e7bbdef353"><path d="M 29.625 16.800781 L 43.125 16.800781 L 43.125 27.601562 L 29.625 27.601562 Z M 29.625 16.800781 " clip-rule="nonzero"/></clipPath><clipPath id="c5a3475794"><path d="M 30.75 48.601562 L 44.25 48.601562 L 44.25 59.398438 L 30.75 59.398438 Z M 30.75 48.601562 " clip-rule="nonzero"/></clipPath></defs><g clip-path="url(#e7bbdef353)"><path fill="#fab800" d="M 29.625 16.800781 L 43.125 16.800781 L 43.125 27.601562 L 29.625 27.601562 Z M 29.625 16.800781 " fill-opacity="1" fill-rule="nonzero"/></g><g clip-path="url(#c5a3475794)"><path fill="#fab800" d="M 30.75 48.601562 L 44.25 48.601562 L 44.25 59.398438 L 30.75 59.398438 Z M 30.75 48.601562 " fill-opacity="1" fill-rule="nonzero"/></g><path fill="#000000" d="M 28.367188 13.789062 L 28.3125 13.648438 C 28.023438 13.753906 27.730469 13.867188 27.441406 13.980469 L 27.5 14.121094 C 27.777344 14.003906 28.066406 13.894531 28.367188 13.789062 Z M 28.367188 13.789062 " fill-opacity="1" fill-rule="nonzero"/><path fill="#000000" d="M 30.121094 13.214844 L 30.082031 13.066406 C 29.78125 13.152344 29.480469 13.242188 29.183594 13.339844 L 29.226562 13.488281 C 29.527344 13.394531 29.828125 13.300781 30.121094 13.214844 Z M 30.121094 13.214844 " fill-opacity="1" fill-rule="nonzero"/><path fill="#000000" d="M 24.976562 15.300781 L 24.90625 15.171875 C 24.636719 15.320312 24.363281 15.46875 24.097656 15.628906 L 24.171875 15.757812 C 24.4375 15.601562 24.707031 15.449219 24.976562 15.300781 Z M 24.976562 15.300781 " fill-opacity="1" fill-rule="nonzero"/><path fill="#000000" d="M 26.644531 14.484375 L 26.578125 14.347656 C 26.296875 14.472656 26.015625 14.605469 25.738281 14.742188 L 25.800781 14.878906 C 26.078125 14.742188 26.359375 14.609375 26.644531 14.484375 Z M 26.644531 14.484375 " fill-opacity="1" fill-rule="nonzero"/><path fill="#000000" d="M 37.429688 12.074219 L 37.429688 11.925781 C 37.121094 11.9375 36.808594 11.953125 36.5 11.972656 L 36.511719 12.121094 C 36.8125 12.101562 37.121094 12.085938 37.429688 12.074219 Z M 37.429688 12.074219 " fill-opacity="1" fill-rule="nonzero"/><path fill="#000000" d="M 35.582031 12.199219 L 35.566406 12.046875 C 35.257812 12.078125 34.949219 12.109375 34.640625 12.148438 L 34.660156 12.296875 C 34.960938 12.261719 35.273438 12.226562 35.582031 12.199219 Z M 35.582031 12.199219 " fill-opacity="1" fill-rule="nonzero"/><path fill="#000000" d="M 31.917969 12.765625 L 31.886719 12.613281 C 31.589844 12.679688 31.277344 12.753906 30.980469 12.828125 L 31.015625 12.976562 C 31.3125 12.902344 31.617188 12.832031 31.917969 12.765625 Z M 31.917969 12.765625 " fill-opacity="1" fill-rule="nonzero"/><path fill="#000000" d="M 33.742188 12.425781 L 33.71875 12.277344 C 33.414062 12.324219 33.101562 12.375 32.800781 12.425781 L 32.824219 12.578125 C 33.128906 12.527344 33.4375 12.472656 33.742188 12.425781 Z M 33.742188 12.425781 " fill-opacity="1" fill-rule="nonzero"/><path fill="#000000" d="M 19.097656 19.773438 L 18.992188 19.667969 C 18.777344 19.890625 18.566406 20.117188 18.359375 20.355469 L 18.472656 20.457031 C 18.675781 20.222656 18.886719 19.996094 19.097656 19.773438 Z M 19.097656 19.773438 " fill-opacity="1" fill-rule="nonzero"/><path fill="#000000" d="M 15.761719 24.199219 L 15.632812 24.125 C 15.480469 24.390625 15.320312 24.664062 15.183594 24.9375 L 15.316406 25.007812 C 15.453125 24.738281 15.605469 24.464844 15.761719 24.199219 Z M 15.761719 24.199219 " fill-opacity="1" fill-rule="nonzero"/><path fill="#000000" d="M 14.355469 26.613281 L 14.492188 26.675781 C 14.617188 26.390625 14.75 26.109375 14.882812 25.832031 L 14.75 25.765625 C 14.613281 26.042969 14.480469 26.328125 14.355469 26.613281 Z M 14.355469 26.613281 " fill-opacity="1" fill-rule="nonzero"/><path fill="#000000" d="M 13.65625 28.34375 L 13.796875 28.394531 C 13.902344 28.101562 14.015625 27.8125 14.128906 27.527344 L 13.992188 27.472656 C 13.875 27.757812 13.761719 28.050781 13.65625 28.34375 Z M 13.65625 28.34375 " fill-opacity="1" fill-rule="nonzero"/><path fill="#000000" d="M 16.757812 22.640625 L 16.636719 22.554688 C 16.460938 22.808594 16.285156 23.070312 16.117188 23.332031 L 16.246094 23.410156 C 16.410156 23.152344 16.585938 22.894531 16.757812 22.640625 Z M 16.757812 22.640625 " fill-opacity="1" fill-rule="nonzero"/><path fill="#000000" d="M 17.871094 21.164062 L 17.753906 21.066406 C 17.5625 21.308594 17.367188 21.554688 17.179688 21.800781 L 17.300781 21.890625 C 17.488281 21.644531 17.679688 21.398438 17.871094 21.164062 Z M 17.871094 21.164062 " fill-opacity="1" fill-rule="nonzero"/><path fill="#000000" d="M 23.382812 16.246094 L 23.304688 16.121094 C 23.042969 16.289062 22.78125 16.464844 22.527344 16.644531 L 22.613281 16.765625 C 22.867188 16.585938 23.128906 16.410156 23.382812 16.246094 Z M 23.382812 16.246094 " fill-opacity="1" fill-rule="nonzero"/><path fill="#000000" d="M 21.863281 17.308594 L 21.773438 17.1875 C 21.527344 17.375 21.28125 17.570312 21.042969 17.765625 L 21.136719 17.882812 C 21.375 17.683594 21.621094 17.492188 21.863281 17.308594 Z M 21.863281 17.308594 " fill-opacity="1" fill-rule="nonzero"/><path fill="#000000" d="M 20.4375 18.492188 L 20.335938 18.382812 C 20.105469 18.585938 19.875 18.796875 19.652344 19.015625 L 19.757812 19.125 C 19.976562 18.902344 20.203125 18.6875 20.4375 18.492188 Z M 20.4375 18.492188 " fill-opacity="1" fill-rule="nonzero"/><path fill="#000000" d="M 60.148438 25.769531 C 60.003906 25.496094 59.855469 25.222656 59.699219 24.949219 L 59.566406 25.023438 C 59.714844 25.292969 59.867188 25.566406 60.007812 25.839844 Z M 60.148438 25.769531 " fill-opacity="1" fill-rule="nonzero"/><path fill="#000000" d="M 58.203125 22.59375 C 58.023438 22.34375 57.835938 22.089844 57.644531 21.847656 L 57.527344 21.9375 C 57.714844 22.179688 57.902344 22.429688 58.082031 22.6875 Z M 58.203125 22.59375 " fill-opacity="1" fill-rule="nonzero"/><path fill="#000000" d="M 54.476562 18.433594 C 54.246094 18.230469 54.007812 18.023438 53.769531 17.824219 L 53.671875 17.941406 C 53.910156 18.136719 54.144531 18.339844 54.375 18.539062 Z M 54.476562 18.433594 " fill-opacity="1" fill-rule="nonzero"/><path fill="#000000" d="M 55.710938 19.839844 L 55.816406 19.734375 C 55.601562 19.511719 55.378906 19.285156 55.15625 19.074219 L 55.054688 19.183594 C 55.273438 19.390625 55.496094 19.613281 55.710938 19.839844 Z M 55.710938 19.839844 " fill-opacity="1" fill-rule="nonzero"/><path fill="#000000" d="M 59.234375 24.148438 C 59.070312 23.882812 58.902344 23.621094 58.730469 23.363281 L 58.605469 23.445312 C 58.777344 23.703125 58.945312 23.964844 59.105469 24.226562 Z M 59.234375 24.148438 " fill-opacity="1" fill-rule="nonzero"/><path fill="#000000" d="M 56.941406 21.214844 L 57.054688 21.117188 C 56.859375 20.882812 56.652344 20.644531 56.445312 20.414062 L 56.335938 20.515625 C 56.546875 20.734375 56.75 20.976562 56.941406 21.214844 Z M 56.941406 21.214844 " fill-opacity="1" fill-rule="nonzero"/><path fill="#000000" d="M 61.605469 29.199219 C 61.507812 28.898438 61.398438 28.609375 61.285156 28.320312 L 61.148438 28.375 C 61.257812 28.660156 61.363281 28.957031 61.464844 29.246094 Z M 61.605469 29.199219 " fill-opacity="1" fill-rule="nonzero"/><path fill="#000000" d="M 13.125 29.980469 L 13.277344 29.980469 C 13.34375 29.746094 13.417969 29.507812 13.492188 29.273438 L 13.351562 29.226562 C 13.277344 29.476562 13.199219 29.730469 13.125 29.980469 Z M 13.125 29.980469 " fill-opacity="1" fill-rule="nonzero"/><path fill="#000000" d="M 60.941406 27.457031 C 60.820312 27.171875 60.6875 26.886719 60.558594 26.609375 L 60.421875 26.671875 C 60.554688 26.949219 60.679688 27.230469 60.800781 27.515625 Z M 60.941406 27.457031 " fill-opacity="1" fill-rule="nonzero"/><path fill="#000000" d="M 51.523438 16.152344 C 51.265625 15.980469 51 15.8125 50.734375 15.652344 L 50.660156 15.78125 C 50.921875 15.941406 51.183594 16.105469 51.441406 16.277344 Z M 51.523438 16.152344 " fill-opacity="1" fill-rule="nonzero"/><path fill="#000000" d="M 46.550781 13.59375 C 46.25 13.480469 45.964844 13.375 45.671875 13.273438 L 45.621094 13.421875 C 45.921875 13.523438 46.207031 13.628906 46.496094 13.738281 Z M 46.550781 13.59375 " fill-opacity="1" fill-rule="nonzero"/><path fill="#000000" d="M 42.980469 12.519531 C 42.679688 12.457031 42.367188 12.390625 42.066406 12.335938 L 42.039062 12.488281 C 42.335938 12.542969 42.648438 12.605469 42.945312 12.671875 Z M 42.980469 12.519531 " fill-opacity="1" fill-rule="nonzero"/><path fill="#000000" d="M 44.78125 12.992188 C 44.484375 12.902344 44.183594 12.816406 43.886719 12.738281 L 43.847656 12.890625 C 44.144531 12.964844 44.445312 13.050781 44.746094 13.140625 Z M 44.78125 12.992188 " fill-opacity="1" fill-rule="nonzero"/><path fill="#000000" d="M 41.144531 12.1875 C 40.835938 12.140625 40.527344 12.105469 40.21875 12.070312 L 40.203125 12.21875 C 40.511719 12.253906 40.820312 12.292969 41.125 12.335938 Z M 41.144531 12.1875 " fill-opacity="1" fill-rule="nonzero"/><path fill="#000000" d="M 48.265625 14.324219 C 47.984375 14.191406 47.695312 14.0625 47.410156 13.941406 L 47.351562 14.078125 C 47.632812 14.199219 47.921875 14.328125 48.199219 14.457031 Z M 48.265625 14.324219 " fill-opacity="1" fill-rule="nonzero"/><path fill="#000000" d="M 39.289062 11.988281 C 38.980469 11.964844 38.664062 11.949219 38.355469 11.9375 L 38.355469 12.089844 C 38.664062 12.097656 38.976562 12.117188 39.285156 12.136719 Z M 39.289062 11.988281 " fill-opacity="1" fill-rule="nonzero"/><path fill="#000000" d="M 49.929688 15.179688 C 49.660156 15.027344 49.382812 14.878906 49.109375 14.730469 L 49.039062 14.863281 C 49.3125 15.011719 49.585938 15.152344 49.859375 15.3125 Z M 49.929688 15.179688 " fill-opacity="1" fill-rule="nonzero"/><path fill="#000000" d="M 53.042969 17.238281 C 52.796875 17.050781 52.542969 16.863281 52.292969 16.683594 L 52.207031 16.804688 C 52.457031 16.984375 52.707031 17.167969 52.953125 17.359375 Z M 53.042969 17.238281 " fill-opacity="1" fill-rule="nonzero"/><path fill="#000000" d="M 37.46875 62.910156 L 37.46875 63.0625 C 37.777344 63.0625 38.089844 63.0625 38.398438 63.042969 L 38.398438 62.894531 C 38.089844 62.90625 37.773438 62.910156 37.46875 62.910156 Z M 37.46875 62.910156 " fill-opacity="1" fill-rule="nonzero"/><path fill="#000000" d="M 48.230469 60.511719 L 48.292969 60.648438 C 48.574219 60.519531 48.855469 60.378906 49.128906 60.238281 L 49.058594 60.105469 C 48.785156 60.246094 48.507812 60.382812 48.230469 60.511719 Z M 48.230469 60.511719 " fill-opacity="1" fill-rule="nonzero"/><path fill="#000000" d="M 49.871094 59.664062 L 49.945312 59.796875 C 50.214844 59.648438 50.484375 59.488281 50.75 59.324219 L 50.671875 59.195312 C 50.410156 59.359375 50.140625 59.515625 49.871094 59.664062 Z M 49.871094 59.664062 " fill-opacity="1" fill-rule="nonzero"/><path fill="#000000" d="M 51.453125 58.699219 L 51.535156 58.824219 C 51.792969 58.652344 52.046875 58.472656 52.300781 58.292969 L 52.214844 58.171875 C 51.964844 58.351562 51.707031 58.53125 51.453125 58.699219 Z M 51.453125 58.699219 " fill-opacity="1" fill-rule="nonzero"/><path fill="#000000" d="M 39.320312 62.84375 L 39.328125 62.992188 C 39.636719 62.972656 39.949219 62.941406 40.257812 62.910156 L 40.242188 62.757812 C 39.9375 62.792969 39.625 62.820312 39.320312 62.84375 Z M 39.320312 62.84375 " fill-opacity="1" fill-rule="nonzero"/><path fill="#000000" d="M 42.984375 62.308594 L 43.015625 62.457031 C 43.316406 62.386719 43.621094 62.316406 43.921875 62.238281 L 43.882812 62.085938 C 43.585938 62.167969 43.285156 62.238281 42.984375 62.308594 Z M 42.984375 62.308594 " fill-opacity="1" fill-rule="nonzero"/><path fill="#000000" d="M 41.160156 62.644531 L 41.183594 62.792969 C 41.484375 62.75 41.796875 62.699219 42.101562 62.644531 L 42.074219 62.492188 C 41.773438 62.550781 41.46875 62.597656 41.160156 62.644531 Z M 41.160156 62.644531 " fill-opacity="1" fill-rule="nonzero"/><path fill="#000000" d="M 44.777344 61.839844 L 44.820312 61.988281 C 45.117188 61.898438 45.417969 61.804688 45.707031 61.703125 L 45.660156 61.558594 C 45.367188 61.65625 45.070312 61.75 44.777344 61.839844 Z M 44.777344 61.839844 " fill-opacity="1" fill-rule="nonzero"/><path fill="#000000" d="M 52.957031 57.617188 L 53.050781 57.738281 C 53.292969 57.546875 53.539062 57.351562 53.773438 57.15625 L 53.679688 57.039062 C 53.441406 57.242188 53.203125 57.429688 52.957031 57.617188 Z M 52.957031 57.617188 " fill-opacity="1" fill-rule="nonzero"/><path fill="#000000" d="M 46.527344 61.238281 L 46.582031 61.378906 C 46.871094 61.265625 47.160156 61.152344 47.445312 61.03125 L 47.386719 60.890625 C 47.105469 61.011719 46.816406 61.132812 46.527344 61.238281 Z M 46.527344 61.238281 " fill-opacity="1" fill-rule="nonzero"/><path fill="#000000" d="M 13.363281 45.769531 C 13.457031 46.070312 13.558594 46.367188 13.660156 46.65625 L 13.800781 46.605469 C 13.695312 46.316406 13.59375 46.019531 13.503906 45.722656 Z M 13.363281 45.769531 " fill-opacity="1" fill-rule="nonzero"/><path fill="#000000" d="M 60.8125 47.441406 L 60.949219 47.5 C 61.074219 47.210938 61.1875 46.921875 61.300781 46.628906 L 61.160156 46.578125 C 61.050781 46.867188 60.933594 47.15625 60.8125 47.441406 Z M 60.8125 47.441406 " fill-opacity="1" fill-rule="nonzero"/><path fill="#000000" d="M 54.378906 56.433594 L 54.480469 56.542969 C 54.710938 56.335938 54.941406 56.121094 55.164062 55.90625 L 55.058594 55.800781 C 54.839844 56.011719 54.609375 56.226562 54.378906 56.433594 Z M 54.378906 56.433594 " fill-opacity="1" fill-rule="nonzero"/><path fill="#000000" d="M 59.113281 50.746094 L 59.242188 50.824219 C 59.402344 50.558594 59.5625 50.289062 59.710938 50.015625 L 59.582031 49.941406 C 59.429688 50.210938 59.273438 50.480469 59.113281 50.746094 Z M 59.113281 50.746094 " fill-opacity="1" fill-rule="nonzero"/><path fill="#000000" d="M 58.089844 52.292969 L 58.210938 52.378906 C 58.390625 52.128906 58.566406 51.867188 58.738281 51.609375 L 58.613281 51.527344 C 58.4375 51.785156 58.265625 52.042969 58.089844 52.292969 Z M 58.089844 52.292969 " fill-opacity="1" fill-rule="nonzero"/><path fill="#000000" d="M 55.714844 55.148438 L 55.824219 55.25 C 56.035156 55.027344 56.25 54.800781 56.457031 54.566406 L 56.347656 54.46875 C 56.140625 54.699219 55.925781 54.921875 55.714844 55.148438 Z M 55.714844 55.148438 " fill-opacity="1" fill-rule="nonzero"/><path fill="#000000" d="M 56.949219 53.761719 L 57.066406 53.859375 C 57.265625 53.617188 57.460938 53.375 57.652344 53.128906 L 57.53125 53.035156 C 57.34375 53.28125 57.148438 53.523438 56.949219 53.761719 Z M 56.949219 53.761719 " fill-opacity="1" fill-rule="nonzero"/><path fill="#000000" d="M 60.023438 49.125 L 60.15625 49.195312 C 60.300781 48.917969 60.4375 48.632812 60.570312 48.351562 L 60.433594 48.289062 C 60.300781 48.5625 60.164062 48.847656 60.023438 49.125 Z M 60.023438 49.125 " fill-opacity="1" fill-rule="nonzero"/><path fill="#000000" d="M 19.128906 55.238281 L 19.019531 55.339844 C 19.234375 55.566406 19.457031 55.789062 19.679688 56 L 19.78125 55.894531 C 19.558594 55.679688 19.339844 55.460938 19.128906 55.238281 Z M 19.128906 55.238281 " fill-opacity="1" fill-rule="nonzero"/><path fill="#000000" d="M 17.78125 53.949219 C 17.976562 54.1875 18.183594 54.429688 18.382812 54.660156 L 18.492188 54.558594 C 18.292969 54.328125 18.089844 54.09375 17.894531 53.855469 Z M 17.78125 53.949219 " fill-opacity="1" fill-rule="nonzero"/><path fill="#000000" d="M 16.65625 52.453125 C 16.828125 52.707031 17.015625 52.960938 17.203125 53.210938 L 17.324219 53.121094 C 17.136719 52.871094 16.953125 52.621094 16.777344 52.371094 Z M 16.65625 52.453125 " fill-opacity="1" fill-rule="nonzero"/><path fill="#000000" d="M 35.605469 62.9375 C 35.914062 62.964844 36.222656 62.992188 36.535156 63.011719 L 36.542969 62.863281 C 36.234375 62.84375 35.925781 62.816406 35.621094 62.789062 Z M 35.605469 62.9375 " fill-opacity="1" fill-rule="nonzero"/><path fill="#000000" d="M 14.003906 47.527344 C 14.121094 47.816406 14.242188 48.105469 14.367188 48.386719 L 14.503906 48.324219 C 14.378906 48.042969 14.257812 47.757812 14.140625 47.46875 Z M 14.003906 47.527344 " fill-opacity="1" fill-rule="nonzero"/><path fill="#000000" d="M 21.804688 57.820312 C 22.050781 58.003906 22.304688 58.191406 22.558594 58.367188 L 22.644531 58.246094 C 22.390625 58.070312 22.140625 57.886719 21.898438 57.699219 Z M 21.804688 57.820312 " fill-opacity="1" fill-rule="nonzero"/><path fill="#000000" d="M 15.648438 50.878906 C 15.808594 51.144531 15.972656 51.414062 16.136719 51.675781 L 16.265625 51.59375 C 16.101562 51.335938 15.933594 51.066406 15.777344 50.804688 Z M 15.648438 50.878906 " fill-opacity="1" fill-rule="nonzero"/><path fill="#000000" d="M 14.75 49.234375 C 14.890625 49.511719 15.035156 49.789062 15.179688 50.0625 L 15.3125 49.992188 C 15.164062 49.722656 15.023438 49.445312 14.886719 49.167969 Z M 14.75 49.234375 " fill-opacity="1" fill-rule="nonzero"/><path fill="#000000" d="M 20.363281 56.644531 C 20.59375 56.847656 20.832031 57.050781 21.074219 57.25 L 21.167969 57.132812 C 20.929688 56.9375 20.691406 56.734375 20.464844 56.535156 Z M 20.363281 56.644531 " fill-opacity="1" fill-rule="nonzero"/><path fill="#000000" d="M 23.332031 58.886719 C 23.59375 59.054688 23.863281 59.21875 24.128906 59.375 L 24.207031 59.246094 C 23.941406 59.097656 23.671875 58.925781 23.414062 58.761719 Z M 23.332031 58.886719 " fill-opacity="1" fill-rule="nonzero"/><path fill="#000000" d="M 33.753906 62.710938 C 34.050781 62.757812 34.367188 62.800781 34.675781 62.839844 L 34.691406 62.6875 C 34.390625 62.652344 34.078125 62.609375 33.773438 62.5625 Z M 33.753906 62.710938 " fill-opacity="1" fill-rule="nonzero"/><path fill="#000000" d="M 30.117188 61.921875 C 30.417969 62.003906 30.714844 62.085938 31.015625 62.160156 L 31.050781 62.011719 C 30.753906 61.9375 30.453125 61.863281 30.152344 61.773438 Z M 30.117188 61.921875 " fill-opacity="1" fill-rule="nonzero"/><path fill="#000000" d="M 31.925781 62.371094 C 32.226562 62.4375 32.53125 62.5 32.839844 62.558594 L 32.867188 62.40625 C 32.566406 62.347656 32.257812 62.289062 31.957031 62.222656 Z M 31.925781 62.371094 " fill-opacity="1" fill-rule="nonzero"/><path fill="#000000" d="M 24.941406 59.832031 C 25.214844 59.980469 25.492188 60.121094 25.773438 60.257812 L 25.835938 60.121094 C 25.5625 59.988281 25.28125 59.84375 25.011719 59.699219 Z M 24.941406 59.832031 " fill-opacity="1" fill-rule="nonzero"/><path fill="#000000" d="M 26.613281 60.652344 C 26.898438 60.777344 27.1875 60.902344 27.472656 61.015625 L 27.53125 60.875 C 27.246094 60.761719 26.957031 60.640625 26.675781 60.515625 Z M 26.613281 60.652344 " fill-opacity="1" fill-rule="nonzero"/><path fill="#000000" d="M 28.34375 61.347656 C 28.632812 61.453125 28.933594 61.554688 29.226562 61.648438 L 29.273438 61.496094 C 28.972656 61.402344 28.683594 61.300781 28.394531 61.199219 Z M 28.34375 61.347656 " fill-opacity="1" fill-rule="nonzero"/><path fill="#000000" d="M 64.328125 51.957031 C 65.328125 50.097656 66.125 48.152344 66.722656 46.125 L 66.367188 46.019531 C 65.191406 50.046875 63.25 53.667969 60.546875 56.878906 L 60.832031 57.121094 C 62.175781 55.519531 63.339844 53.796875 64.328125 51.957031 Z M 64.328125 51.957031 " fill-opacity="1" fill-rule="nonzero"/><path fill="#000000" d="M 66.699219 28.769531 C 65.496094 24.730469 63.542969 21.097656 60.832031 17.871094 L 60.546875 18.113281 C 63.226562 21.300781 65.15625 24.890625 66.339844 28.882812 Z M 66.699219 28.769531 " fill-opacity="1" fill-rule="nonzero"/><path fill="#000000" d="M 7.871094 46.121094 C 9.066406 50.195312 11.03125 53.859375 13.761719 57.113281 L 14.050781 56.875 C 11.34375 53.664062 9.402344 50.046875 8.222656 46.019531 Z M 7.871094 46.121094 " fill-opacity="1" fill-rule="nonzero"/><path fill="#000000" d="M 10.285156 22.980469 C 9.289062 24.828125 8.488281 26.753906 7.890625 28.765625 L 8.25 28.875 C 9.429688 24.878906 11.363281 21.289062 14.042969 18.101562 L 13.757812 17.859375 C 12.425781 19.449219 11.269531 21.15625 10.285156 22.980469 Z M 10.285156 22.980469 " fill-opacity="1" fill-rule="nonzero"/><path fill="#000000" d="M 73.734375 35.796875 C 73.59375 35.632812 73.515625 35.441406 73.5 35.222656 C 73.488281 35.003906 73.542969 34.804688 73.664062 34.625 L 74.445312 33.453125 C 74.582031 33.253906 74.632812 33.035156 74.601562 32.796875 C 74.570312 32.558594 74.46875 32.359375 74.289062 32.199219 L 73.242188 31.257812 C 73.078125 31.113281 72.976562 30.933594 72.9375 30.71875 C 72.894531 30.503906 72.921875 30.300781 73.019531 30.105469 L 73.652344 28.84375 C 73.757812 28.628906 73.78125 28.40625 73.722656 28.171875 C 73.664062 27.941406 73.535156 27.753906 73.335938 27.617188 L 72.179688 26.816406 C 72 26.695312 71.875 26.527344 71.808594 26.320312 C 71.742188 26.113281 71.746094 25.910156 71.816406 25.703125 L 72.285156 24.375 C 72.363281 24.144531 72.359375 23.921875 72.273438 23.699219 C 72.183594 23.472656 72.03125 23.304688 71.820312 23.195312 L 70.570312 22.546875 C 70.375 22.445312 70.234375 22.296875 70.140625 22.101562 C 70.046875 21.902344 70.027344 21.699219 70.070312 21.484375 L 70.371094 20.109375 C 70.421875 19.871094 70.390625 19.648438 70.273438 19.4375 C 70.15625 19.226562 69.988281 19.082031 69.761719 18.996094 L 68.441406 18.511719 C 68.238281 18.4375 68.078125 18.304688 67.960938 18.121094 C 67.84375 17.9375 67.792969 17.738281 67.8125 17.519531 L 67.9375 16.117188 C 67.957031 15.878906 67.898438 15.660156 67.753906 15.464844 C 67.613281 15.269531 67.425781 15.144531 67.1875 15.09375 L 65.820312 14.777344 C 65.605469 14.726562 65.433594 14.621094 65.292969 14.453125 C 65.15625 14.285156 65.082031 14.09375 65.070312 13.878906 L 65.019531 12.460938 C 65.011719 12.222656 64.925781 12.015625 64.761719 11.839844 C 64.597656 11.664062 64.394531 11.5625 64.15625 11.539062 L 62.753906 11.390625 C 62.539062 11.367188 62.351562 11.28125 62.195312 11.132812 C 62.035156 10.984375 61.9375 10.800781 61.902344 10.589844 L 61.671875 9.195312 C 61.632812 8.960938 61.523438 8.765625 61.335938 8.609375 C 61.152344 8.457031 60.9375 8.382812 60.699219 8.390625 L 59.292969 8.421875 C 59.074219 8.429688 58.878906 8.367188 58.703125 8.238281 C 58.527344 8.113281 58.40625 7.945312 58.34375 7.734375 L 57.945312 6.386719 C 57.875 6.15625 57.742188 5.976562 57.539062 5.847656 C 57.335938 5.71875 57.113281 5.671875 56.875 5.710938 L 55.480469 5.925781 C 55.265625 5.957031 55.0625 5.921875 54.875 5.816406 C 54.683594 5.710938 54.542969 5.558594 54.457031 5.359375 L 53.886719 4.070312 C 53.792969 3.851562 53.636719 3.691406 53.421875 3.589844 C 53.207031 3.488281 52.984375 3.46875 52.753906 3.53125 L 51.398438 3.914062 C 51.191406 3.972656 50.984375 3.964844 50.78125 3.882812 C 50.578125 3.804688 50.421875 3.667969 50.3125 3.484375 L 49.585938 2.273438 C 49.460938 2.070312 49.289062 1.929688 49.058594 1.855469 C 48.832031 1.78125 48.609375 1.789062 48.390625 1.882812 L 47.09375 2.433594 C 46.894531 2.519531 46.6875 2.535156 46.476562 2.480469 C 46.265625 2.425781 46.09375 2.3125 45.960938 2.140625 L 45.078125 1.03125 C 44.929688 0.84375 44.738281 0.726562 44.5 0.683594 C 44.265625 0.636719 44.042969 0.675781 43.835938 0.796875 L 42.621094 1.503906 C 42.429688 1.613281 42.230469 1.65625 42.015625 1.625 C 41.796875 1.597656 41.613281 1.507812 41.457031 1.355469 L 40.457031 0.363281 C 40.285156 0.195312 40.082031 0.105469 39.839844 0.0898438 C 39.601562 0.0742188 39.386719 0.140625 39.195312 0.285156 L 38.078125 1.140625 C 37.90625 1.273438 37.710938 1.339844 37.492188 1.339844 C 37.273438 1.339844 37.078125 1.273438 36.90625 1.140625 L 35.789062 0.285156 C 35.597656 0.140625 35.382812 0.0742188 35.144531 0.0898438 C 34.90625 0.105469 34.699219 0.195312 34.527344 0.363281 L 33.527344 1.355469 C 33.371094 1.507812 33.1875 1.597656 32.972656 1.625 C 32.753906 1.65625 32.554688 1.613281 32.367188 1.503906 L 31.148438 0.796875 C 30.941406 0.675781 30.71875 0.636719 30.484375 0.683594 C 30.25 0.726562 30.054688 0.84375 29.90625 1.03125 L 29.039062 2.140625 C 28.902344 2.3125 28.730469 2.425781 28.519531 2.480469 C 28.308594 2.535156 28.105469 2.519531 27.902344 2.433594 L 26.609375 1.886719 C 26.386719 1.792969 26.164062 1.78125 25.9375 1.855469 C 25.710938 1.929688 25.535156 2.070312 25.410156 2.277344 L 24.6875 3.484375 C 24.574219 3.671875 24.417969 3.804688 24.214844 3.886719 C 24.011719 3.964844 23.808594 3.976562 23.597656 3.917969 L 22.25 3.53125 C 22.019531 3.464844 21.796875 3.484375 21.578125 3.585938 C 21.363281 3.691406 21.203125 3.851562 21.109375 4.070312 L 20.539062 5.363281 C 20.453125 5.5625 20.3125 5.714844 20.117188 5.820312 C 19.925781 5.925781 19.71875 5.960938 19.503906 5.925781 L 18.113281 5.714844 C 17.875 5.675781 17.652344 5.722656 17.449219 5.851562 C 17.246094 5.980469 17.113281 6.164062 17.042969 6.394531 L 16.644531 7.738281 C 16.582031 7.949219 16.460938 8.117188 16.285156 8.242188 C 16.109375 8.371094 15.914062 8.433594 15.695312 8.425781 L 14.289062 8.394531 C 14.050781 8.386719 13.835938 8.460938 13.652344 8.613281 C 13.464844 8.769531 13.355469 8.964844 13.316406 9.199219 L 13.085938 10.59375 C 13.050781 10.808594 12.953125 10.988281 12.792969 11.136719 C 12.636719 11.285156 12.449219 11.371094 12.230469 11.394531 L 10.832031 11.542969 C 10.59375 11.566406 10.390625 11.667969 10.226562 11.839844 C 10.0625 12.015625 9.972656 12.222656 9.964844 12.460938 L 9.910156 13.871094 C 9.898438 14.089844 9.824219 14.28125 9.6875 14.445312 C 9.546875 14.613281 9.375 14.722656 9.164062 14.769531 L 7.792969 15.085938 C 7.554688 15.140625 7.367188 15.265625 7.226562 15.457031 C 7.082031 15.652344 7.023438 15.871094 7.042969 16.113281 L 7.167969 17.515625 C 7.1875 17.730469 7.136719 17.933594 7.019531 18.117188 C 6.90625 18.300781 6.742188 18.429688 6.539062 18.503906 L 5.21875 18.992188 C 4.992188 19.074219 4.824219 19.222656 4.707031 19.433594 C 4.589844 19.644531 4.558594 19.867188 4.609375 20.101562 L 4.910156 21.480469 C 4.957031 21.691406 4.933594 21.898438 4.839844 22.09375 C 4.746094 22.292969 4.605469 22.441406 4.410156 22.539062 L 3.160156 23.191406 C 2.949219 23.300781 2.796875 23.46875 2.707031 23.691406 C 2.621094 23.914062 2.617188 24.140625 2.695312 24.367188 L 3.164062 25.695312 C 3.234375 25.902344 3.238281 26.109375 3.171875 26.316406 C 3.105469 26.523438 2.980469 26.6875 2.800781 26.8125 L 1.652344 27.617188 C 1.453125 27.753906 1.324219 27.941406 1.265625 28.171875 C 1.207031 28.40625 1.230469 28.628906 1.335938 28.84375 L 1.96875 30.105469 C 2.066406 30.300781 2.09375 30.503906 2.050781 30.71875 C 2.011719 30.933594 1.910156 31.113281 1.746094 31.257812 L 0.699219 32.199219 C 0.519531 32.359375 0.414062 32.554688 0.382812 32.796875 C 0.355469 33.035156 0.40625 33.253906 0.539062 33.453125 L 1.320312 34.625 C 1.441406 34.804688 1.496094 35.003906 1.484375 35.222656 C 1.46875 35.441406 1.390625 35.632812 1.246094 35.796875 L 0.324219 36.859375 C 0.167969 37.042969 0.0859375 37.253906 0.0859375 37.492188 C 0.0859375 37.734375 0.167969 37.945312 0.324219 38.125 L 1.246094 39.1875 C 1.390625 39.355469 1.46875 39.542969 1.484375 39.761719 C 1.496094 39.980469 1.441406 40.179688 1.320312 40.359375 L 0.539062 41.53125 C 0.40625 41.730469 0.351562 41.949219 0.382812 42.1875 C 0.414062 42.429688 0.519531 42.628906 0.695312 42.789062 L 1.746094 43.726562 C 1.90625 43.871094 2.007812 44.050781 2.050781 44.265625 C 2.089844 44.480469 2.0625 44.683594 1.964844 44.878906 L 1.335938 46.140625 C 1.230469 46.355469 1.207031 46.578125 1.265625 46.8125 C 1.324219 47.046875 1.453125 47.230469 1.652344 47.367188 L 2.808594 48.167969 C 2.988281 48.292969 3.113281 48.457031 3.179688 48.664062 C 3.246094 48.871094 3.242188 49.078125 3.171875 49.28125 L 2.703125 50.613281 C 2.625 50.839844 2.628906 51.0625 2.714844 51.289062 C 2.804688 51.511719 2.957031 51.679688 3.167969 51.789062 L 4.417969 52.4375 C 4.613281 52.539062 4.753906 52.6875 4.847656 52.886719 C 4.941406 53.082031 4.964844 53.289062 4.917969 53.5 L 4.617188 54.878906 C 4.566406 55.113281 4.597656 55.335938 4.714844 55.546875 C 4.828125 55.757812 5 55.90625 5.226562 55.988281 L 6.546875 56.476562 C 6.75 56.550781 6.910156 56.679688 7.027344 56.863281 C 7.144531 57.046875 7.191406 57.25 7.175781 57.464844 L 7.050781 58.867188 C 7.03125 59.109375 7.089844 59.328125 7.234375 59.523438 C 7.375 59.714844 7.5625 59.839844 7.800781 59.894531 L 9.167969 60.210938 C 9.382812 60.257812 9.554688 60.367188 9.695312 60.535156 C 9.832031 60.699219 9.90625 60.890625 9.917969 61.109375 L 9.964844 62.523438 C 9.972656 62.761719 10.058594 62.96875 10.222656 63.144531 C 10.386719 63.320312 10.589844 63.421875 10.828125 63.445312 L 12.230469 63.585938 C 12.445312 63.609375 12.632812 63.695312 12.792969 63.84375 C 12.949219 63.992188 13.046875 64.175781 13.082031 64.390625 L 13.3125 65.78125 C 13.351562 66.019531 13.464844 66.214844 13.648438 66.367188 C 13.832031 66.519531 14.046875 66.59375 14.285156 66.589844 L 15.691406 66.554688 C 15.910156 66.550781 16.105469 66.609375 16.28125 66.738281 C 16.457031 66.867188 16.578125 67.035156 16.640625 67.242188 L 17.039062 68.589844 C 17.109375 68.820312 17.246094 69 17.449219 69.128906 C 17.652344 69.257812 17.871094 69.304688 18.109375 69.269531 L 19.5 69.058594 C 19.714844 69.023438 19.917969 69.0625 20.109375 69.164062 C 20.296875 69.269531 20.4375 69.421875 20.523438 69.621094 L 21.09375 70.914062 C 21.191406 71.132812 21.347656 71.292969 21.5625 71.394531 C 21.78125 71.5 22.003906 71.515625 22.238281 71.453125 L 23.582031 71.066406 C 23.792969 71.007812 24 71.019531 24.199219 71.097656 C 24.402344 71.179688 24.558594 71.3125 24.671875 71.5 L 25.394531 72.707031 C 25.519531 72.914062 25.695312 73.050781 25.921875 73.125 C 26.148438 73.199219 26.375 73.191406 26.59375 73.097656 L 27.890625 72.546875 C 28.089844 72.464844 28.296875 72.449219 28.507812 72.503906 C 28.71875 72.558594 28.890625 72.675781 29.023438 72.847656 L 29.890625 73.957031 C 30.039062 74.144531 30.234375 74.261719 30.46875 74.304688 C 30.703125 74.351562 30.925781 74.3125 31.132812 74.191406 L 32.351562 73.484375 C 32.539062 73.375 32.742188 73.332031 32.957031 73.359375 C 33.171875 73.390625 33.355469 73.480469 33.511719 73.632812 L 34.515625 74.621094 C 34.683594 74.792969 34.890625 74.882812 35.128906 74.898438 C 35.371094 74.914062 35.585938 74.847656 35.773438 74.703125 L 36.894531 73.847656 C 37.066406 73.714844 37.261719 73.648438 37.476562 73.648438 C 37.695312 73.648438 37.890625 73.714844 38.0625 73.847656 L 39.179688 74.703125 C 39.371094 74.847656 39.585938 74.914062 39.824219 74.898438 C 40.066406 74.882812 40.269531 74.792969 40.441406 74.621094 L 41.445312 73.632812 C 41.597656 73.480469 41.785156 73.390625 42 73.359375 C 42.214844 73.332031 42.417969 73.375 42.605469 73.484375 L 43.820312 74.191406 C 44.027344 74.3125 44.25 74.351562 44.484375 74.304688 C 44.722656 74.261719 44.914062 74.144531 45.0625 73.957031 L 45.933594 72.847656 C 46.066406 72.675781 46.238281 72.558594 46.449219 72.503906 C 46.660156 72.449219 46.863281 72.464844 47.066406 72.546875 L 48.363281 73.097656 C 48.582031 73.191406 48.804688 73.199219 49.03125 73.125 C 49.261719 73.050781 49.4375 72.914062 49.558594 72.707031 L 50.285156 71.5 C 50.394531 71.3125 50.550781 71.179688 50.753906 71.097656 C 50.957031 71.019531 51.164062 71.007812 51.371094 71.066406 L 52.753906 71.453125 C 52.984375 71.519531 53.207031 71.5 53.425781 71.398438 C 53.644531 71.296875 53.800781 71.136719 53.894531 70.914062 L 54.464844 69.625 C 54.550781 69.425781 54.691406 69.273438 54.882812 69.167969 C 55.070312 69.0625 55.273438 69.027344 55.488281 69.058594 L 56.878906 69.269531 C 57.117188 69.308594 57.339844 69.261719 57.542969 69.132812 C 57.746094 69.003906 57.878906 68.824219 57.949219 68.59375 L 58.351562 67.246094 C 58.410156 67.035156 58.53125 66.867188 58.707031 66.742188 C 58.882812 66.613281 59.078125 66.550781 59.296875 66.558594 L 60.703125 66.59375 C 60.945312 66.597656 61.15625 66.523438 61.339844 66.371094 C 61.527344 66.214844 61.636719 66.019531 61.675781 65.785156 L 61.90625 64.390625 C 61.941406 64.179688 62.039062 63.996094 62.199219 63.847656 C 62.355469 63.699219 62.542969 63.613281 62.761719 63.589844 L 64.160156 63.449219 C 64.398438 63.421875 64.601562 63.320312 64.761719 63.144531 C 64.925781 62.96875 65.011719 62.761719 65.019531 62.523438 L 65.074219 61.113281 C 65.085938 60.898438 65.160156 60.703125 65.296875 60.539062 C 65.4375 60.371094 65.613281 60.265625 65.824219 60.214844 L 67.191406 59.898438 C 67.429688 59.84375 67.617188 59.722656 67.757812 59.527344 C 67.902344 59.332031 67.960938 59.113281 67.941406 58.875 L 67.820312 57.46875 C 67.800781 57.253906 67.847656 57.050781 67.964844 56.867188 C 68.082031 56.683594 68.242188 56.554688 68.445312 56.480469 L 69.765625 55.992188 C 69.992188 55.910156 70.164062 55.761719 70.277344 55.550781 C 70.394531 55.339844 70.425781 55.117188 70.375 54.882812 L 70.078125 53.503906 C 70.03125 53.292969 70.054688 53.085938 70.144531 52.890625 C 70.238281 52.695312 70.382812 52.542969 70.574219 52.445312 L 71.824219 51.796875 C 72.039062 51.683594 72.1875 51.515625 72.277344 51.292969 C 72.363281 51.070312 72.367188 50.84375 72.289062 50.617188 L 71.820312 49.289062 C 71.75 49.082031 71.746094 48.875 71.8125 48.667969 C 71.882812 48.460938 72.003906 48.296875 72.183594 48.171875 L 73.339844 47.371094 C 73.539062 47.234375 73.667969 47.050781 73.726562 46.816406 C 73.789062 46.585938 73.761719 46.359375 73.65625 46.144531 L 73.023438 44.886719 C 72.929688 44.691406 72.898438 44.484375 72.941406 44.273438 C 72.980469 44.058594 73.082031 43.878906 73.246094 43.734375 L 74.292969 42.792969 C 74.472656 42.632812 74.578125 42.429688 74.605469 42.191406 C 74.636719 41.953125 74.582031 41.730469 74.445312 41.53125 L 73.664062 40.359375 C 73.542969 40.179688 73.488281 39.980469 73.503906 39.761719 C 73.515625 39.542969 73.59375 39.355469 73.738281 39.1875 L 74.660156 38.125 C 74.820312 37.945312 74.898438 37.734375 74.898438 37.492188 C 74.898438 37.253906 74.820312 37.042969 74.660156 36.859375 Z M 37.492188 2.78125 C 54.054688 2.78125 67.894531 14.421875 71.324219 29.984375 L 70.515625 29.984375 C 69.808594 26.863281 68.683594 23.902344 67.136719 21.101562 C 65.59375 18.300781 63.691406 15.769531 61.429688 13.507812 C 59.894531 11.96875 58.222656 10.585938 56.421875 9.367188 C 52.722656 6.859375 48.6875 5.160156 44.316406 4.257812 C 39.765625 3.332031 35.21875 3.332031 30.671875 4.257812 C 26.296875 5.160156 22.261719 6.859375 18.5625 9.367188 C 15.839844 11.207031 13.433594 13.398438 11.347656 15.9375 C 9.257812 18.476562 7.574219 21.261719 6.296875 24.289062 C 5.515625 26.132812 4.90625 28.03125 4.46875 29.984375 L 3.660156 29.984375 C 7.089844 14.421875 20.933594 2.78125 37.492188 2.78125 Z M 62.441406 26.933594 C 61.757812 25.316406 60.925781 23.78125 59.941406 22.328125 C 58.476562 20.144531 56.726562 18.21875 54.703125 16.546875 C 52.675781 14.875 50.453125 13.523438 48.03125 12.496094 C 46.363281 11.792969 44.644531 11.261719 42.871094 10.902344 C 41.09375 10.542969 39.304688 10.363281 37.492188 10.363281 C 35.683594 10.363281 33.890625 10.542969 32.117188 10.902344 C 30.34375 11.261719 28.621094 11.792969 26.953125 12.496094 C 25.09375 13.285156 23.34375 14.269531 21.703125 15.453125 C 20.0625 16.632812 18.574219 17.976562 17.234375 19.492188 C 15.894531 21.003906 14.738281 22.644531 13.765625 24.414062 C 12.792969 26.1875 12.027344 28.042969 11.46875 29.984375 L 4.761719 29.984375 C 8.167969 15.039062 21.554688 3.851562 37.492188 3.851562 C 53.429688 3.851562 66.816406 15.039062 70.222656 29.984375 L 63.523438 29.984375 C 63.222656 28.945312 62.863281 27.929688 62.441406 26.933594 Z M 63.121094 29.984375 L 11.863281 29.984375 C 15.109375 18.875 25.375 10.742188 37.492188 10.742188 C 49.609375 10.742188 59.875 18.875 63.121094 29.984375 Z M 37.492188 72.203125 C 20.933594 72.203125 7.089844 60.5625 3.664062 45 L 4.46875 45 C 5.402344 49.128906 7.050781 52.949219 9.417969 56.457031 C 11.875 60.101562 14.925781 63.15625 18.5625 65.621094 C 22.261719 68.125 26.296875 69.824219 30.671875 70.722656 C 35.21875 71.652344 39.765625 71.652344 44.316406 70.722656 C 48.6875 69.824219 52.722656 68.125 56.421875 65.621094 C 59.144531 63.777344 61.550781 61.585938 63.636719 59.046875 C 65.726562 56.507812 67.410156 53.722656 68.6875 50.695312 C 69.46875 48.851562 70.074219 46.953125 70.515625 45 L 71.324219 45 C 67.894531 60.5625 54.054688 72.203125 37.492188 72.203125 Z M 61.617188 45.75 C 61.699219 45.503906 61.785156 45.25 61.859375 45 L 63.121094 45 C 59.875 56.109375 49.609375 64.246094 37.492188 64.246094 C 25.375 64.246094 15.109375 56.109375 11.863281 45 L 61.703125 45 C 61.628906 45.238281 61.554688 45.472656 61.476562 45.703125 Z M 12.546875 48.050781 C 13.226562 49.667969 14.058594 51.203125 15.042969 52.660156 C 16.507812 54.839844 18.257812 56.765625 20.285156 58.4375 C 22.3125 60.109375 24.535156 61.460938 26.953125 62.488281 C 28.621094 63.191406 30.34375 63.722656 32.117188 64.082031 C 33.890625 64.441406 35.683594 64.621094 37.492188 64.621094 C 39.304688 64.621094 41.09375 64.441406 42.871094 64.082031 C 44.644531 63.722656 46.363281 63.191406 48.03125 62.488281 C 49.644531 61.800781 51.179688 60.96875 52.632812 59.988281 C 55.542969 58.015625 57.980469 55.574219 59.941406 52.65625 C 60.925781 51.203125 61.757812 49.664062 62.441406 48.050781 C 62.859375 47.054688 63.21875 46.035156 63.515625 45 L 70.222656 45 C 66.816406 59.949219 53.429688 71.132812 37.492188 71.132812 C 21.554688 71.132812 8.167969 59.949219 4.761719 45 L 11.46875 45 C 11.765625 46.039062 12.125 47.058594 12.546875 48.050781 Z M 72.324219 42.035156 C 72.324219 42.304688 72.273438 42.570312 72.167969 42.820312 C 72.0625 43.074219 71.914062 43.296875 71.722656 43.492188 C 71.527344 43.683594 71.304688 43.832031 71.054688 43.9375 C 70.800781 44.042969 70.539062 44.097656 70.265625 44.097656 L 4.726562 44.097656 C 4.453125 44.097656 4.191406 44.042969 3.9375 43.9375 C 3.6875 43.832031 3.464844 43.683594 3.269531 43.492188 C 3.078125 43.296875 2.929688 43.074219 2.824219 42.820312 C 2.71875 42.570312 2.667969 42.304688 2.667969 42.035156 L 2.667969 32.953125 C 2.667969 32.679688 2.71875 32.414062 2.824219 32.164062 C 2.929688 31.910156 3.078125 31.6875 3.269531 31.496094 C 3.464844 31.300781 3.6875 31.152344 3.9375 31.046875 C 4.191406 30.941406 4.453125 30.890625 4.726562 30.890625 L 70.273438 30.890625 C 70.546875 30.890625 70.808594 30.941406 71.0625 31.046875 C 71.3125 31.152344 71.535156 31.300781 71.730469 31.496094 C 71.921875 31.6875 72.070312 31.910156 72.175781 32.164062 C 72.28125 32.414062 72.332031 32.679688 72.332031 32.953125 Z M 72.324219 42.035156 " fill-opacity="1" fill-rule="nonzero"/><path fill="#000000" d="M 53.957031 63.742188 L 54.644531 63.363281 L 55.34375 63.714844 L 55.199219 62.945312 L 55.75 62.386719 L 54.972656 62.289062 L 54.613281 61.589844 L 54.277344 62.300781 L 53.503906 62.425781 L 54.074219 62.964844 Z M 53.957031 63.742188 " fill-opacity="1" fill-rule="nonzero"/><path fill="#000000" d="M 56.863281 61.136719 L 57.121094 61.664062 L 57.382812 61.136719 L 57.964844 61.050781 L 57.542969 60.640625 L 57.644531 60.0625 L 57.121094 60.335938 L 56.605469 60.0625 L 56.703125 60.640625 L 56.28125 61.050781 Z M 56.863281 61.136719 " fill-opacity="1" fill-rule="nonzero"/><path fill="#000000" d="M 58.96875 58.898438 L 59.167969 59.308594 L 59.371094 58.898438 L 59.824219 58.832031 L 59.496094 58.515625 L 59.574219 58.0625 L 59.167969 58.273438 L 58.765625 58.0625 L 58.84375 58.515625 L 58.515625 58.832031 Z M 58.96875 58.898438 " fill-opacity="1" fill-rule="nonzero"/><path fill="#000000" d="M 19.398438 63.714844 L 20.097656 63.363281 L 20.785156 63.742188 L 20.664062 62.964844 L 21.234375 62.425781 L 20.460938 62.300781 L 20.128906 61.589844 L 19.769531 62.289062 L 18.992188 62.386719 L 19.542969 62.945312 Z M 19.398438 63.714844 " fill-opacity="1" fill-rule="nonzero"/><path fill="#000000" d="M 17.359375 61.136719 L 17.617188 61.664062 L 17.878906 61.136719 L 18.460938 61.050781 L 18.039062 60.640625 L 18.136719 60.0625 L 17.617188 60.335938 L 17.097656 60.0625 L 17.195312 60.640625 L 16.777344 61.050781 Z M 17.359375 61.136719 " fill-opacity="1" fill-rule="nonzero"/><path fill="#000000" d="M 15.570312 59.308594 L 15.773438 58.898438 L 16.226562 58.832031 L 15.898438 58.515625 L 15.976562 58.0625 L 15.570312 58.273438 L 15.167969 58.0625 L 15.242188 58.515625 L 14.917969 58.832031 L 15.367188 58.898438 Z M 15.570312 59.308594 " fill-opacity="1" fill-rule="nonzero"/><path fill="#000000" d="M 20.785156 11.339844 L 20.097656 11.71875 L 19.398438 11.363281 L 19.542969 12.136719 L 18.992188 12.691406 L 19.769531 12.792969 L 20.128906 13.488281 L 20.460938 12.78125 L 21.234375 12.652344 L 20.664062 12.117188 Z M 20.785156 11.339844 " fill-opacity="1" fill-rule="nonzero"/><path fill="#000000" d="M 17.617188 13.414062 L 17.359375 13.941406 L 16.777344 14.027344 L 17.195312 14.4375 L 17.097656 15.019531 L 17.617188 14.746094 L 18.136719 15.019531 L 18.039062 14.4375 L 18.460938 14.027344 L 17.878906 13.941406 Z M 17.617188 13.414062 " fill-opacity="1" fill-rule="nonzero"/><path fill="#000000" d="M 15.773438 16.179688 L 15.570312 15.769531 L 15.367188 16.179688 L 14.917969 16.246094 L 15.242188 16.566406 L 15.167969 17.015625 L 15.570312 16.804688 L 15.976562 17.015625 L 15.898438 16.566406 L 16.226562 16.246094 Z M 15.773438 16.179688 " fill-opacity="1" fill-rule="nonzero"/><path fill="#000000" d="M 55.15625 11.324219 L 54.457031 11.679688 L 53.769531 11.300781 L 53.886719 12.078125 L 53.320312 12.613281 L 54.089844 12.742188 L 54.425781 13.453125 L 54.785156 12.753906 L 55.5625 12.652344 L 55.011719 12.097656 Z M 55.15625 11.324219 " fill-opacity="1" fill-rule="nonzero"/><path fill="#000000" d="M 57.195312 13.90625 L 56.9375 13.375 L 56.675781 13.90625 L 56.09375 13.988281 L 56.515625 14.398438 L 56.417969 14.980469 L 56.9375 14.707031 L 57.457031 14.980469 L 57.355469 14.398438 L 57.777344 13.988281 Z M 57.195312 13.90625 " fill-opacity="1" fill-rule="nonzero"/><path fill="#000000" d="M 59.183594 16.140625 L 58.984375 15.730469 L 58.78125 16.140625 L 58.328125 16.207031 L 58.65625 16.527344 L 58.578125 16.980469 L 58.984375 16.765625 L 59.386719 16.980469 L 59.308594 16.527344 L 59.636719 16.207031 Z M 59.183594 16.140625 " fill-opacity="1" fill-rule="nonzero"/><path fill="#000000" d="M 37.492188 13.375 C 36.28125 13.378906 35.078125 13.46875 33.882812 13.648438 C 32.6875 13.832031 31.511719 14.101562 30.355469 14.460938 C 29.199219 14.820312 28.078125 15.265625 26.988281 15.792969 C 25.902344 16.320312 24.859375 16.929688 23.863281 17.613281 C 22.863281 18.300781 21.925781 19.054688 21.042969 19.882812 C 20.160156 20.710938 19.34375 21.597656 18.59375 22.550781 C 17.84375 23.5 17.171875 24.5 16.574219 25.550781 C 15.976562 26.605469 15.460938 27.695312 15.027344 28.824219 L 59.960938 28.824219 C 59.527344 27.695312 59.011719 26.605469 58.410156 25.550781 C 57.8125 24.5 57.140625 23.5 56.390625 22.550781 C 55.640625 21.597656 54.828125 20.710938 53.941406 19.882812 C 53.058594 19.054688 52.121094 18.300781 51.125 17.613281 C 50.125 16.929688 49.082031 16.320312 47.996094 15.792969 C 46.90625 15.265625 45.785156 14.820312 44.628906 14.460938 C 43.472656 14.101562 42.296875 13.832031 41.101562 13.648438 C 39.90625 13.46875 38.703125 13.378906 37.492188 13.375 Z M 39.167969 23.789062 L 37.449219 22.84375 L 35.695312 23.726562 L 36.0625 21.800781 L 34.683594 20.40625 L 36.628906 20.15625 L 37.527344 18.414062 L 38.363281 20.1875 L 40.292969 20.503906 L 38.867188 21.847656 Z M 39.167969 23.789062 " fill-opacity="1" fill-rule="nonzero"/><path fill="#000000" d="M 37.492188 61.609375 C 38.707031 61.609375 39.910156 61.515625 41.109375 61.332031 C 42.308594 61.148438 43.488281 60.878906 44.644531 60.515625 C 45.804688 60.15625 46.929688 59.710938 48.019531 59.179688 C 49.109375 58.648438 50.152344 58.039062 51.152344 57.347656 C 52.152344 56.660156 53.09375 55.902344 53.976562 55.070312 C 54.859375 54.238281 55.675781 53.347656 56.425781 52.394531 C 57.171875 51.4375 57.847656 50.433594 58.445312 49.378906 C 59.039062 48.320312 59.554688 47.226562 59.988281 46.09375 L 15 46.09375 C 15.429688 47.226562 15.945312 48.320312 16.542969 49.378906 C 17.136719 50.433594 17.8125 51.4375 18.558594 52.394531 C 19.308594 53.347656 20.125 54.238281 21.007812 55.070312 C 21.894531 55.902344 22.835938 56.660156 23.832031 57.347656 C 24.832031 58.039062 25.875 58.648438 26.964844 59.179688 C 28.058594 59.710938 29.179688 60.15625 30.339844 60.515625 C 31.496094 60.878906 32.675781 61.148438 33.875 61.332031 C 35.074219 61.515625 36.28125 61.609375 37.492188 61.609375 Z M 36.628906 52.902344 L 37.527344 51.15625 L 38.363281 52.933594 L 40.296875 53.25 L 38.871094 54.597656 L 39.171875 56.539062 L 37.449219 55.59375 L 35.695312 56.476562 L 36.066406 54.546875 L 34.6875 53.152344 Z M 36.628906 52.902344 " fill-opacity="1" fill-rule="nonzero"/><path fill="#000000" d="M 30.042969 66.054688 L 30.214844 65.496094 L 27.941406 64.796875 L 27.027344 67.804688 L 29.351562 68.515625 L 29.519531 67.957031 L 27.886719 67.457031 L 28.101562 66.761719 L 29.496094 67.1875 L 29.660156 66.648438 L 28.265625 66.222656 L 28.464844 65.570312 Z M 30.042969 66.054688 " fill-opacity="1" fill-rule="nonzero"/><path fill="#000000" d="M 33.019531 66.066406 L 32.140625 66.9375 L 31.613281 65.804688 L 30.800781 65.65625 L 31.609375 67.371094 L 30.179688 68.734375 L 31 68.886719 L 31.929688 67.949219 L 32.476562 69.160156 L 33.304688 69.3125 L 32.441406 67.5 L 33.792969 66.207031 Z M 33.019531 66.066406 " fill-opacity="1" fill-rule="nonzero"/><path fill="#000000" d="M 36.53125 66.542969 C 36.304688 66.429688 36.066406 66.371094 35.816406 66.363281 L 34.457031 66.277344 L 34.265625 69.417969 L 34.988281 69.464844 L 35.042969 68.597656 L 35.675781 68.636719 C 35.925781 68.660156 36.171875 68.628906 36.40625 68.546875 C 36.609375 68.476562 36.773438 68.355469 36.902344 68.183594 C 37.03125 68.007812 37.097656 67.808594 37.105469 67.585938 C 37.125 67.367188 37.082031 67.160156 36.976562 66.96875 C 36.871094 66.78125 36.722656 66.640625 36.53125 66.542969 Z M 36.179688 67.925781 C 36.023438 68.027344 35.855469 68.066406 35.671875 68.039062 L 35.078125 68 L 35.148438 66.910156 L 35.746094 66.949219 C 35.929688 66.949219 36.09375 67.003906 36.238281 67.125 C 36.351562 67.238281 36.398438 67.378906 36.378906 67.539062 C 36.375 67.699219 36.308594 67.828125 36.179688 67.925781 Z M 36.179688 67.925781 " fill-opacity="1" fill-rule="nonzero"/><path fill="#000000" d="M 38.863281 68.945312 L 38.820312 68.21875 L 40.273438 68.136719 L 40.242188 67.570312 L 38.789062 67.652344 L 38.75 66.972656 L 40.398438 66.878906 L 40.363281 66.296875 L 37.992188 66.429688 L 38.171875 69.566406 L 40.601562 69.429688 L 40.570312 68.847656 Z M 38.863281 68.945312 " fill-opacity="1" fill-rule="nonzero"/><path fill="#000000" d="M 43.722656 67.921875 C 43.90625 67.804688 44.039062 67.648438 44.121094 67.449219 C 44.203125 67.25 44.21875 67.042969 44.171875 66.832031 C 44.140625 66.613281 44.050781 66.425781 43.902344 66.261719 C 43.753906 66.109375 43.574219 66.007812 43.367188 65.960938 C 43.121094 65.90625 42.875 65.90625 42.628906 65.953125 L 41.28125 66.195312 L 41.839844 69.289062 L 42.554688 69.160156 L 42.402344 68.296875 L 43.027344 68.1875 L 43.058594 68.179688 L 43.808594 68.9375 L 44.578125 68.796875 L 43.710938 67.929688 Z M 42.695312 66.539062 C 42.875 66.496094 43.050781 66.511719 43.214844 66.59375 C 43.34375 66.683594 43.421875 66.804688 43.453125 66.960938 C 43.480469 67.117188 43.449219 67.257812 43.359375 67.386719 C 43.230469 67.523438 43.074219 67.601562 42.890625 67.621094 L 42.308594 67.722656 L 42.113281 66.644531 Z M 42.695312 66.539062 " fill-opacity="1" fill-rule="nonzero"/><path fill="#000000" d="M 47.0625 64.804688 L 44.441406 65.59375 L 44.613281 66.160156 L 45.574219 65.871094 L 46.3125 68.3125 L 47.007812 68.105469 L 46.273438 65.664062 L 47.234375 65.375 Z M 47.0625 64.804688 " fill-opacity="1" fill-rule="nonzero"/><path fill="#000000" d="M 30.300781 9.789062 L 30.132812 9.230469 L 28.496094 9.730469 L 28.285156 9.039062 L 29.679688 8.609375 L 29.515625 8.070312 L 28.117188 8.496094 L 27.917969 7.84375 L 29.5 7.359375 L 29.328125 6.804688 L 27.058594 7.5 L 27.976562 10.503906 Z M 30.300781 9.789062 " fill-opacity="1" fill-rule="nonzero"/><path fill="#000000" d="M 33.355469 6.007812 L 32.578125 6.144531 L 32.050781 7.265625 L 31.171875 6.386719 L 30.359375 6.527344 L 31.703125 7.859375 L 30.832031 9.632812 L 31.652344 9.488281 L 32.203125 8.285156 L 33.132812 9.234375 L 33.960938 9.09375 L 32.53125 7.691406 Z M 33.355469 6.007812 " fill-opacity="1" fill-rule="nonzero"/><path fill="#000000" d="M 36.527344 5.90625 C 36.289062 5.820312 36.042969 5.789062 35.792969 5.808594 L 34.4375 5.886719 L 34.609375 9.027344 L 35.335938 8.988281 L 35.289062 8.121094 L 35.917969 8.085938 C 36.171875 8.078125 36.410156 8.019531 36.636719 7.910156 C 36.828125 7.8125 36.980469 7.675781 37.085938 7.488281 C 37.304688 7.070312 37.28125 6.667969 37.019531 6.277344 C 36.894531 6.101562 36.730469 5.980469 36.527344 5.90625 Z M 36.339844 7.320312 C 36.195312 7.4375 36.03125 7.496094 35.847656 7.492188 L 35.25 7.527344 L 35.1875 6.4375 L 35.785156 6.402344 C 35.972656 6.378906 36.140625 6.421875 36.296875 6.523438 C 36.421875 6.625 36.484375 6.753906 36.484375 6.917969 C 36.5 7.074219 36.453125 7.207031 36.339844 7.320312 Z M 36.339844 7.320312 " fill-opacity="1" fill-rule="nonzero"/><path fill="#000000" d="M 38.203125 8.894531 L 40.632812 9.054688 L 40.671875 8.472656 L 38.964844 8.359375 L 39.011719 7.632812 L 40.46875 7.730469 L 40.503906 7.164062 L 39.050781 7.070312 L 39.097656 6.386719 L 40.742188 6.496094 L 40.78125 5.914062 L 38.414062 5.757812 Z M 38.203125 8.894531 " fill-opacity="1" fill-rule="nonzero"/><path fill="#000000" d="M 42.441406 8.453125 L 43.0625 8.574219 L 43.09375 8.574219 L 43.519531 9.546875 L 44.292969 9.699219 L 43.792969 8.574219 C 44.003906 8.53125 44.183594 8.433594 44.332031 8.285156 C 44.484375 8.125 44.578125 7.9375 44.613281 7.71875 C 44.660156 7.503906 44.644531 7.296875 44.566406 7.089844 C 44.484375 6.894531 44.355469 6.734375 44.179688 6.613281 C 43.96875 6.476562 43.738281 6.386719 43.492188 6.34375 L 42.15625 6.085938 L 41.558594 9.171875 L 42.269531 9.308594 Z M 43.804688 7.15625 C 43.894531 7.285156 43.921875 7.429688 43.894531 7.582031 C 43.863281 7.734375 43.785156 7.859375 43.65625 7.949219 C 43.488281 8.027344 43.316406 8.046875 43.136719 7.996094 L 42.554688 7.882812 L 42.761719 6.808594 L 43.34375 6.921875 C 43.527344 6.941406 43.679688 7.023438 43.804688 7.15625 Z M 43.804688 7.15625 " fill-opacity="1" fill-rule="nonzero"/><path fill="#000000" d="M 45.710938 6.832031 L 45.53125 7.398438 L 46.488281 7.703125 L 45.714844 10.132812 L 46.40625 10.351562 L 47.179688 7.921875 L 48.140625 8.230469 L 48.320312 7.664062 Z M 45.710938 6.832031 " fill-opacity="1" fill-rule="nonzero"/><path fill="#000000" d="M 34.886719 35.824219 C 34.664062 35.632812 34.328125 35.535156 33.878906 35.535156 L 32.695312 35.535156 L 32.695312 37.71875 L 33.878906 37.71875 C 34.328125 37.71875 34.664062 37.621094 34.886719 37.429688 C 35.125 37.214844 35.234375 36.949219 35.21875 36.628906 C 35.234375 36.308594 35.125 36.039062 34.886719 35.824219 Z M 34.886719 35.824219 " fill-opacity="1" fill-rule="nonzero"/><path fill="#000000" d="M 49.183594 35.824219 C 48.964844 35.632812 48.628906 35.535156 48.179688 35.535156 L 46.996094 35.535156 L 46.996094 37.726562 L 48.179688 37.726562 C 48.628906 37.726562 48.964844 37.628906 49.183594 37.433594 C 49.289062 37.328125 49.371094 37.203125 49.429688 37.0625 C 49.488281 36.925781 49.515625 36.78125 49.515625 36.628906 C 49.515625 36.476562 49.488281 36.332031 49.429688 36.191406 C 49.371094 36.054688 49.289062 35.929688 49.183594 35.824219 Z M 49.183594 35.824219 " fill-opacity="1" fill-rule="nonzero"/><path fill="#000000" d="M 70.265625 31.265625 L 4.726562 31.265625 C 4.503906 31.265625 4.289062 31.308594 4.082031 31.394531 C 3.875 31.480469 3.695312 31.601562 3.535156 31.757812 C 3.378906 31.917969 3.257812 32.101562 3.171875 32.304688 C 3.085938 32.511719 3.042969 32.726562 3.042969 32.953125 L 3.042969 42.035156 C 3.042969 42.257812 3.085938 42.472656 3.171875 42.679688 C 3.257812 42.886719 3.378906 43.066406 3.535156 43.226562 C 3.695312 43.382812 3.875 43.503906 4.082031 43.589844 C 4.289062 43.675781 4.503906 43.71875 4.726562 43.722656 L 70.273438 43.722656 C 70.496094 43.71875 70.710938 43.675781 70.917969 43.589844 C 71.125 43.503906 71.304688 43.382812 71.464844 43.226562 C 71.621094 43.066406 71.742188 42.886719 71.828125 42.679688 C 71.914062 42.472656 71.957031 42.257812 71.957031 42.035156 L 71.957031 32.953125 C 71.957031 32.726562 71.914062 32.511719 71.828125 32.304688 C 71.742188 32.097656 71.621094 31.914062 71.460938 31.757812 C 71.300781 31.597656 71.121094 31.476562 70.914062 31.390625 C 70.703125 31.304688 70.488281 31.261719 70.265625 31.265625 Z M 22.136719 40.632812 L 17.273438 40.632812 L 17.273438 34.351562 L 22.019531 34.351562 L 22.019531 35.519531 L 18.71875 35.519531 L 18.71875 36.882812 L 21.632812 36.882812 L 21.632812 38.011719 L 18.714844 38.011719 L 18.714844 39.46875 L 22.136719 39.46875 Z M 28.089844 40.632812 L 26.570312 38.449219 L 25.074219 40.632812 L 23.414062 40.632812 L 25.734375 37.433594 L 23.53125 34.351562 L 25.175781 34.351562 L 26.617188 36.386719 L 28.03125 34.351562 L 29.609375 34.351562 L 27.421875 37.386719 L 29.769531 40.632812 Z M 36.355469 37.84375 C 36.121094 38.199219 35.808594 38.460938 35.414062 38.628906 C 34.949219 38.824219 34.464844 38.914062 33.960938 38.902344 L 32.695312 38.902344 L 32.695312 40.632812 L 31.242188 40.632812 L 31.242188 34.351562 L 33.960938 34.351562 C 34.464844 34.339844 34.949219 34.429688 35.414062 34.625 C 35.808594 34.792969 36.121094 35.054688 36.355469 35.410156 C 36.578125 35.785156 36.6875 36.191406 36.6875 36.625 C 36.6875 37.0625 36.578125 37.46875 36.355469 37.84375 Z M 43.484375 40.632812 L 38.617188 40.632812 L 38.617188 34.351562 L 43.367188 34.351562 L 43.367188 35.519531 L 40.0625 35.519531 L 40.0625 36.882812 L 42.980469 36.882812 L 42.980469 38.011719 L 40.0625 38.011719 L 40.0625 39.46875 L 43.484375 39.46875 Z M 49.535156 40.632812 L 48.328125 38.882812 L 46.996094 38.882812 L 46.996094 40.632812 L 45.539062 40.632812 L 45.539062 34.351562 L 48.265625 34.351562 C 48.769531 34.339844 49.253906 34.429688 49.71875 34.625 C 50.113281 34.792969 50.425781 35.054688 50.660156 35.410156 C 50.894531 35.785156 51.003906 36.191406 50.992188 36.628906 C 51.003906 37.066406 50.894531 37.46875 50.660156 37.839844 C 50.425781 38.191406 50.109375 38.449219 49.71875 38.613281 L 49.707031 38.613281 L 51.105469 40.632812 Z M 57.710938 35.535156 L 55.703125 35.535156 L 55.703125 40.632812 L 54.25 40.632812 L 54.25 35.535156 L 52.238281 35.535156 L 52.238281 34.351562 L 57.710938 34.351562 Z M 57.710938 35.535156 " fill-opacity="1" fill-rule="nonzero"/></svg>