<svg xmlns="http://www.w3.org/2000/svg" xmlns:xlink="http://www.w3.org/1999/xlink" width="100" zoomAndPan="magnify" viewBox="0 0 75 74.999997" height="100" preserveAspectRatio="xMidYMid meet" version="1.0"><defs><clipPath id="08cc7dd109"><path d="M 4.96875 0 L 67.21875 0 L 67.21875 75 L 4.96875 75 Z M 4.96875 0 " clip-rule="nonzero"/></clipPath></defs><path fill="#211d1d" d="M 36.234375 1.25 L 6.234375 11.25 L 6.234375 30.9375 C 6.234375 47.988281 15.859375 63.5625 31.105469 71.1875 L 36.234375 73.75 L 41.355469 71.1875 C 56.609375 63.5625 66.234375 47.988281 66.234375 30.9375 L 66.234375 11.25 L 36.234375 1.25 " fill-opacity="1" fill-rule="nonzero"/><path fill="#ffffff" d="M 36.234375 1.25 L 36.234375 73.75 L 41.355469 71.1875 C 56.609375 63.5625 66.234375 47.988281 66.234375 30.9375 L 66.234375 11.25 L 36.234375 1.25 " fill-opacity="1" fill-rule="nonzero"/><path fill="#ffffff" d="M 36.234375 9.148438 L 13.734375 16.648438 L 13.734375 30.9375 C 13.734375 45.238281 21.671875 58.085938 34.460938 64.476562 L 36.234375 65.359375 L 38.007812 64.476562 C 50.800781 58.085938 58.734375 45.238281 58.734375 30.9375 L 58.734375 16.648438 L 36.234375 9.148438 " fill-opacity="1" fill-rule="nonzero"/><path fill="#211d1d" d="M 36.234375 9.148438 L 36.234375 65.359375 L 38.007812 64.476562 C 50.800781 58.085938 58.734375 45.238281 58.734375 30.9375 L 58.734375 16.648438 L 36.234375 9.148438 " fill-opacity="1" fill-rule="nonzero"/><path fill="#fab800" d="M 52.140625 29.089844 L 48.605469 25.554688 L 33.734375 40.429688 L 26.664062 33.359375 L 23.128906 36.894531 L 33.734375 47.5 L 52.140625 29.089844 " fill-opacity="1" fill-rule="nonzero"/><g clip-path="url(#08cc7dd109)"><path fill="#211d1d" d="M 7.484375 12.148438 L 7.484375 30.9375 C 7.484375 47.617188 16.75 62.613281 31.667969 70.066406 L 36.234375 72.351562 L 40.800781 70.066406 C 55.714844 62.613281 64.984375 47.617188 64.984375 30.9375 L 64.984375 12.148438 L 36.234375 2.566406 Z M 36.234375 75 C 36.042969 75 35.851562 74.957031 35.671875 74.867188 L 30.550781 72.304688 C 14.777344 64.417969 4.984375 48.570312 4.984375 30.9375 L 4.984375 11.25 C 4.984375 10.710938 5.328125 10.234375 5.839844 10.0625 L 35.839844 0.0625 C 36.097656 -0.0195312 36.371094 -0.0195312 36.628906 0.0625 L 66.628906 10.0625 C 67.136719 10.234375 67.484375 10.710938 67.484375 11.25 L 67.484375 30.9375 C 67.484375 48.570312 57.6875 64.417969 41.917969 72.304688 L 36.796875 74.867188 C 36.613281 74.957031 36.425781 75 36.234375 75 " fill-opacity="1" fill-rule="nonzero"/></g><path fill="#211d1d" d="M 14.984375 17.558594 L 14.984375 30.9375 C 14.984375 44.753906 22.664062 57.183594 35.023438 63.359375 L 36.234375 63.964844 L 37.445312 63.359375 C 49.804688 57.183594 57.484375 44.753906 57.484375 30.9375 L 57.484375 17.558594 L 36.234375 10.472656 Z M 36.234375 66.617188 C 36.042969 66.617188 35.851562 66.570312 35.671875 66.484375 L 33.90625 65.59375 C 20.691406 58.992188 12.484375 45.710938 12.484375 30.9375 L 12.484375 16.65625 C 12.484375 16.117188 12.832031 15.640625 13.339844 15.46875 L 35.839844 7.96875 C 36.097656 7.886719 36.371094 7.886719 36.628906 7.96875 L 59.128906 15.46875 C 59.636719 15.640625 59.984375 16.117188 59.984375 16.65625 L 59.984375 30.9375 C 59.984375 45.710938 51.777344 58.992188 38.5625 65.59375 L 36.796875 66.484375 C 36.613281 66.570312 36.425781 66.617188 36.234375 66.617188 " fill-opacity="1" fill-rule="nonzero"/><path fill="#211d1d" d="M 24.894531 36.894531 L 33.734375 45.730469 L 50.375 29.089844 L 48.605469 27.324219 L 34.617188 41.3125 C 34.128906 41.800781 33.339844 41.800781 32.851562 41.3125 L 26.664062 35.125 Z M 33.734375 48.75 C 33.402344 48.75 33.085938 48.617188 32.851562 48.382812 L 22.246094 37.777344 C 22.011719 37.542969 21.878906 37.226562 21.878906 36.894531 C 21.878906 36.5625 22.011719 36.246094 22.246094 36.011719 L 25.78125 32.476562 C 26.269531 31.988281 27.058594 31.988281 27.546875 32.476562 L 33.734375 38.660156 L 47.722656 24.671875 C 48.210938 24.183594 49.003906 24.183594 49.492188 24.671875 L 53.027344 28.207031 C 53.515625 28.695312 53.515625 29.488281 53.027344 29.976562 L 34.617188 48.382812 C 34.382812 48.617188 34.066406 48.75 33.734375 48.75 " fill-opacity="1" fill-rule="nonzero"/></svg>