<svg xmlns="http://www.w3.org/2000/svg" xmlns:xlink="http://www.w3.org/1999/xlink" width="100" zoomAndPan="magnify" viewBox="0 0 75 74.999997" height="100" preserveAspectRatio="xMidYMid meet" version="1.0"><defs><clipPath id="6f76bcdd5c"><path d="M 3.601562 24.148438 L 70.949219 24.148438 L 70.949219 34.949219 L 3.601562 34.949219 Z M 3.601562 24.148438 " clip-rule="nonzero"/></clipPath><clipPath id="b7405effaa"><path d="M 3 1 L 71 1 L 71 25 L 3 25 Z M 3 1 " clip-rule="nonzero"/></clipPath><clipPath id="e6fd5eddc9"><path d="M 3.070312 14.972656 L 69.125 1.839844 L 70.949219 11.015625 L 4.894531 24.148438 Z M 3.070312 14.972656 " clip-rule="nonzero"/></clipPath><clipPath id="3be8aca176"><path d="M 3.070312 14.972656 L 69.125 1.839844 L 70.949219 11.015625 L 4.894531 24.148438 Z M 3.070312 14.972656 " clip-rule="nonzero"/></clipPath><clipPath id="b3daa21ae5"><path d="M 3.410156 32.566406 L 71.589844 32.566406 L 71.589844 72.71875 L 3.410156 72.71875 Z M 3.410156 32.566406 " clip-rule="nonzero"/></clipPath><clipPath id="8e1f24127d"><path d="M 7.160156 32.566406 L 67.839844 32.566406 C 69.910156 32.566406 71.589844 34.242188 71.589844 36.316406 L 71.589844 68.96875 C 71.589844 71.039062 69.910156 72.71875 67.839844 72.71875 L 7.160156 72.71875 C 5.089844 72.71875 3.410156 71.039062 3.410156 68.96875 L 3.410156 36.316406 C 3.410156 34.242188 5.089844 32.566406 7.160156 32.566406 Z M 7.160156 32.566406 " clip-rule="nonzero"/></clipPath><clipPath id="0cdce48394"><path d="M 30.683594 42.761719 L 47.933594 42.761719 L 47.933594 62.261719 L 30.683594 62.261719 Z M 30.683594 42.761719 " clip-rule="nonzero"/></clipPath><clipPath id="69174efe27"><path d="M 28.898438 41 L 52 41 L 52 64.667969 L 28.898438 64.667969 Z M 28.898438 41 " clip-rule="nonzero"/></clipPath></defs><g clip-path="url(#6f76bcdd5c)"><path fill="#fab800" d="M 3.601562 24.148438 L 70.949219 24.148438 L 70.949219 34.949219 L 3.601562 34.949219 Z M 3.601562 24.148438 " fill-opacity="1" fill-rule="nonzero"/></g><g clip-path="url(#b7405effaa)"><g clip-path="url(#e6fd5eddc9)"><g clip-path="url(#3be8aca176)"><path fill="#fab800" d="M 3.070312 14.972656 L 69.125 1.839844 L 70.949219 11.015625 L 4.894531 24.148438 Z M 3.070312 14.972656 " fill-opacity="1" fill-rule="nonzero"/></g></g></g><g clip-path="url(#b3daa21ae5)"><g clip-path="url(#8e1f24127d)"><path fill="#000000" d="M 3.410156 32.566406 L 71.589844 32.566406 L 71.589844 72.71875 L 3.410156 72.71875 Z M 3.410156 32.566406 " fill-opacity="1" fill-rule="nonzero"/></g></g><path fill="#000000" d="M 72.742188 21.925781 L 20.683594 21.925781 L 71.839844 12.257812 C 72.042969 12.222656 72.234375 12.144531 72.40625 12.03125 C 72.582031 11.917969 72.726562 11.777344 72.84375 11.605469 C 72.960938 11.433594 73.042969 11.246094 73.085938 11.042969 C 73.125 10.839844 73.128906 10.636719 73.089844 10.433594 L 71.34375 1.226562 C 71.304688 1.019531 71.230469 0.832031 71.117188 0.65625 C 71.003906 0.484375 70.863281 0.339844 70.691406 0.222656 C 70.519531 0.105469 70.332031 0.0234375 70.128906 -0.0195312 C 69.925781 -0.0625 69.722656 -0.0625 69.519531 -0.0234375 L 1.964844 12.742188 C 1.761719 12.777344 1.574219 12.855469 1.398438 12.96875 C 1.226562 13.082031 1.078125 13.222656 0.960938 13.394531 C 0.84375 13.566406 0.765625 13.753906 0.722656 13.957031 C 0.679688 14.160156 0.675781 14.363281 0.714844 14.566406 L 2.429688 23.628906 L 2.429688 67.710938 C 2.429688 68.191406 2.476562 68.667969 2.570312 69.140625 C 2.664062 69.613281 2.804688 70.070312 2.988281 70.515625 C 3.175781 70.960938 3.398438 71.386719 3.667969 71.785156 C 3.9375 72.1875 4.238281 72.554688 4.582031 72.898438 C 4.921875 73.238281 5.292969 73.542969 5.691406 73.808594 C 6.09375 74.078125 6.515625 74.304688 6.960938 74.488281 C 7.40625 74.671875 7.863281 74.8125 8.335938 74.90625 C 8.808594 75 9.285156 75.050781 9.769531 75.050781 L 66.957031 75.050781 C 67.4375 75.050781 67.914062 75 68.386719 74.90625 C 68.859375 74.8125 69.316406 74.671875 69.761719 74.488281 C 70.207031 74.304688 70.628906 74.078125 71.03125 73.808594 C 71.429688 73.542969 71.800781 73.238281 72.140625 72.898438 C 72.480469 72.554688 72.785156 72.183594 73.054688 71.785156 C 73.320312 71.382812 73.546875 70.960938 73.730469 70.515625 C 73.914062 70.070312 74.054688 69.613281 74.148438 69.140625 C 74.242188 68.667969 74.289062 68.191406 74.289062 67.710938 L 74.289062 23.488281 C 74.289062 23.28125 74.25 23.082031 74.171875 22.894531 C 74.09375 22.703125 73.984375 22.535156 73.839844 22.386719 C 73.695312 22.242188 73.527344 22.128906 73.335938 22.046875 C 73.148438 21.96875 72.949219 21.925781 72.742188 21.925781 Z M 71.179688 31.300781 L 67.332031 31.300781 L 63.164062 25.050781 L 71.179688 25.050781 Z M 54.832031 31.300781 L 50.664062 25.050781 L 59.414062 25.050781 L 63.582031 31.300781 Z M 42.332031 31.300781 L 38.164062 25.050781 L 46.914062 25.050781 L 51.082031 31.300781 Z M 29.832031 31.300781 L 25.664062 25.050781 L 34.414062 25.050781 L 38.582031 31.300781 Z M 17.332031 31.300781 L 13.164062 25.050781 L 21.914062 25.050781 L 26.082031 31.300781 Z M 20.148438 12.5 L 25.402344 17.867188 L 16.808594 19.492188 L 11.5625 14.109375 Z M 32.429688 10.179688 L 37.6875 15.53125 L 29.09375 17.15625 L 23.835938 11.789062 Z M 44.710938 7.859375 L 49.964844 13.226562 L 41.378906 14.851562 L 36.121094 9.46875 Z M 56.996094 5.539062 L 62.25 10.894531 L 53.65625 12.515625 L 48.402344 7.148438 Z M 5.554688 25.050781 L 9.410156 25.050781 L 13.574219 31.300781 L 5.554688 31.300781 Z M 69.726562 9.480469 L 65.9375 10.195312 L 60.6875 4.824219 L 68.5625 3.335938 Z M 7.851562 14.792969 L 13.125 20.171875 L 5.246094 21.664062 L 4.082031 15.519531 Z M 66.972656 71.925781 L 9.773438 71.925781 C 9.496094 71.925781 9.222656 71.898438 8.949219 71.84375 C 8.679688 71.789062 8.414062 71.707031 8.160156 71.601562 C 7.902344 71.496094 7.660156 71.367188 7.429688 71.210938 C 7.203125 71.058594 6.988281 70.882812 6.792969 70.6875 C 6.597656 70.492188 6.421875 70.28125 6.269531 70.050781 C 6.113281 69.820312 5.984375 69.578125 5.878906 69.320312 C 5.773438 69.066406 5.691406 68.800781 5.636719 68.53125 C 5.585938 68.261719 5.558594 67.984375 5.554688 67.710938 L 5.554688 34.425781 L 71.179688 34.425781 L 71.179688 67.710938 C 71.179688 67.984375 71.152344 68.261719 71.101562 68.53125 C 71.046875 68.800781 70.964844 69.066406 70.859375 69.320312 C 70.753906 69.578125 70.625 69.820312 70.472656 70.050781 C 70.320312 70.28125 70.144531 70.492188 69.949219 70.6875 C 69.753906 70.882812 69.539062 71.058594 69.3125 71.210938 C 69.082031 71.367188 68.839844 71.496094 68.582031 71.601562 C 68.328125 71.707031 68.066406 71.789062 67.792969 71.84375 C 67.523438 71.898438 67.25 71.925781 66.972656 71.925781 Z M 66.972656 71.925781 " fill-opacity="1" fill-rule="nonzero"/><path fill="#000000" d="M 32.921875 40.898438 C 32.679688 40.753906 32.417969 40.679688 32.136719 40.675781 C 31.855469 40.671875 31.59375 40.738281 31.347656 40.878906 C 31.105469 41.015625 30.910156 41.207031 30.769531 41.449219 C 30.628906 41.695312 30.554688 41.957031 30.554688 42.238281 L 30.554688 64.113281 C 30.554688 64.320312 30.597656 64.519531 30.675781 64.710938 C 30.753906 64.902344 30.867188 65.070312 31.015625 65.21875 C 31.160156 65.363281 31.328125 65.476562 31.519531 65.554688 C 31.710938 65.636719 31.910156 65.675781 32.117188 65.675781 C 32.40625 65.675781 32.675781 65.597656 32.921875 65.449219 L 51.148438 54.511719 C 51.265625 54.441406 51.371094 54.359375 51.464844 54.261719 C 51.558594 54.167969 51.636719 54.058594 51.703125 53.941406 C 51.769531 53.824219 51.820312 53.703125 51.855469 53.570312 C 51.890625 53.441406 51.90625 53.308594 51.90625 53.171875 C 51.90625 53.039062 51.890625 52.90625 51.855469 52.777344 C 51.820312 52.644531 51.769531 52.523438 51.703125 52.402344 C 51.636719 52.285156 51.558594 52.179688 51.464844 52.082031 C 51.371094 51.988281 51.265625 51.902344 51.148438 51.835938 Z M 33.679688 61.351562 L 33.679688 45 L 47.3125 53.179688 Z M 33.679688 61.351562 " fill-opacity="1" fill-rule="nonzero"/><g clip-path="url(#0cdce48394)"><path fill="#ffffff" d="M 47.933594 52.636719 L 30.84375 42.769531 L 30.84375 62.503906 Z M 47.933594 52.636719 " fill-opacity="1" fill-rule="nonzero"/></g><g clip-path="url(#69174efe27)"><path fill="#fab800" d="M 28.609375 52.636719 C 28.609375 49.386719 28.609375 46.136719 28.609375 42.882812 C 28.609375 41.449219 29.917969 40.667969 31.199219 41.324219 C 32.71875 42.097656 34.246094 42.863281 35.769531 43.628906 C 37.359375 44.433594 38.953125 45.234375 40.542969 46.03125 C 42.433594 46.980469 44.324219 47.917969 46.214844 48.867188 C 47.667969 49.597656 49.113281 50.335938 50.566406 51.058594 C 50.988281 51.265625 51.394531 51.460938 51.648438 51.890625 C 52.144531 52.734375 51.824219 53.832031 50.945312 54.265625 C 49.769531 54.835938 48.597656 55.417969 47.421875 55.996094 C 46.421875 56.488281 45.421875 56.980469 44.421875 57.476562 C 43.425781 57.964844 42.433594 58.457031 41.441406 58.953125 C 39.898438 59.726562 38.355469 60.503906 36.804688 61.273438 C 35.121094 62.109375 33.433594 62.9375 31.746094 63.769531 C 31.488281 63.894531 31.234375 64.039062 30.964844 64.148438 C 29.835938 64.609375 28.691406 63.886719 28.617188 62.664062 C 28.597656 62.292969 28.605469 61.917969 28.605469 61.546875 C 28.605469 58.574219 28.605469 55.605469 28.605469 52.636719 C 28.605469 52.636719 28.609375 52.636719 28.609375 52.636719 Z M 46.355469 52.734375 C 46.226562 52.648438 46.175781 52.609375 46.117188 52.582031 C 44.882812 51.957031 43.648438 51.332031 42.414062 50.710938 C 40.628906 49.816406 38.84375 48.921875 37.058594 48.027344 C 35.488281 47.238281 33.914062 46.449219 32.34375 45.664062 C 32.082031 45.53125 31.980469 45.597656 31.980469 45.894531 C 31.980469 46.484375 31.980469 47.074219 31.980469 47.660156 C 31.984375 51.609375 31.984375 55.558594 31.988281 59.507812 C 31.988281 59.777344 32.105469 59.855469 32.34375 59.738281 C 32.839844 59.488281 33.335938 59.238281 33.832031 58.992188 C 35.003906 58.410156 36.175781 57.828125 37.347656 57.25 C 39.042969 56.414062 40.734375 55.582031 42.429688 54.742188 C 43.519531 54.203125 44.609375 53.660156 45.695312 53.117188 C 45.90625 53.011719 46.105469 52.878906 46.355469 52.734375 Z M 46.355469 52.734375 " fill-opacity="1" fill-rule="nonzero"/></g></svg>