<svg style="font-family: Arial;" id="e4k67rDuQhR1" xmlns="http://www.w3.org/2000/svg" xmlns:xlink="http://www.w3.org/1999/xlink" viewBox="0 0 1920 1080" shape-rendering="geometricPrecision" text-rendering="geometricPrecision">
<style><![CDATA[
#e4k67rDuQhR14_to {animation: e4k67rDuQhR14_to__to 2000ms linear infinite normal forwards}@keyframes e4k67rDuQhR14_to__to { 0% {transform: translate(519px,747.799988px)} 45% {transform: translate(519px,747.799988px);animation-timing-function: cubic-bezier(0.42,0,0.58,1)} 55% {transform: translate(857.054226px,742.800012px)} 100% {transform: translate(857.054226px,742.800012px)}} #e4k67rDuQhR14_ts {animation: e4k67rDuQhR14_ts__ts 2000ms linear infinite normal forwards}@keyframes e4k67rDuQhR14_ts__ts { 0% {transform: scale(1,1)} 25% {transform: scale(1,1);animation-timing-function: cubic-bezier(0.445,0.05,0.55,0.95)} 35% {transform: scale(0.9,0.9)} 45% {transform: scale(1,1)} 100% {transform: scale(1,1)}} #e4k67rDuQhR20_ts {animation: e4k67rDuQhR20_ts__ts 2000ms linear infinite normal forwards}@keyframes e4k67rDuQhR20_ts__ts { 0% {transform: translate(561.050263px,753.525403px) scale(0,0)} 50% {transform: translate(561.050263px,753.525403px) scale(0,0);animation-timing-function: cubic-bezier(0.205,0.01,0.76,1.005)} 60% {transform: translate(561.050263px,753.525403px) scale(1,1)} 100% {transform: translate(561.050263px,753.525403px) scale(1,1)}} #e4k67rDuQhR34_to {animation: e4k67rDuQhR34_to__to 2000ms linear infinite normal forwards}@keyframes e4k67rDuQhR34_to__to { 0% {transform: translate(692.50827px,951.129608px);animation-timing-function: cubic-bezier(0.445,0.05,0.55,0.95)} 20% {transform: translate(608.976733px,824.000006px)} 100% {transform: translate(608.976733px,824.000006px)}}
]]></style>
<line x1="323.3" y1="0" x2="323.3" y2="1080" fill="none" stroke="#a7a9ac" stroke-miterlimit="10"/><line x1="0" y1="140" x2="1920" y2="140" fill="none" stroke="#a7a9ac" stroke-miterlimit="10"/><path d="M285.5,244h-259.8c-5.8,0-10.6-4.7-10.6-10.6v-33.9c0-5.8,4.7-10.6,10.6-10.6h259.8c5.8,0,10.6,4.7,10.6,10.6v33.9c-.1,5.9-4.8,10.6-10.6,10.6Z" stroke="#000" stroke-miterlimit="10"/><path d="M1850.8,398.9h-1460c-12.1,0-21.8-9.8-21.8-21.8v-164.8c0-12.1,9.8-21.8,21.8-21.8h1460c12.1,0,21.8,9.8,21.8,21.8v164.8c.1,12-9.7,21.8-21.8,21.8Z" fill="#f8b717"/><g><circle r="28.2" transform="translate(43.3 310.6)" fill="#e6e7e8"/><path d="M281.2,338.1h-181c-8.2,0-14.8-6.6-14.8-14.8v-25.4c0-8.2,6.6-14.8,14.8-14.8h181c8.2,0,14.8,6.6,14.8,14.8v25.4c0,8.2-6.6,14.8-14.8,14.8Z" fill="#e6e7e8"/></g><g><circle r="28.2" transform="translate(43.3 405.4)" fill="#e6e7e8"/><path d="M281.2,432.9h-181c-8.2,0-14.8-6.6-14.8-14.8v-25.4c0-8.2,6.6-14.8,14.8-14.8h181c8.2,0,14.8,6.6,14.8,14.8v25.4c0,8.1-6.6,14.8-14.8,14.8Z" fill="#e6e7e8"/></g><circle r="35.3" transform="translate(1837.4 74.7)" fill="#f8b717"/><path d="M1851.4,534.9h-1461.1c-11.8,0-21.3-9.5-21.3-21.3v-42.9c0-11.8,9.5-21.3,21.3-21.3h1461.1c11.8,0,21.3,9.5,21.3,21.3v42.9c0,11.7-9.6,21.3-21.3,21.3Z" fill="#e6e7e8"/><g id="e4k67rDuQhR14_to" transform="translate(519,747.799988)"><g id="e4k67rDuQhR14_ts" transform="scale(1,1)"><g transform="translate(-519,-747.799988)"><g><path d="M651.1,897.8h-264.2c-9.9,0-17.9-8-17.9-17.9v-264.2c0-9.9,8-17.9,17.9-17.9h264.2c9.9,0,17.9,8,17.9,17.9v264.2c0,9.9-8,17.9-17.9,17.9Z" fill="none" stroke="#000" stroke-miterlimit="10" stroke-dasharray="11.9311,11.9311"/></g><g><path d="M519.4,777.8h-.8c-2.5,0-4.6-2.1-4.6-4.6v-50.8c0-2.5,2.1-4.6,4.6-4.6h.8c2.5,0,4.6,2.1,4.6,4.6v50.8c0,2.6-2,4.6-4.6,4.6Z"/><path d="M489,748.2v-.8c0-2.5,2.1-4.6,4.6-4.6h50.8c2.5,0,4.6,2.1,4.6,4.6v.8c0,2.5-2.1,4.6-4.6,4.6h-50.8c-2.5,0-4.6-2-4.6-4.6Z"/></g></g></g></g><g id="e4k67rDuQhR20_ts" transform="translate(561.050263,753.525403) scale(0,0)"><g transform="translate(-916.450287,-758.525391)"><path d="M1006.5,897.8h-264.2c-9.9,0-17.9-8-17.9-17.9v-264.2c0-9.9,8-17.9,17.9-17.9h264.2c9.9,0,17.9,8,17.9,17.9v264.2c0,9.9-8,17.9-17.9,17.9Z" fill="#fff" stroke="#000" stroke-miterlimit="10"/><rect width="36.2" height="30.5" rx="0" ry="0" transform="translate(752 641.2)" fill="none"/><text dx="0" dy="0" font-family="&quot;Arial&quot;" font-size="30" font-weight="400" transform="translate(751.989 662.654)"><![CDATA[
1.
]]></text><rect width="190.4" height="30.5" rx="0" ry="0" transform="translate(788.2 636.3)" fill="none"/><text dx="0" dy="0" font-family="&quot;Arial&quot;" font-size="40" font-weight="400" transform="translate(788.17 664.928)"><![CDATA[
Knee Pain
]]></text><path d="M990.8,866.9h-226.8c-4.9,0-8.8-3.9-8.8-8.8v-25.3c0-4.9,3.9-8.8,8.8-8.8h226.7c4.9,0,8.8,3.9,8.8,8.8v25.3c.1,4.8-3.9,8.8-8.7,8.8Z" fill="#f8b717"/><rect width="190.4" height="30.5" rx="0" ry="0" transform="translate(779.2 830.2)" fill="none"/><text dx="0" dy="0" font-family="&quot;Arial&quot;" font-size="25" font-weight="600" transform="translate(826.588 854.396)" fill="#fff"><![CDATA[
Book Slot
]]></text><g><circle r="2" transform="translate(1002.6 622.1)" fill="#6d6e71"/><circle r="2" transform="translate(1002.6 628.6)" fill="#6d6e71"/><circle r="2" transform="translate(1002.6 635)" fill="#6d6e71"/></g><path d="M993.7,722.4h-229.8c-3.2,0-5.9-2.6-5.9-5.9v-19.7c0-3.2,2.6-5.9,5.9-5.9h229.8c3.2,0,5.9,2.6,5.9,5.9v19.7c0,3.3-2.7,5.9-5.9,5.9Z" fill="#d1d3d4"/></g></g><g id="e4k67rDuQhR34_to" transform="translate(692.50827,951.129608)"><path d="M715.5,965.4l-13.1-13.1l9.6-5.5c.6-.3.9-.9.8-1.6c0-.6-.5-1.2-1.1-1.4l-40.4-16.1c-.6-.3-1.3-.1-1.8.4s-.6,1.2-.4,1.8l16.1,40.5c.2.6.8,1,1.4,1.1.6,0,1.3-.3,1.6-.8l5.5-9.6l13.1,13.1c.3.3.7.5,1.2.5.4,0,.9-.2,1.2-.5l6.2-6.2c.8-.9.8-2,.1-2.6Z" transform="translate(-692.50827,-951.129608)" fill="#010101"/></g></svg>
