<?xml version="1.0" encoding="utf-8"?>
<!-- Generator: Adobe Illustrator 25.2.1, SVG Export Plug-In . SVG Version: 6.00 Build 0)  -->
<svg version="1.1" id="Layer_1" xmlns="http://www.w3.org/2000/svg"
	xmlns:xlink="http://www.w3.org/1999/xlink" x="0px" y="0px"
	viewBox="0 0 1920 1080" style="enable-background:new 0 0 1920 1080;" xml:space="preserve">
<style type="text/css">
	.st0{fill:#0065E2;}
	.st1{fill:#F8B617;}
	.st2{fill:#010101;}
	#whole{
		animation: sroll 5s ease-in-out infinite alternate;
	}
	@keyframes sroll{
		0%{
			transform: translateY(0%);
		}
		100%{
			transform: translateY(-80%);
		}
	}
</style>
<g id="whole">
	<g>
		<path class="st0" d="M379.8,402.8H93.9c-14,0-25.4-11.4-25.4-25.4V91.5c0-14,11.4-25.4,25.4-25.4h285.9c14,0,25.4,11.4,25.4,25.4
			v285.9C405.2,391.5,393.8,402.8,379.8,402.8z"/>
		<circle class="st1" cx="100.6" cy="463" r="32"/>
		<path d="M359.8,456.7H153c-2.5,0-4.6-2.1-4.6-4.6v-16.6c0-2.5,2.1-4.6,4.6-4.6h206.8c2.5,0,4.6,2.1,4.6,4.6v16.6
			C364.4,454.7,362.4,456.7,359.8,456.7z"/>
		<path d="M274.5,495.1H153c-2.5,0-4.6-2.1-4.6-4.6v-16.6c0-2.5,2.1-4.6,4.6-4.6h121.6c2.5,0,4.6,2.1,4.6,4.6v16.6
			C279.1,493,277.1,495.1,274.5,495.1z"/>
		<path class="st0" d="M861.9,402.8H576c-14,0-25.4-11.4-25.4-25.4V91.5c0-14,11.4-25.4,25.4-25.4h285.9c14,0,25.4,11.4,25.4,25.4
			v285.9C887.3,391.5,875.9,402.8,861.9,402.8z"/>
		<circle class="st1" cx="582.7" cy="463" r="32"/>
		<path d="M841.9,456.7H635.1c-2.5,0-4.6-2.1-4.6-4.6v-16.6c0-2.5,2.1-4.6,4.6-4.6h206.8c2.5,0,4.6,2.1,4.6,4.6v16.6
			C846.5,454.7,844.4,456.7,841.9,456.7z"/>
		<path d="M756.6,495.1H635.1c-2.5,0-4.6-2.1-4.6-4.6v-16.6c0-2.5,2.1-4.6,4.6-4.6h121.6c2.5,0,4.6,2.1,4.6,4.6v16.6
			C761.2,493,759.2,495.1,756.6,495.1z"/>
		<path class="st0" d="M1344,402.8h-285.9c-14,0-25.4-11.4-25.4-25.4V91.5c0-14,11.4-25.4,25.4-25.4H1344c14,0,25.4,11.4,25.4,25.4
			v285.9C1369.4,391.5,1358,402.8,1344,402.8z"/>
		<circle class="st1" cx="1064.8" cy="463" r="32"/>
		<path d="M1324,456.7h-206.8c-2.5,0-4.6-2.1-4.6-4.6v-16.6c0-2.5,2.1-4.6,4.6-4.6H1324c2.5,0,4.6,2.1,4.6,4.6v16.6
			C1328.6,454.7,1326.5,456.7,1324,456.7z"/>
		<path d="M1238.7,495.1h-121.6c-2.5,0-4.6-2.1-4.6-4.6v-16.6c0-2.5,2.1-4.6,4.6-4.6h121.6c2.5,0,4.6,2.1,4.6,4.6v16.6
			C1243.3,493,1241.2,495.1,1238.7,495.1z"/>
		<path class="st0" d="M1826.1,402.8h-285.9c-14,0-25.4-11.4-25.4-25.4V91.5c0-14,11.4-25.4,25.4-25.4h285.9
			c14,0,25.4,11.4,25.4,25.4v285.9C1851.4,391.5,1840.1,402.8,1826.1,402.8z"/>
		<circle class="st1" cx="1546.9" cy="463" r="32"/>
		<path d="M1806.1,456.7h-206.8c-2.5,0-4.6-2.1-4.6-4.6v-16.6c0-2.5,2.1-4.6,4.6-4.6h206.8c2.5,0,4.6,2.1,4.6,4.6v16.6
			C1810.7,454.7,1808.6,456.7,1806.1,456.7z"/>
		<path d="M1720.8,495.1h-121.6c-2.5,0-4.6-2.1-4.6-4.6v-16.6c0-2.5,2.1-4.6,4.6-4.6h121.6c2.5,0,4.6,2.1,4.6,4.6v16.6
			C1725.4,493,1723.3,495.1,1720.8,495.1z"/>
	</g>
	<g>
		<g>
			<path class="st0" d="M379.8,901.9H93.9c-14,0-25.4-11.4-25.4-25.4V590.6c0-14,11.4-25.4,25.4-25.4h285.9
				c14,0,25.4,11.4,25.4,25.4v285.9C405.2,890.5,393.8,901.9,379.8,901.9z"/>
			<circle class="st1" cx="100.6" cy="962.1" r="32"/>
			<path d="M359.8,955.8H153c-2.5,0-4.6-2.1-4.6-4.6v-16.6c0-2.5,2.1-4.6,4.6-4.6h206.8c2.5,0,4.6,2.1,4.6,4.6v16.6
				C364.4,953.7,362.4,955.8,359.8,955.8z"/>
			<path d="M274.5,994.1H153c-2.5,0-4.6-2.1-4.6-4.6v-16.6c0-2.5,2.1-4.6,4.6-4.6h121.6c2.5,0,4.6,2.1,4.6,4.6v16.6
				C279.1,992.1,277.1,994.1,274.5,994.1z"/>
		</g>
		<g>
			<path class="st0" d="M861.9,901.9H576c-14,0-25.4-11.4-25.4-25.4V590.6c0-14,11.4-25.4,25.4-25.4h285.9c14,0,25.4,11.4,25.4,25.4
				v285.9C887.3,890.5,875.9,901.9,861.9,901.9z"/>
			<circle class="st1" cx="582.7" cy="962.1" r="32"/>
			<path d="M841.9,955.8H635.1c-2.5,0-4.6-2.1-4.6-4.6v-16.6c0-2.5,2.1-4.6,4.6-4.6h206.8c2.5,0,4.6,2.1,4.6,4.6v16.6
				C846.5,953.7,844.4,955.8,841.9,955.8z"/>
			<path d="M756.6,994.1H635.1c-2.5,0-4.6-2.1-4.6-4.6v-16.6c0-2.5,2.1-4.6,4.6-4.6h121.6c2.5,0,4.6,2.1,4.6,4.6v16.6
				C761.2,992.1,759.2,994.1,756.6,994.1z"/>
		</g>
		<g>
			<path class="st0" d="M1344,901.9h-285.9c-14,0-25.4-11.4-25.4-25.4V590.6c0-14,11.4-25.4,25.4-25.4H1344
				c14,0,25.4,11.4,25.4,25.4v285.9C1369.4,890.5,1358,901.9,1344,901.9z"/>
			<circle class="st1" cx="1064.8" cy="962.1" r="32"/>
			<path d="M1324,955.8h-206.8c-2.5,0-4.6-2.1-4.6-4.6v-16.6c0-2.5,2.1-4.6,4.6-4.6H1324c2.5,0,4.6,2.1,4.6,4.6v16.6
				C1328.6,953.7,1326.5,955.8,1324,955.8z"/>
			<path d="M1238.7,994.1h-121.6c-2.5,0-4.6-2.1-4.6-4.6v-16.6c0-2.5,2.1-4.6,4.6-4.6h121.6c2.5,0,4.6,2.1,4.6,4.6v16.6
				C1243.3,992.1,1241.2,994.1,1238.7,994.1z"/>
		</g>
		<g>
			<path class="st0" d="M1826.1,901.9h-285.9c-14,0-25.4-11.4-25.4-25.4V590.6c0-14,11.4-25.4,25.4-25.4h285.9
				c14,0,25.4,11.4,25.4,25.4v285.9C1851.4,890.5,1840.1,901.9,1826.1,901.9z"/>
			<circle class="st1" cx="1546.9" cy="962.1" r="32"/>
			<path d="M1806.1,955.8h-206.8c-2.5,0-4.6-2.1-4.6-4.6v-16.6c0-2.5,2.1-4.6,4.6-4.6h206.8c2.5,0,4.6,2.1,4.6,4.6v16.6
				C1810.7,953.7,1808.6,955.8,1806.1,955.8z"/>
			<path d="M1720.8,994.1h-121.6c-2.5,0-4.6-2.1-4.6-4.6v-16.6c0-2.5,2.1-4.6,4.6-4.6h121.6c2.5,0,4.6,2.1,4.6,4.6v16.6
				C1725.4,992.1,1723.3,994.1,1720.8,994.1z"/>
		</g>
	</g>
	<g>
		<path class="st0" d="M379.8,1400.8H93.9c-14,0-25.4-11.4-25.4-25.4v-285.9c0-14,11.4-25.4,25.4-25.4h285.9
			c14,0,25.4,11.4,25.4,25.4v285.9C405.2,1389.5,393.8,1400.8,379.8,1400.8z"/>
		<circle class="st1" cx="100.6" cy="1461" r="32"/>
		<path d="M359.8,1454.7H153c-2.5,0-4.6-2.1-4.6-4.6v-16.6c0-2.5,2.1-4.6,4.6-4.6h206.8c2.5,0,4.6,2.1,4.6,4.6v16.6
			C364.4,1452.7,362.4,1454.7,359.8,1454.7z"/>
		<path d="M274.5,1493.1H153c-2.5,0-4.6-2.1-4.6-4.6v-16.6c0-2.5,2.1-4.6,4.6-4.6h121.6c2.5,0,4.6,2.1,4.6,4.6v16.6
			C279.1,1491,277.1,1493.1,274.5,1493.1z"/>
		<path class="st0" d="M861.9,1400.8H576c-14,0-25.4-11.4-25.4-25.4v-285.9c0-14,11.4-25.4,25.4-25.4h285.9
			c14,0,25.4,11.4,25.4,25.4v285.9C887.3,1389.5,875.9,1400.8,861.9,1400.8z"/>
		<circle class="st1" cx="582.7" cy="1461" r="32"/>
		<path d="M841.9,1454.7H635.1c-2.5,0-4.6-2.1-4.6-4.6v-16.6c0-2.5,2.1-4.6,4.6-4.6h206.8c2.5,0,4.6,2.1,4.6,4.6v16.6
			C846.5,1452.7,844.4,1454.7,841.9,1454.7z"/>
		<path d="M756.6,1493.1H635.1c-2.5,0-4.6-2.1-4.6-4.6v-16.6c0-2.5,2.1-4.6,4.6-4.6h121.6c2.5,0,4.6,2.1,4.6,4.6v16.6
			C761.2,1491,759.2,1493.1,756.6,1493.1z"/>
		<path class="st0" d="M1344,1400.8h-285.9c-14,0-25.4-11.4-25.4-25.4v-285.9c0-14,11.4-25.4,25.4-25.4H1344
			c14,0,25.4,11.4,25.4,25.4v285.9C1369.4,1389.5,1358,1400.8,1344,1400.8z"/>
		<circle class="st1" cx="1064.8" cy="1461" r="32"/>
		<path d="M1324,1454.7h-206.8c-2.5,0-4.6-2.1-4.6-4.6v-16.6c0-2.5,2.1-4.6,4.6-4.6H1324c2.5,0,4.6,2.1,4.6,4.6v16.6
			C1328.6,1452.7,1326.5,1454.7,1324,1454.7z"/>
		<path d="M1238.7,1493.1h-121.6c-2.5,0-4.6-2.1-4.6-4.6v-16.6c0-2.5,2.1-4.6,4.6-4.6h121.6c2.5,0,4.6,2.1,4.6,4.6v16.6
			C1243.3,1491,1241.2,1493.1,1238.7,1493.1z"/>
		<path class="st0" d="M1826.1,1400.8h-285.9c-14,0-25.4-11.4-25.4-25.4v-285.9c0-14,11.4-25.4,25.4-25.4h285.9
			c14,0,25.4,11.4,25.4,25.4v285.9C1851.4,1389.5,1840.1,1400.8,1826.1,1400.8z"/>
		<circle class="st1" cx="1546.9" cy="1461" r="32"/>
		<path d="M1806.1,1454.7h-206.8c-2.5,0-4.6-2.1-4.6-4.6v-16.6c0-2.5,2.1-4.6,4.6-4.6h206.8c2.5,0,4.6,2.1,4.6,4.6v16.6
			C1810.7,1452.7,1808.6,1454.7,1806.1,1454.7z"/>
		<path d="M1720.8,1493.1h-121.6c-2.5,0-4.6-2.1-4.6-4.6v-16.6c0-2.5,2.1-4.6,4.6-4.6h121.6c2.5,0,4.6,2.1,4.6,4.6v16.6
			C1725.4,1491,1723.3,1493.1,1720.8,1493.1z"/>
	</g>
	<g>
		<g>
			<path class="st0" d="M379.8,1899.9H93.9c-14,0-25.4-11.4-25.4-25.4v-285.9c0-14,11.4-25.4,25.4-25.4h285.9
				c14,0,25.4,11.4,25.4,25.4v285.9C405.2,1888.5,393.8,1899.9,379.8,1899.9z"/>
			<circle class="st1" cx="100.6" cy="1960.1" r="32"/>
			<path d="M359.8,1953.8H153c-2.5,0-4.6-2.1-4.6-4.6v-16.6c0-2.5,2.1-4.6,4.6-4.6h206.8c2.5,0,4.6,2.1,4.6,4.6v16.6
				C364.4,1951.7,362.4,1953.8,359.8,1953.8z"/>
			<path d="M274.5,1992.1H153c-2.5,0-4.6-2.1-4.6-4.6v-16.6c0-2.5,2.1-4.6,4.6-4.6h121.6c2.5,0,4.6,2.1,4.6,4.6v16.6
				C279.1,1990.1,277.1,1992.1,274.5,1992.1z"/>
		</g>
		<g>
			<path class="st0" d="M861.9,1899.9H576c-14,0-25.4-11.4-25.4-25.4v-285.9c0-14,11.4-25.4,25.4-25.4h285.9
				c14,0,25.4,11.4,25.4,25.4v285.9C887.3,1888.5,875.9,1899.9,861.9,1899.9z"/>
			<circle class="st1" cx="582.7" cy="1960.1" r="32"/>
			<path d="M841.9,1953.8H635.1c-2.5,0-4.6-2.1-4.6-4.6v-16.6c0-2.5,2.1-4.6,4.6-4.6h206.8c2.5,0,4.6,2.1,4.6,4.6v16.6
				C846.5,1951.7,844.4,1953.8,841.9,1953.8z"/>
			<path d="M756.6,1992.1H635.1c-2.5,0-4.6-2.1-4.6-4.6v-16.6c0-2.5,2.1-4.6,4.6-4.6h121.6c2.5,0,4.6,2.1,4.6,4.6v16.6
				C761.2,1990.1,759.2,1992.1,756.6,1992.1z"/>
		</g>
		<g>
			<path class="st0" d="M1344,1899.9h-285.9c-14,0-25.4-11.4-25.4-25.4v-285.9c0-14,11.4-25.4,25.4-25.4H1344
				c14,0,25.4,11.4,25.4,25.4v285.9C1369.4,1888.5,1358,1899.9,1344,1899.9z"/>
			<circle class="st1" cx="1064.8" cy="1960.1" r="32"/>
			<path d="M1324,1953.8h-206.8c-2.5,0-4.6-2.1-4.6-4.6v-16.6c0-2.5,2.1-4.6,4.6-4.6H1324c2.5,0,4.6,2.1,4.6,4.6v16.6
				C1328.6,1951.7,1326.5,1953.8,1324,1953.8z"/>
			<path d="M1238.7,1992.1h-121.6c-2.5,0-4.6-2.1-4.6-4.6v-16.6c0-2.5,2.1-4.6,4.6-4.6h121.6c2.5,0,4.6,2.1,4.6,4.6v16.6
				C1243.3,1990.1,1241.2,1992.1,1238.7,1992.1z"/>
		</g>
		<g>
			<path class="st0" d="M1826.1,1899.9h-285.9c-14,0-25.4-11.4-25.4-25.4v-285.9c0-14,11.4-25.4,25.4-25.4h285.9
				c14,0,25.4,11.4,25.4,25.4v285.9C1851.4,1888.5,1840.1,1899.9,1826.1,1899.9z"/>
			<circle class="st1" cx="1546.9" cy="1960.1" r="32"/>
			<path d="M1806.1,1953.8h-206.8c-2.5,0-4.6-2.1-4.6-4.6v-16.6c0-2.5,2.1-4.6,4.6-4.6h206.8c2.5,0,4.6,2.1,4.6,4.6v16.6
				C1810.7,1951.7,1808.6,1953.8,1806.1,1953.8z"/>
			<path d="M1720.8,1992.1h-121.6c-2.5,0-4.6-2.1-4.6-4.6v-16.6c0-2.5,2.1-4.6,4.6-4.6h121.6c2.5,0,4.6,2.1,4.6,4.6v16.6
				C1725.4,1990.1,1723.3,1992.1,1720.8,1992.1z"/>
		</g>
	</g>
</g>
<path class="st2" d="M983,561l-13.1-13.1l9.6-5.5c0.6-0.3,0.9-0.9,0.8-1.6c0-0.6-0.5-1.2-1.1-1.4l-40.4-16.2
		c-0.6-0.3-1.3-0.1-1.8,0.4s-0.6,1.2-0.4,1.8l16.1,40.5c0.2,0.6,0.8,1,1.4,1.1c0.6,0,1.3-0.3,1.6-0.8l5.5-9.6l13.1,13.1
		c0.3,0.3,0.7,0.5,1.2,0.5c0.4,0,0.9-0.2,1.2-0.5l6.2-6.2C983.7,562.8,983.7,561.7,983,561z"/>
</svg>