<svg xmlns="http://www.w3.org/2000/svg" xmlns:xlink="http://www.w3.org/1999/xlink" width="100"
    zoomAndPan="magnify" viewBox="0 0 75 74.999997" height="100" preserveAspectRatio="xMidYMid meet"
    version="1.0">
    <defs>
        <clipPath id="d5cac6ffff">
            <path d="M 4 2 L 75 2 L 75 72.835938 L 4 72.835938 Z M 4 2 " clip-rule="nonzero" />
        </clipPath>
    </defs>
    <g clip-path="url(#d5cac6ffff)">
        <path fill="#000000"
            d="M 73 39.882812 L 54.207031 51.960938 L 42.128906 70.75 C 40.84375 72.753906 37.984375 72.753906 36.699219 70.75 L 24.625 51.960938 L 5.832031 39.882812 C 3.832031 38.597656 3.832031 35.738281 5.832031 34.453125 L 24.625 22.378906 L 36.699219 3.585938 C 37.984375 1.585938 40.84375 1.585938 42.128906 3.585938 L 54.207031 22.378906 L 73 34.453125 C 75 35.738281 75 38.597656 73 39.882812 Z M 73 39.882812 "
            fill-opacity="1" fill-rule="nonzero" />
    </g>
    <path fill="#e200db"
        d="M 69.167969 38.300781 L 50.375 50.375 L 38.300781 69.167969 C 37.011719 71.167969 34.15625 71.167969 32.867188 69.167969 L 20.792969 50.375 L 2 38.300781 C 0 37.011719 0 34.15625 2 32.867188 L 20.792969 20.792969 L 32.867188 2 C 34.15625 0 37.011719 0 38.300781 2 L 50.375 20.792969 L 69.167969 32.867188 C 71.167969 34.15625 71.167969 37.011719 69.167969 38.300781 Z M 69.167969 38.300781 "
        fill-opacity="1" fill-rule="nonzero" />
</svg>