<svg xmlns="http://www.w3.org/2000/svg" xmlns:xlink="http://www.w3.org/1999/xlink" width="100"
    zoomAndPan="magnify" viewBox="0 0 75 74.999997" height="100" preserveAspectRatio="xMidYMid meet"
    version="1.0">
    <defs>
        <clipPath id="4e7101476d">
            <path d="M 7.5 0 L 74.25 0 L 74.25 74.25 L 7.5 74.25 Z M 7.5 0 " clip-rule="nonzero" />
        </clipPath>
    </defs>
    <g clip-path="url(#4e7101476d)">
        <path fill="#000000"
            d="M 74.210938 62.964844 C 71.90625 65.652344 68.894531 66.886719 65.460938 67.589844 C 57.238281 69.296875 49.0625 71.308594 40.835938 73.042969 C 38.105469 73.597656 35.347656 73.949219 32.585938 74.097656 C 30.054688 74.25 28.324219 72.941406 27.921875 71.03125 C 27.523438 69.046875 28.675781 66.984375 31.234375 66.332031 C 35.445312 65.25 39.757812 64.574219 44.023438 63.667969 C 50.492188 62.3125 56.910156 60.777344 63.378906 59.597656 C 67.140625 58.890625 70.878906 59.421875 74.1875 61.605469 Z M 21.804688 0 C 19.023438 1.683594 16.789062 3.921875 15.761719 7.011719 C 13.105469 15.003906 10.570312 23.050781 8.140625 31.144531 C 7.664062 32.726562 7.539062 34.410156 7.761719 36.042969 C 7.914062 37.125 8.839844 38.632812 9.71875 38.882812 C 10.746094 39.160156 12.203125 38.433594 13.28125 37.828125 C 13.90625 37.476562 14.308594 36.546875 14.632812 35.792969 C 18.34375 26.792969 21.980469 17.769531 23.5625 8.117188 C 23.988281 5.53125 23.035156 2.714844 22.707031 0 Z M 51.59375 22.019531 C 44.347656 26.617188 37 31.015625 31.109375 37.453125 C 29.703125 38.984375 27.875 40.140625 26.34375 41.574219 C 24.988281 42.855469 23.585938 44.136719 22.53125 45.671875 C 21.578125 47.027344 21.53125 48.710938 22.882812 50.019531 C 24.164062 51.25 25.71875 51.125 27.070312 50.296875 C 29.953125 48.535156 32.9375 46.851562 35.523438 44.714844 C 40.660156 40.417969 45.578125 35.867188 50.542969 31.394531 C 52.496094 29.632812 54.453125 27.851562 56.332031 26.015625 C 57.789062 24.582031 58.964844 22.949219 58.742188 20.585938 C 56.058594 19.90625 53.726562 20.660156 51.59375 22.019531 Z M 51.59375 22.019531 "
            fill-opacity="1" fill-rule="nonzero" />
    </g>
</svg>