<svg xmlns="http://www.w3.org/2000/svg" xmlns:xlink="http://www.w3.org/1999/xlink" width="100" zoomAndPan="magnify" viewBox="0 0 75 74.999997" height="100" preserveAspectRatio="xMidYMid meet" version="1.0"><defs><clipPath id="7bc0f738af"><path d="M 0 4 L 75 4 L 75 70.734375 L 0 70.734375 Z M 0 4 " clip-rule="nonzero"/></clipPath></defs><g clip-path="url(#7bc0f738af)"><path fill="#fab800" d="M 57.570312 6.449219 C 56.804688 5.492188 55.726562 4.824219 54.527344 4.554688 C 52.574219 4.121094 50.207031 3.988281 48.035156 5.042969 C 39.285156 9.296875 41.574219 29.003906 38.511719 29.289062 C 35.28125 29.59375 33.394531 7.621094 22.960938 5.042969 C 22.941406 5.039062 22.921875 5.035156 22.90625 5.03125 C 20.011719 4.335938 17.066406 6.101562 16.3125 8.980469 C 16.289062 9.074219 16.265625 9.171875 16.242188 9.273438 C 14.039062 19.4375 34.636719 30.875 33 33.800781 C 31.371094 36.707031 11.296875 25.011719 2.941406 32.308594 C 1.96875 33.160156 1.285156 34.15625 0.804688 35.109375 C 0.0273438 36.65625 0.0273438 38.492188 0.8125 40.039062 C 1.292969 40.988281 1.972656 42 2.949219 42.886719 C 11.09375 50.316406 30.148438 40.53125 31.496094 43.324219 C 32.8125 46.058594 14.1875 54.6875 15.289062 64.261719 C 15.460938 65.757812 16.085938 67.039062 16.832031 68.089844 C 17.886719 69.566406 19.605469 70.449219 21.421875 70.398438 C 22.054688 70.382812 22.746094 70.308594 23.472656 70.144531 C 35.015625 67.546875 38.277344 45.78125 41.519531 46.332031 C 44.578125 46.851562 41.179688 66.121094 49.039062 70.144531 C 50.738281 71.015625 52.621094 70.996094 54.265625 70.683594 C 55.601562 70.429688 56.804688 69.699219 57.632812 68.621094 C 58.496094 67.496094 59.351562 66.007812 59.71875 64.175781 C 61.867188 53.40625 44.777344 42.367188 46.53125 39.816406 C 48.265625 37.296875 64.496094 48.667969 71.898438 43.078125 C 73.1875 42.101562 73.976562 40.789062 74.46875 39.554688 C 74.953125 38.34375 74.984375 36.996094 74.566406 35.761719 C 73.984375 34.023438 72.964844 32.09375 71.125 30.773438 C 63.269531 25.132812 47.523438 35.683594 46.03125 33.300781 C 44.515625 30.882812 61.371094 20.988281 59.683594 10.953125 C 59.371094 9.09375 58.480469 7.585938 57.570312 6.449219 Z M 57.570312 6.449219 " fill-opacity="1" fill-rule="nonzero"/></g></svg>