<svg xmlns="http://www.w3.org/2000/svg" xmlns:xlink="http://www.w3.org/1999/xlink" width="100" zoomAndPan="magnify" viewBox="0 0 75 74.999997" height="100" preserveAspectRatio="xMidYMid meet" version="1.0"><defs><clipPath id="8b0a2cf834"><path d="M 40 8 L 55 8 L 55 25 L 40 25 Z M 40 8 " clip-rule="nonzero"/></clipPath><clipPath id="234d32fc72"><path d="M 0 27.980469 L 52.1875 -0.0703125 L 75.269531 42.867188 L 23.082031 70.921875 Z M 0 27.980469 " clip-rule="nonzero"/></clipPath><clipPath id="6cceaeaa14"><path d="M 0 27.980469 L 52.1875 -0.0703125 L 75.269531 42.867188 L 23.082031 70.921875 Z M 0 27.980469 " clip-rule="nonzero"/></clipPath><clipPath id="d7d42e7d35"><path d="M 39 7 L 56 7 L 56 26 L 39 26 Z M 39 7 " clip-rule="nonzero"/></clipPath><clipPath id="2954977de1"><path d="M 0 27.980469 L 52.1875 -0.0703125 L 75.269531 42.867188 L 23.082031 70.921875 Z M 0 27.980469 " clip-rule="nonzero"/></clipPath><clipPath id="e732806a66"><path d="M 0 27.980469 L 52.1875 -0.0703125 L 75.269531 42.867188 L 23.082031 70.921875 Z M 0 27.980469 " clip-rule="nonzero"/></clipPath><clipPath id="b7e65fac08"><path d="M 5 25 L 20 25 L 20 42 L 5 42 Z M 5 25 " clip-rule="nonzero"/></clipPath><clipPath id="edc52807c0"><path d="M 0 27.980469 L 52.1875 -0.0703125 L 75.269531 42.867188 L 23.082031 70.921875 Z M 0 27.980469 " clip-rule="nonzero"/></clipPath><clipPath id="6473ce296a"><path d="M 0 27.980469 L 52.1875 -0.0703125 L 75.269531 42.867188 L 23.082031 70.921875 Z M 0 27.980469 " clip-rule="nonzero"/></clipPath><clipPath id="c0ff751910"><path d="M 4 24 L 21 24 L 21 43 L 4 43 Z M 4 24 " clip-rule="nonzero"/></clipPath><clipPath id="4825bab7d7"><path d="M 0 27.980469 L 52.1875 -0.0703125 L 75.269531 42.867188 L 23.082031 70.921875 Z M 0 27.980469 " clip-rule="nonzero"/></clipPath><clipPath id="63a09bdd26"><path d="M 0 27.980469 L 52.1875 -0.0703125 L 75.269531 42.867188 L 23.082031 70.921875 Z M 0 27.980469 " clip-rule="nonzero"/></clipPath><clipPath id="26ada3844e"><path d="M 34 31 L 48 31 L 48 51 L 34 51 Z M 34 31 " clip-rule="nonzero"/></clipPath><clipPath id="f35fbcc3f6"><path d="M 0 27.980469 L 52.1875 -0.0703125 L 75.269531 42.867188 L 23.082031 70.921875 Z M 0 27.980469 " clip-rule="nonzero"/></clipPath><clipPath id="2243747851"><path d="M 0 27.980469 L 52.1875 -0.0703125 L 75.269531 42.867188 L 23.082031 70.921875 Z M 0 27.980469 " clip-rule="nonzero"/></clipPath><clipPath id="e1472d971d"><path d="M 33 30 L 48 30 L 48 52 L 33 52 Z M 33 30 " clip-rule="nonzero"/></clipPath><clipPath id="f7153dbe7f"><path d="M 0 27.980469 L 52.1875 -0.0703125 L 75.269531 42.867188 L 23.082031 70.921875 Z M 0 27.980469 " clip-rule="nonzero"/></clipPath><clipPath id="ab5c5ff38a"><path d="M 0 27.980469 L 52.1875 -0.0703125 L 75.269531 42.867188 L 23.082031 70.921875 Z M 0 27.980469 " clip-rule="nonzero"/></clipPath><clipPath id="e1b37b4530"><path d="M 41 5 L 57 5 L 57 24 L 41 24 Z M 41 5 " clip-rule="nonzero"/></clipPath><clipPath id="954cabf03d"><path d="M 0 27.980469 L 52.1875 -0.0703125 L 75.269531 42.867188 L 23.082031 70.921875 Z M 0 27.980469 " clip-rule="nonzero"/></clipPath><clipPath id="f0e10ed691"><path d="M 0 27.980469 L 52.1875 -0.0703125 L 75.269531 42.867188 L 23.082031 70.921875 Z M 0 27.980469 " clip-rule="nonzero"/></clipPath><clipPath id="77dde028f7"><path d="M 6 22 L 22 22 L 22 41 L 6 41 Z M 6 22 " clip-rule="nonzero"/></clipPath><clipPath id="9022251bae"><path d="M 0 27.980469 L 52.1875 -0.0703125 L 75.269531 42.867188 L 23.082031 70.921875 Z M 0 27.980469 " clip-rule="nonzero"/></clipPath><clipPath id="17d1201c7f"><path d="M 0 27.980469 L 52.1875 -0.0703125 L 75.269531 42.867188 L 23.082031 70.921875 Z M 0 27.980469 " clip-rule="nonzero"/></clipPath><clipPath id="7dc7547e50"><path d="M 35 28 L 50 28 L 50 50 L 35 50 Z M 35 28 " clip-rule="nonzero"/></clipPath><clipPath id="74a11b6779"><path d="M 0 27.980469 L 52.1875 -0.0703125 L 75.269531 42.867188 L 23.082031 70.921875 Z M 0 27.980469 " clip-rule="nonzero"/></clipPath><clipPath id="c31b0e281e"><path d="M 0 27.980469 L 52.1875 -0.0703125 L 75.269531 42.867188 L 23.082031 70.921875 Z M 0 27.980469 " clip-rule="nonzero"/></clipPath></defs><g clip-path="url(#8b0a2cf834)"><g clip-path="url(#234d32fc72)"><g clip-path="url(#6cceaeaa14)"><path fill="#000000" d="M 40.320312 19.300781 C 40.320312 19.300781 46.441406 15.703125 43.828125 8.292969 C 43.828125 8.292969 47.675781 14.890625 54.644531 11.449219 C 54.644531 11.449219 48.671875 18.152344 53.003906 24.941406 C 53.003906 24.941406 47.113281 16.101562 40.320312 19.300781 Z M 40.320312 19.300781 " fill-opacity="1" fill-rule="nonzero"/></g></g></g><g clip-path="url(#d7d42e7d35)"><g clip-path="url(#2954977de1)"><g clip-path="url(#e732806a66)"><path fill="#000000" d="M 53.371094 25.621094 C 53.195312 25.714844 53.011719 25.738281 52.820312 25.691406 C 52.625 25.644531 52.476562 25.535156 52.363281 25.371094 C 52.351562 25.351562 50.914062 23.21875 48.707031 21.507812 C 47.449219 20.53125 46.1875 19.882812 44.964844 19.574219 C 43.480469 19.207031 42.027344 19.347656 40.648438 19.996094 C 40.460938 20.082031 40.273438 20.09375 40.078125 20.027344 C 39.882812 19.964844 39.738281 19.839844 39.640625 19.660156 C 39.546875 19.476562 39.523438 19.289062 39.582031 19.089844 C 39.636719 18.890625 39.753906 18.742188 39.929688 18.636719 C 39.945312 18.628906 41.359375 17.773438 42.445312 16.101562 C 43.875 13.902344 44.09375 11.363281 43.101562 8.550781 C 43.035156 8.363281 43.042969 8.179688 43.121094 7.996094 C 43.195312 7.8125 43.324219 7.679688 43.503906 7.597656 C 43.6875 7.511719 43.871094 7.5 44.058594 7.5625 C 44.25 7.621094 44.394531 7.734375 44.496094 7.90625 C 44.503906 7.921875 45.417969 9.449219 47.097656 10.550781 C 49.273438 11.976562 51.699219 12.046875 54.304688 10.757812 C 54.46875 10.675781 54.640625 10.65625 54.820312 10.699219 C 55 10.742188 55.144531 10.835938 55.257812 10.980469 C 55.371094 11.128906 55.421875 11.292969 55.414062 11.480469 C 55.40625 11.664062 55.34375 11.824219 55.21875 11.960938 C 55.207031 11.976562 53.789062 13.59375 52.90625 15.96875 C 52.398438 17.332031 52.164062 18.679688 52.207031 19.972656 C 52.261719 21.574219 52.75 23.105469 53.65625 24.527344 C 53.769531 24.707031 53.804688 24.898438 53.761719 25.105469 C 53.714844 25.3125 53.605469 25.472656 53.429688 25.589844 C 53.40625 25.601562 53.390625 25.613281 53.371094 25.621094 Z M 43.082031 17.839844 C 45.242188 17.765625 47.480469 18.597656 49.6875 20.316406 C 50.074219 20.621094 50.441406 20.933594 50.777344 21.246094 C 50.714844 20.832031 50.675781 20.414062 50.664062 19.996094 C 50.617188 18.492188 50.890625 16.941406 51.480469 15.378906 C 51.792969 14.554688 52.171875 13.757812 52.621094 12.996094 C 49.835938 13.628906 47.652344 12.769531 46.199219 11.804688 C 45.855469 11.578125 45.527344 11.328125 45.21875 11.058594 C 45.277344 11.792969 45.253906 12.527344 45.148438 13.253906 C 44.941406 14.613281 44.460938 15.859375 43.699219 17 C 43.507812 17.292969 43.300781 17.570312 43.082031 17.839844 Z M 43.082031 17.839844 " fill-opacity="1" fill-rule="nonzero"/></g></g></g><g clip-path="url(#b7e65fac08)"><g clip-path="url(#edc52807c0)"><g clip-path="url(#6473ce296a)"><path fill="#000000" d="M 5.371094 36.335938 C 5.371094 36.335938 11.492188 32.738281 8.878906 25.328125 C 8.878906 25.328125 12.730469 31.925781 19.695312 28.484375 C 19.695312 28.484375 13.722656 35.1875 18.058594 41.976562 C 18.058594 41.976562 12.164062 33.136719 5.371094 36.335938 Z M 5.371094 36.335938 " fill-opacity="1" fill-rule="nonzero"/></g></g></g><g clip-path="url(#c0ff751910)"><g clip-path="url(#4825bab7d7)"><g clip-path="url(#63a09bdd26)"><path fill="#000000" d="M 18.421875 42.660156 C 18.246094 42.753906 18.0625 42.773438 17.871094 42.726562 C 17.675781 42.679688 17.527344 42.570312 17.414062 42.40625 C 17.402344 42.386719 15.964844 40.253906 13.761719 38.542969 C 12.5 37.566406 11.238281 36.917969 10.015625 36.609375 C 8.53125 36.242188 7.078125 36.382812 5.699219 37.03125 C 5.515625 37.117188 5.324219 37.128906 5.128906 37.0625 C 4.933594 37 4.789062 36.875 4.691406 36.695312 C 4.597656 36.511719 4.578125 36.324219 4.632812 36.125 C 4.6875 35.925781 4.804688 35.777344 4.980469 35.671875 C 4.996094 35.664062 6.410156 34.808594 7.496094 33.136719 C 8.925781 30.9375 9.148438 28.398438 8.152344 25.585938 C 8.085938 25.398438 8.09375 25.214844 8.171875 25.03125 C 8.246094 24.847656 8.375 24.714844 8.558594 24.632812 C 8.738281 24.546875 8.921875 24.535156 9.113281 24.597656 C 9.300781 24.65625 9.445312 24.769531 9.546875 24.941406 C 9.554688 24.957031 10.46875 26.484375 12.148438 27.585938 C 14.324219 29.011719 16.746094 29.082031 19.355469 27.792969 C 19.519531 27.714844 19.691406 27.695312 19.871094 27.734375 C 20.050781 27.777344 20.195312 27.871094 20.308594 28.019531 C 20.417969 28.164062 20.472656 28.332031 20.464844 28.515625 C 20.457031 28.699219 20.394531 28.859375 20.269531 29 C 20.257812 29.011719 18.839844 30.628906 17.957031 33.003906 C 17.449219 34.371094 17.210938 35.71875 17.257812 37.011719 C 17.3125 38.609375 17.800781 40.144531 18.707031 41.566406 C 18.820312 41.742188 18.855469 41.9375 18.8125 42.144531 C 18.765625 42.347656 18.65625 42.511719 18.480469 42.625 C 18.460938 42.636719 18.441406 42.648438 18.421875 42.660156 Z M 8.132812 34.875 C 10.292969 34.800781 12.53125 35.632812 14.738281 37.351562 C 15.125 37.65625 15.492188 37.96875 15.832031 38.28125 C 15.765625 37.867188 15.726562 37.449219 15.714844 37.03125 C 15.667969 35.527344 15.941406 33.976562 16.53125 32.414062 C 16.84375 31.589844 17.226562 30.792969 17.671875 30.03125 C 14.886719 30.664062 12.703125 29.804688 11.25 28.839844 C 10.90625 28.613281 10.582031 28.363281 10.269531 28.09375 C 10.328125 28.832031 10.304688 29.5625 10.199219 30.289062 C 9.992188 31.648438 9.511719 32.894531 8.75 34.035156 C 8.558594 34.328125 8.351562 34.605469 8.132812 34.875 Z M 8.132812 34.875 " fill-opacity="1" fill-rule="nonzero"/></g></g></g><g clip-path="url(#26ada3844e)"><g clip-path="url(#f35fbcc3f6)"><g clip-path="url(#2243747851)"><path fill="#000000" d="M 34.363281 41.570312 C 34.363281 41.570312 40.324219 38.519531 37.128906 31.730469 C 37.128906 31.730469 39.816406 39.554688 44.976562 35.867188 C 44.976562 35.867188 41.117188 41.246094 45.386719 48.074219 C 45.511719 48.269531 45.640625 48.464844 45.777344 48.664062 C 50.65625 55.765625 41.585938 38.605469 34.363281 41.570312 Z M 34.363281 41.570312 " fill-opacity="1" fill-rule="nonzero"/></g></g></g><g clip-path="url(#e1472d971d)"><g clip-path="url(#f7153dbe7f)"><g clip-path="url(#ab5c5ff38a)"><path fill="#000000" d="M 47.515625 51.074219 C 47.367188 51.15625 46.945312 51.3125 46.492188 50.875 C 46.378906 50.761719 46.269531 50.636719 46.167969 50.507812 C 45.90625 50.1875 45.5625 49.710938 45.140625 49.097656 C 45 48.894531 44.863281 48.6875 44.734375 48.480469 C 44.453125 48.03125 44.195312 47.570312 43.960938 47.097656 C 43.917969 47.046875 43.871094 46.992188 43.828125 46.941406 C 41.496094 44.238281 39.597656 43.050781 38.417969 42.527344 C 37.027344 41.914062 35.761719 41.832031 34.65625 42.285156 C 34.46875 42.363281 34.277344 42.363281 34.085938 42.289062 C 33.898438 42.214844 33.757812 42.085938 33.667969 41.902344 C 33.582031 41.71875 33.570312 41.527344 33.632812 41.332031 C 33.695312 41.136719 33.816406 40.992188 33.996094 40.894531 L 34.007812 40.886719 C 34.023438 40.878906 35.378906 40.164062 36.335938 38.71875 C 37.433594 37.066406 37.59375 35.140625 36.820312 32.992188 C 36.664062 32.660156 36.523438 32.324219 36.398438 31.976562 C 36.332031 31.785156 36.339844 31.59375 36.425781 31.40625 C 36.511719 31.222656 36.648438 31.089844 36.839844 31.011719 C 37.027344 30.933594 37.21875 30.933594 37.410156 31.007812 C 37.601562 31.082031 37.738281 31.214844 37.824219 31.398438 C 37.984375 31.734375 38.121094 32.0625 38.238281 32.378906 C 38.417969 32.765625 38.621094 33.140625 38.847656 33.507812 C 39.40625 34.417969 40.324219 35.582031 41.5 35.957031 C 42.441406 36.257812 43.433594 36.023438 44.527344 35.242188 C 44.683594 35.128906 44.851562 35.082031 45.042969 35.097656 C 45.230469 35.113281 45.390625 35.191406 45.523438 35.324219 C 45.65625 35.457031 45.730469 35.617188 45.746094 35.804688 C 45.761719 35.992188 45.714844 36.164062 45.601562 36.316406 C 45.597656 36.328125 44.707031 37.601562 44.324219 39.628906 C 44.097656 40.820312 44.089844 42.011719 44.289062 43.207031 C 44.472656 44.269531 44.800781 45.285156 45.269531 46.257812 C 46.519531 47.75 47.433594 49.136719 47.75 49.78125 C 47.800781 49.878906 47.84375 49.980469 47.878906 50.085938 C 48.03125 50.570312 47.789062 50.914062 47.539062 51.0625 Z M 47.570312 49.773438 Z M 36.902344 40.503906 C 37.558594 40.589844 38.191406 40.761719 38.800781 41.019531 C 40.085938 41.542969 41.433594 42.441406 42.808594 43.683594 C 42.792969 43.59375 42.777344 43.503906 42.761719 43.410156 C 42.429688 41.394531 42.613281 39.429688 43.3125 37.507812 C 42.542969 37.699219 41.78125 37.671875 41.027344 37.429688 C 40.171875 37.15625 39.441406 36.625 38.824219 35.996094 C 38.746094 37.324219 38.332031 38.535156 37.585938 39.628906 C 37.378906 39.9375 37.148438 40.226562 36.902344 40.503906 Z M 36.902344 40.503906 " fill-opacity="1" fill-rule="nonzero"/></g></g></g><g clip-path="url(#e1b37b4530)"><g clip-path="url(#954cabf03d)"><g clip-path="url(#f0e10ed691)"><path fill="#fab800" d="M 54.894531 23.578125 C 54.722656 23.671875 54.539062 23.695312 54.34375 23.644531 C 54.152344 23.597656 54 23.492188 53.890625 23.324219 C 53.875 23.304688 52.441406 21.175781 50.234375 19.464844 C 48.972656 18.484375 47.714844 17.835938 46.488281 17.53125 C 45.003906 17.160156 43.554688 17.300781 42.175781 17.949219 C 41.988281 18.039062 41.796875 18.050781 41.605469 17.984375 C 41.410156 17.917969 41.261719 17.792969 41.167969 17.613281 C 41.070312 17.433594 41.050781 17.242188 41.105469 17.042969 C 41.160156 16.847656 41.277344 16.695312 41.453125 16.589844 C 41.46875 16.582031 42.886719 15.726562 43.972656 14.054688 C 45.398438 11.855469 45.621094 9.320312 44.628906 6.507812 C 44.5625 6.320312 44.566406 6.132812 44.644531 5.949219 C 44.722656 5.769531 44.851562 5.632812 45.03125 5.550781 C 45.210938 5.46875 45.398438 5.457031 45.585938 5.515625 C 45.777344 5.574219 45.921875 5.691406 46.019531 5.863281 C 46.027344 5.875 46.941406 7.40625 48.621094 8.503906 C 50.796875 9.929688 53.222656 10 55.828125 8.710938 C 55.996094 8.632812 56.167969 8.613281 56.347656 8.652344 C 56.527344 8.695312 56.671875 8.789062 56.785156 8.9375 C 56.894531 9.082031 56.949219 9.25 56.941406 9.433594 C 56.933594 9.617188 56.867188 9.777344 56.746094 9.917969 C 56.734375 9.933594 55.316406 11.546875 54.433594 13.921875 C 53.925781 15.289062 53.6875 16.636719 53.734375 17.929688 C 53.789062 19.527344 54.277344 21.0625 55.183594 22.484375 C 55.296875 22.660156 55.332031 22.855469 55.289062 23.0625 C 55.242188 23.265625 55.132812 23.429688 54.953125 23.542969 C 54.933594 23.554688 54.914062 23.566406 54.894531 23.578125 Z M 44.605469 15.796875 C 46.765625 15.71875 49.003906 16.550781 51.210938 18.269531 C 51.601562 18.574219 51.964844 18.886719 52.304688 19.199219 C 52.242188 18.785156 52.203125 18.367188 52.191406 17.949219 C 52.144531 16.449219 52.417969 14.898438 53.003906 13.335938 C 53.320312 12.507812 53.699219 11.710938 54.148438 10.949219 C 51.363281 11.582031 49.175781 10.726562 47.722656 9.761719 C 47.382812 9.53125 47.054688 9.285156 46.742188 9.015625 C 46.804688 9.75 46.78125 10.480469 46.671875 11.210938 C 46.46875 12.566406 45.984375 13.816406 45.226562 14.957031 C 45.035156 15.246094 44.828125 15.527344 44.605469 15.796875 Z M 44.605469 15.796875 " fill-opacity="1" fill-rule="nonzero"/></g></g></g><g clip-path="url(#77dde028f7)"><g clip-path="url(#9022251bae)"><g clip-path="url(#17d1201c7f)"><path fill="#fab800" d="M 19.945312 40.613281 C 19.773438 40.707031 19.589844 40.730469 19.394531 40.679688 C 19.203125 40.632812 19.050781 40.527344 18.941406 40.359375 C 18.925781 40.339844 17.492188 38.210938 15.285156 36.5 C 14.027344 35.523438 12.765625 34.871094 11.539062 34.566406 C 10.054688 34.195312 8.605469 34.339844 7.226562 34.988281 C 7.039062 35.074219 6.851562 35.085938 6.65625 35.019531 C 6.460938 34.953125 6.316406 34.832031 6.21875 34.648438 C 6.121094 34.46875 6.101562 34.277344 6.15625 34.078125 C 6.214844 33.882812 6.328125 33.730469 6.507812 33.625 C 6.519531 33.617188 7.9375 32.761719 9.023438 31.089844 C 10.449219 28.890625 10.671875 26.355469 9.679688 23.542969 C 9.613281 23.355469 9.621094 23.167969 9.695312 22.988281 C 9.773438 22.804688 9.902344 22.671875 10.082031 22.585938 C 10.261719 22.503906 10.449219 22.492188 10.636719 22.550781 C 10.828125 22.609375 10.972656 22.726562 11.074219 22.898438 C 11.078125 22.910156 11.996094 24.441406 13.675781 25.539062 C 15.847656 26.964844 18.273438 27.035156 20.878906 25.75 C 21.046875 25.667969 21.21875 25.648438 21.398438 25.691406 C 21.578125 25.730469 21.722656 25.828125 21.832031 25.972656 C 21.945312 26.121094 21.996094 26.285156 21.992188 26.46875 C 21.984375 26.652344 21.917969 26.816406 21.796875 26.953125 C 21.785156 26.96875 20.367188 28.585938 19.480469 30.957031 C 18.972656 32.324219 18.738281 33.671875 18.78125 34.964844 C 18.839844 36.566406 19.328125 38.097656 20.234375 39.519531 C 20.347656 39.699219 20.382812 39.890625 20.335938 40.097656 C 20.292969 40.304688 20.183594 40.464844 20.003906 40.582031 C 19.984375 40.589844 19.964844 40.601562 19.945312 40.613281 Z M 9.660156 32.832031 C 11.816406 32.753906 14.054688 33.585938 16.261719 35.304688 C 16.652344 35.609375 17.015625 35.921875 17.355469 36.234375 C 17.292969 35.820312 17.253906 35.40625 17.242188 34.984375 C 17.195312 33.484375 17.46875 31.933594 18.054688 30.371094 C 18.371094 29.542969 18.75 28.75 19.199219 27.984375 C 16.414062 28.621094 14.226562 27.761719 12.773438 26.796875 C 12.433594 26.566406 12.105469 26.320312 11.796875 26.050781 C 11.855469 26.785156 11.832031 27.515625 11.722656 28.246094 C 11.519531 29.601562 11.039062 30.851562 10.277344 31.992188 C 10.085938 32.28125 9.878906 32.5625 9.660156 32.832031 Z M 9.660156 32.832031 " fill-opacity="1" fill-rule="nonzero"/></g></g></g><g clip-path="url(#7dc7547e50)"><g clip-path="url(#74a11b6779)"><g clip-path="url(#c31b0e281e)"><path fill="#fab800" d="M 49.042969 49.027344 C 48.890625 49.109375 48.46875 49.269531 48.019531 48.832031 C 47.902344 48.714844 47.796875 48.59375 47.695312 48.464844 C 47.433594 48.140625 47.085938 47.667969 46.664062 47.054688 C 46.523438 46.847656 46.390625 46.640625 46.261719 46.433594 C 45.980469 45.988281 45.722656 45.527344 45.488281 45.050781 C 45.445312 45 45.398438 44.949219 45.355469 44.894531 C 43.023438 42.195312 41.125 41.003906 39.945312 40.484375 C 38.550781 39.867188 37.289062 39.785156 36.183594 40.238281 C 35.992188 40.316406 35.800781 40.320312 35.609375 40.242188 C 35.417969 40.167969 35.277344 40.039062 35.191406 39.851562 C 35.105469 39.664062 35.09375 39.472656 35.160156 39.277344 C 35.230469 39.082031 35.355469 38.9375 35.539062 38.839844 C 35.550781 38.835938 36.90625 38.121094 37.863281 36.671875 C 38.960938 35.019531 39.121094 33.097656 38.347656 30.945312 C 38.1875 30.617188 38.046875 30.277344 37.925781 29.933594 C 37.859375 29.738281 37.867188 29.546875 37.953125 29.363281 C 38.039062 29.175781 38.175781 29.042969 38.363281 28.96875 C 38.554688 28.890625 38.746094 28.890625 38.933594 28.964844 C 39.125 29.039062 39.265625 29.167969 39.351562 29.355469 C 39.507812 29.6875 39.644531 30.015625 39.761719 30.335938 C 39.945312 30.722656 40.148438 31.097656 40.371094 31.460938 C 40.933594 32.371094 41.847656 33.539062 43.023438 33.914062 C 43.96875 34.214844 44.957031 33.980469 46.054688 33.195312 C 46.207031 33.085938 46.378906 33.039062 46.566406 33.054688 C 46.753906 33.070312 46.914062 33.144531 47.050781 33.277344 C 47.183594 33.410156 47.257812 33.570312 47.273438 33.761719 C 47.285156 33.949219 47.238281 34.117188 47.128906 34.273438 C 47.121094 34.28125 46.234375 35.554688 45.851562 37.582031 C 45.625 38.773438 45.613281 39.96875 45.816406 41.164062 C 46 42.222656 46.324219 43.242188 46.792969 44.210938 C 48.046875 45.707031 48.957031 47.089844 49.277344 47.734375 C 49.328125 47.832031 49.371094 47.933594 49.40625 48.039062 C 49.558594 48.523438 49.316406 48.867188 49.0625 49.015625 Z M 49.09375 47.726562 Z M 38.429688 38.457031 C 39.082031 38.546875 39.714844 38.71875 40.324219 38.972656 C 41.613281 39.496094 42.960938 40.394531 44.335938 41.636719 C 44.316406 41.546875 44.300781 41.457031 44.285156 41.367188 C 43.953125 39.351562 44.140625 37.382812 44.839844 35.464844 C 44.070312 35.652344 43.308594 35.625 42.550781 35.382812 C 41.699219 35.109375 40.964844 34.578125 40.351562 33.953125 C 40.273438 35.277344 39.859375 36.488281 39.109375 37.585938 C 38.902344 37.890625 38.675781 38.183594 38.429688 38.457031 Z M 38.429688 38.457031 " fill-opacity="1" fill-rule="nonzero"/></g></g></g></svg>