<svg xmlns="http://www.w3.org/2000/svg" xmlns:xlink="http://www.w3.org/1999/xlink" width="100" zoomAndPan="magnify" viewBox="0 0 75 74.999997" height="100" preserveAspectRatio="xMidYMid meet" version="1.0"><defs><clipPath id="93df54bb72"><path d="M 0 7.125 L 75 7.125 L 75 67.875 L 0 67.875 Z M 0 7.125 " clip-rule="nonzero"/></clipPath></defs><g clip-path="url(#93df54bb72)"><path fill="#fab800" d="M 75.003906 40.507812 C 74.878906 44.792969 74.746094 48.796875 73.882812 52.757812 C 72.503906 59.117188 68.445312 62.886719 62.421875 64.746094 C 58.515625 65.953125 54.496094 66.546875 50.398438 66.6875 C 45.867188 66.839844 41.335938 67.09375 36.808594 67.316406 C 32.953125 67.503906 29.09375 67.871094 25.238281 67.855469 C 20.554688 67.863281 15.996094 67.117188 11.558594 65.613281 C 6.875 64 3.6875 60.945312 2.007812 56.214844 C 1.140625 53.78125 0.886719 51.289062 0.671875 48.785156 C 0.421875 45.863281 0.429688 42.921875 0.300781 39.988281 C 0.234375 38.597656 0.00390625 37.210938 0.0351562 35.828125 C 0.0976562 32.628906 0.335938 29.441406 1.046875 26.308594 C 2.660156 19.210938 7.195312 14.679688 13.792969 12.0625 C 18.574219 10.171875 23.644531 9.417969 28.714844 8.746094 C 34.28125 8.007812 39.863281 7.40625 45.5 7.464844 C 46.730469 7.476562 47.980469 7.121094 49.195312 7.230469 C 53.144531 7.574219 57.136719 7.261719 61.046875 8.144531 C 64.109375 8.835938 66.984375 9.871094 69.265625 12.171875 C 71.761719 14.6875 73.03125 17.804688 73.683594 21.207031 C 74.417969 25.011719 74.621094 28.871094 74.675781 32.742188 C 74.714844 35.417969 74.898438 38.09375 75.003906 40.507812 Z M 75.003906 40.507812 " fill-opacity="1" fill-rule="nonzero"/></g><path fill="#0d102c" d="M 60.367188 37.210938 C 59.761719 35.925781 58.902344 35.140625 58.003906 34.453125 C 56.292969 33.140625 54.597656 31.769531 52.828125 30.660156 C 50.027344 28.902344 47.175781 27.304688 44.324219 25.722656 C 43.757812 25.410156 43.082031 25.363281 42.464844 25.417969 C 41.265625 25.527344 40.300781 26.863281 40.054688 28.597656 C 39.875 29.851562 39.648438 31.101562 39.546875 32.371094 C 39.464844 33.453125 39.394531 34.535156 39.324219 35.621094 C 38.925781 35.191406 38.488281 34.800781 38.019531 34.453125 C 36.308594 33.140625 34.613281 31.769531 32.847656 30.660156 C 30.042969 28.902344 27.191406 27.304688 24.339844 25.722656 C 23.773438 25.410156 23.097656 25.363281 22.480469 25.417969 C 21.28125 25.527344 20.320312 26.863281 20.070312 28.597656 C 19.890625 29.851562 19.664062 31.101562 19.566406 32.371094 C 19.347656 35.179688 19.195312 38 19.015625 40.816406 C 18.945312 42.910156 19.046875 46.023438 19.398438 48.089844 C 19.976562 52.210938 22.410156 53.582031 24.546875 51.914062 C 25.0625 51.527344 25.613281 51.191406 26.195312 50.910156 C 27.484375 50.25 28.78125 49.597656 30.089844 49.011719 C 32.835938 47.789062 35.582031 46.546875 38.355469 45.4375 C 38.601562 45.339844 38.835938 45.226562 39.066406 45.089844 C 39.117188 46.097656 39.222656 47.09375 39.378906 48.089844 C 39.957031 52.210938 42.390625 53.582031 44.53125 51.914062 C 45.046875 51.527344 45.59375 51.191406 46.175781 50.910156 C 47.46875 50.25 48.761719 49.597656 50.070312 49.011719 C 52.816406 47.789062 55.566406 46.546875 58.335938 45.4375 C 60.230469 44.6875 61.042969 43.285156 61.0625 40.382812 C 61.078125 39.269531 60.847656 38.214844 60.367188 37.210938 Z M 60.367188 37.210938 " fill-opacity="1" fill-rule="nonzero"/></svg>